{
.formatVersion = 3;
axes = (
{
name = Weight;
tag = wght;
}
);
classes = (
{
code = "parenleft parenright A O a o Lcommaaccent lcommaaccent Ncommaaccent ncommaaccent Scedilla scedilla Tcedilla tcedilla commaaccentcomb tonos Decyr Elcyr Efcyr becyr vecyr gecyr decyr zhecyr zecyr icyr ishortcyr kacyr elcyr pecyr tecyr tsecyr shacyr shchacyr hardcyr softcyr yucyr koronis lenis tilde-gr dieresistilde lenisgrave lenisacute lenistilde aspergrave asperacute aspertilde dieresisgrave dieresisacute grave-gr acute-gr asper";
name = aalt;
},
{
code = "parenleft.inferior parenright.inferior ordfeminine ordmasculine ordfeminine ordmasculine Lcommaaccent.loclMAH lcommaaccent.loclMAH Ncommaaccent.loclMAH ncommaaccent.loclMAH Scommaaccent scommaaccent Tcommaaccent tcommaaccent commaaccentcomb.loclMAH tonos.case DeCy.loclBGR ElCy.loclBGR EfCy.loclBGR beCy.loclSRB veCy.loclBGR geCy.loclBGR deCy.loclBGR zheCy.loclBGR zeCy.loclBGR iiCy.loclBGR iishortCy.loclBGR kaCy.loclBGR elCy.loclBGR peCy.loclBGR teCy.loclBGR tseCy.loclBGR shaCy.loclBGR shchaCy.loclBGR hardsignCy.loclBGR softsignCy.loclBGR yucyr.loclBGR koronis.case lenis.case tilde-gr.case dieresistilde.case lenisgrave.case lenisacute.case lenistilde.case aspergrave.case asperacute.case aspertilde.case dieresisgrave.case dieresisacute.case grave-gr.case acute-gr.case asper.case";
name = aalt2;
},
{
code = "tonos koronis lenis tilde-gr dieresistilde lenisgrave lenisacute lenistilde aspergrave asperacute aspertilde dieresisgrave dieresisacute grave-gr acute-gr asper";
name = case_ccmp;
},
{
code = "tonos.case koronis.case lenis.case tilde-gr.case dieresistilde.case lenisgrave.case lenisacute.case lenistilde.case aspergrave.case asperacute.case aspertilde.case dieresisgrave.case dieresisacute.case grave-gr.case acute-gr.case asper.case";
name = case_ccmp2;
},
{
code = "i j tonos koronis lenis tilde-gr dieresistilde lenisgrave lenisacute lenistilde aspergrave asperacute aspertilde dieresisgrave dieresisacute grave-gr acute-gr asper";

glyphs = (
{
glyphname = exclam;
layers = (
{
hints = (
{
horizontal = 1;
place = (0,152);
type = Stem;
},
{
horizontal = 1;
place = (703,-20);
target = down;
type = TopGhost;
},
{
place = (58,194);
type = Stem;
},
{
place = (64,184);
type = Stem;
}
);
layerId = "F516ED7C-7F23-41BA-A2F1-1EB4B95E9343";
shapes = (
{
closed = 1;
nodes = (
(64,481,l),
(82,225,l),
(228,225,l),
(248,481,l),
(248,703,l),
(64,703,l)
);
},
{
closed = 1;
nodes = (
(252,0,l),
(252,152,l),
(58,152,l),
(58,0,l)
);
}
);
width = 310;
},
{
hints = (
{
horizontal = 1;
place = (0,85);
type = Stem;
},
{
horizontal = 1;
place = (700,-20);
target = down;
type = TopGhost;
},
{
place = (70,91);
type = Stem;
},
{
place = (76,80);
type = Stem;
}
);
layerId = "8B72E089-1E16-4D07-A0B8-3936BD35683A";
shapes = (
{
closed = 1;
nodes = (
(76,411,l),
(94,167,l),
(137,167,l),
(156,411,l),
(156,700,l),
(76,700,l)
);
},
{
closed = 1;
nodes = (
(161,0,l),
(161,85,l),
(70,85,l),
(70,0,l)
);
}
);
width = 231;
},
{
hints = (
{
horizontal = 1;
place = (0,63);
type = Stem;
},
{
horizontal = 1;
place = (699,-20);
target = down;
type = TopGhost;
},
{
place = (74,57);
type = Stem;
},
{
place = (80,46);
type = Stem;
}
);
layerId = "3FC04E8D-38CC-44E9-A58D-856391625EC6";
shapes = (
{
closed = 1;
nodes = (
(80,388,l),
(87,148,l),
(118,148,l),
(126,388,l),
(126,699,l),
(80,699,l)
);
},
{
closed = 1;
nodes = (
(131,0,l),
(131,63,l),
(74,63,l),
(74,0,l)
);
}
);
width = 205;
}
);
unicode = 33;
},
{
glyphname = quotedbl;
layers = (
{
hints = (
{
horizontal = 1;
place = (429,282);
type = Stem;
},
{
place = (53,376);
type = Stem;
}
);
layerId = "F516ED7C-7F23-41BA-A2F1-1EB4B95E9343";
shapes = (
{
closed = 1;
nodes = (
(80,429,l),
(198,429,l),
(225,711,l),
(53,711,l)
);
},
{
closed = 1;
nodes = (
(284,429,l),
(401,429,l),
(429,711,l),
(257,711,l)
);
}
);
width = 482;
},
{
hints = (
{
horizontal = 1;
place = (479,229);
type = Stem;
},
{
place = (65,66);
type = Stem;
},
{
place = (225,66);
type = Stem;
}
);
layerId = "8B72E089-1E16-4D07-A0B8-3936BD35683A";
shapes = (
{
closed = 1;
nodes = (
(65,479,l),
(131,479,l),
(131,708,l),
(65,708,l)
);
},
{
closed = 1;
nodes = (
(225,479,l),
(291,479,l),
(291,708,l),
(225,708,l)
);
}
);
width = 356;
},
{
hints = (
{
horizontal = 1;
place = (496,211);
type = Stem;
},
{
horizontal = 1;
place = (707,-20);
target = down;
type = TopGhost;
},
{
place = (64,40);
type = Stem;
},
{
place = (210,40);
type = Stem;
}
);
layerId = "3FC04E8D-38CC-44E9-A58D-856391625EC6";
shapes = (
{
closed = 1;
nodes = (
(69,496,l),
(100,496,l),
(109,707,l),
(60,707,l)
);
},
{
closed = 1;
nodes = (
(215,496,l),
(246,496,l),
(255,707,l),
(206,707,l)
);
}
);
width = 315;
}
);
unicode = 34;
},
{
glyphname = numbersign;
layers = (
{
hints = (
{
horizontal = 1;
place = (-8,21);
target = up;
type = BottomGhost;
},
{
horizontal = 1;
place = (162,128);
type = Stem;
},
{
horizontal = 1;
place = (403,129);
type = Stem;
},
{
horizontal = 1;
place = (703,-20);
target = down;
type = TopGhost;
},
{
place = (39,610);
type = Stem;
}
);
layerId = "F516ED7C-7F23-41BA-A2F1-1EB4B95E9343";
shapes = (
{
closed = 1;
nodes = (
(454,703,l),
(423,532,l),
(335,532,l),
(366,703,l),
(211,703,l),
(180,532,l),
(66,532,l),
(66,403,l),
(156,403,l),
(135,290,l),
(39,290,l),
(39,162,l),
(112,162,l),
(81,-8,l),
(236,-8,l),
(267,162,l),
(356,162,l),
(325,-8,l),
(479,-8,l),
(511,162,l),
(622,162,l),
(622,290,l),
(534,290,l),
(555,403,l),
(649,403,l),
(649,532,l),
(579,532,l),
(611,703,l)
);
},
{
closed = 1;
nodes = (
(290,290,l),
(311,403,l),
(400,403,l),
(379,290,l)
);
}
);
width = 689;
},
{
hints = (
{
horizontal = 1;
place = (-10,21);
target = up;
type = BottomGhost;
},
{
horizontal = 1;
place = (215,59);
type = Stem;
},
{
horizontal = 1;
place = (415,59);
type = Stem;
},
{
horizontal = 1;
place = (700,-20);
target = down;
type = TopGhost;
},
{
place = (50,554);
type = Stem;
}
);
layerId = "8B72E089-1E16-4D07-A0B8-3936BD35683A";
shapes = (
{
closed = 1;
nodes = (
(471,700,l),
(430,474,l),
(272,474,l),
(313,700,l),
(250,700,l),
(209,474,l),
(80,474,l),
(80,415,l),
(198,415,l),
(172,274,l),
(50,274,l),
(50,215,l),
(161,215,l),
(120,-10,l),
(184,-10,l),
(225,215,l),
(383,215,l),
(342,-10,l),
(405,-10,l),
(446,215,l),
(574,215,l),
(574,274,l),
(457,274,l),
(483,415,l),
(604,415,l),
(604,474,l),
(494,474,l),
(535,700,l)
);
},
{
closed = 1;
nodes = (
(236,274,l),
(261,415,l),
(419,415,l),
(394,274,l)
);
}
);
width = 654;
},
{
hints = (
{
horizontal = 1;
place = (-11,21);
target = up;
type = BottomGhost;
},
{
horizontal = 1;
place = (233,36);
type = Stem;
},
{
horizontal = 1;
place = (419,36);
type = Stem;
},
{
horizontal = 1;
place = (699,-20);
target = down;
type = TopGhost;
},
{
place = (54,535);
type = Stem;
}
);
layerId = "3FC04E8D-38CC-44E9-A58D-856391625EC6";
shapes = (
{
closed = 1;
nodes = (
(477,699,l),
(433,455,l),
(252,455,l),
(296,699,l),
(263,699,l),
(218,455,l),
(85,455,l),
(85,419,l),
(212,419,l),
(184,269,l),
(54,269,l),
(54,233,l),
(178,233,l),
(133,-11,l),
(167,-11,l),
(211,233,l),
(392,233,l),
(348,-11,l),
(381,-11,l),
(425,233,l),
(558,233,l),
(558,269,l),
(432,269,l),
(459,419,l),
(589,419,l),
(589,455,l),
(466,455,l),
(510,699,l)
);
},
{
closed = 1;
nodes = (
(218,269,l),
(245,419,l),
(426,419,l),
(399,269,l)
);
}
);
width = 643;
}
);
unicode = 35;
},
{
glyphname = dollar;
layers = (
{
guides = (
{
angle = 90;
position = "{-550, 0}";
}
);
hints = (
{
horizontal = 1;
place = (-8,21);
target = up;
type = BottomGhost;
},
{
horizontal = 1;
place = (-4,21);
target = up;
type = BottomGhost;
},
{
horizontal = 1;
place = (708,-20);
target = down;
type = TopGhost;
},
{
horizontal = 1;
place = (709,-20);
target = down;
type = TopGhost;
},
{
place = (68,180);
type = Stem;
},
{
place = (263,80);
type = Stem;
},
{
place = (393,179);
type = Stem;
}
);
layerId = "F516ED7C-7F23-41BA-A2F1-1EB4B95E9343";
shapes = (
{
closed = 1;
nodes = (
(263,-100,l),
(343,-100,l),
(343,-8,l),
(469,1,o),
(572,77,o),
(572,202,cs),
(572,334,o),
(451,393,o),
(343,429,c),
(343,568,l),
(373,558,o),
(393,529,o),
(398,472,c),
(565,506,l),
(551,622,o),
(448,695,o),
(343,709,c),
(343,794,l),
(263,794,l),
(263,708,l),
(155,693,o),
(68,624,o),
(68,513,cs),
(68,386,o),
(177,338,o),
(263,304,c),
(263,141,l),
(232,158,o),
(210,196,o),
(210,262,c),
(30,236,l),
(48,101,o),
(148,16,o),
(263,-4,c)
);
},
{
closed = 1;
nodes = (
(393,157,o),
(376,137,o),
(343,130,c),
(343,272,l),
(376,255,o),
(393,236,o),
(393,200,cs)
);
},
{
closed = 1;
nodes = (
(248,539,o),
(253,554,o),
(263,562,c),
(263,473,l),
(254,484,o),
(248,498,o),
(248,516,cs)
);
}
);
width = 606;
},
{
hints = (
{
horizontal = 1;
place = (-11,70);
type = Stem;
},
{
horizontal = 1;
place = (-6,21);
target = up;
type = BottomGhost;
},
{
horizontal = 1;
place = (706,-20);
target = down;
type = TopGhost;
},
{
place = (82,74);
type = Stem;
},
{
place = (248,65);
type = Stem;
},
{
place = (443,74);
type = Stem;
}
);
layerId = "8B72E089-1E16-4D07-A0B8-3936BD35683A";
shapes = (
{
closed = 1;
nodes = (
(248,-100,l),
(313,-100,l),
(313,-11,l),
(426,-5,o),
(517,65,o),
(517,182,cs),
(517,313,o),
(410,355,o),
(313,393,c),
(313,638,l),
(367,630,o),
(420,593,o),
(433,520,c),
(504,545,l),
(478,644,o),
(396,696,o),
(313,706,c),
(313,800,l),
(248,800,l),
(248,706,l),
(155,694,o),
(82,634,o),
(82,530,cs),
(82,419,o),
(163,375,o),
(248,341,c),
(248,64,l),
(189,81,o),
(132,131,o),
(115,223,c),
(44,198,l),
(72,76,o),
(158,11,o),
(248,-6,c)
);
},
{
closed = 1;
nodes = (
(443,111,o),
(387,65,o),
(313,59,c),
(313,316,l),
(384,287,o),
(443,254,o),
(443,180,cs)
);
},
{
closed = 1;
nodes = (
(156,588,o),
(195,623,o),
(248,635,c),
(248,420,l),
(195,445,o),
(156,476,o),
(156,533,cs)
);
}
);
width = 561;
},
{
hints = (
{
horizontal = 1;
place = (-12,37);
type = Stem;
},
{
horizontal = 1;
place = (670,36);
type = Stem;
},
{
horizontal = 1;
place = (672,35);
type = Stem;
},
{
place = (87,39);
type = Stem;
},
{
place = (256,34);
type = Stem;
},
{
place = (460,39);
type = Stem;
}
);
layerId = "3FC04E8D-38CC-44E9-A58D-856391625EC6";
shapes = (
{
closed = 1;
nodes = (
(256,-100,l),
(290,-100,l),
(290,-12,l),
(405,-12,o),
(499,55,o),
(499,174,cs),
(499,289,o),
(390,358,o),
(290,383,c),
(290,672,l),
(354,669,o),
(428,628,o),
(445,546,c),
(484,558,l),
(453,658,o),
(369,702,o),
(290,707,c),
(290,802,l),
(256,802,l),
(256,706,l),
(161,699,o),
(87,643,o),
(87,538,cs),
(87,429,o),
(167,390,o),
(256,354,c),
(256,28,l),
(184,40,o),
(109,94,o),
(84,200,c),
(49,186,l),
(82,62,o),
(170,3,o),
(256,-10,c)
);
},
{
closed = 1;
nodes = (
(460,86,o),
(383,26,o),
(290,25,c),
(290,340,l),
(375,306,o),
(460,267,o),
(460,171,cs)
);
},
{
closed = 1;
nodes = (
(126,621,o),
(185,662,o),
(256,670,c),
(256,397,l),
(184,426,o),
(126,458,o),
(126,542,cs)
);
}
);
width = 546;
}
);
unicode = 36;
},
{
glyphname = percent;
layers = (
{
hints = (
{
horizontal = 1;
place = (-8,125);
type = Stem;
},
{
horizontal = 1;
place = (0,21);
target = up;
type = BottomGhost;
},
{
horizontal = 1;
place = (289,124);
type = Stem;
},
{
horizontal = 1;
place = (586,125);
type = Stem;
},
{
horizontal = 1;
place = (703,-20);
target = down;
type = TopGhost;
},
{
place = (42,170);
type = Stem;
},
{
place = (273,170);
type = Stem;
},
{
place = (551,170);
type = Stem;
},
{
place = (781,172);
type = Stem;
}
);
layerId = "F516ED7C-7F23-41BA-A2F1-1EB4B95E9343";
shapes = (
{
closed = 1;
nodes = (
(369,289,o),
(443,379,o),
(443,500,cs),
(443,621,o),
(369,711,o),
(243,711,cs),
(116,711,o),
(42,621,o),
(42,500,cs),
(42,379,o),
(116,289,o),
(243,289,cs)
);
},
{
closed = 1;
nodes = (
(224,413,o),
(212,430,o),
(212,499,cs),
(212,569,o),
(225,586,o),
(243,586,cs),
(261,586,o),
(273,569,o),
(273,499,cs),
(273,429,o),
(263,413,o),
(243,413,cs)
);
},
{
closed = 1;
nodes = (
(165,0,l),
(327,0,l),
(829,703,l),
(667,703,l)
);
},
{
closed = 1;
nodes = (
(625,414,o),
(551,324,o),
(551,203,cs),
(551,82,o),
(625,-8,o),
(751,-8,cs),
(877,-8,o),
(953,82,o),
(953,203,cs),
(953,324,o),
(877,414,o),
(751,414,cs)
);
},
{
closed = 1;
nodes = (
(770,290,o),
(781,274,o),
(781,204,cs),
(781,136,o),
(770,117,o),
(751,117,cs),
(733,117,o),
(721,136,o),
(721,204,cs),
(721,274,o),
(733,290,o),
(751,290,cs)
);
}
);
width = 996;
},
{
hints = (
{
horizontal = 1;
place = (-8,54);
type = Stem;
},
{
horizontal = 1;
place = (0,21);
target = up;
type = BottomGhost;
},
{
horizontal = 1;
place = (322,55);
type = Stem;
},
{
horizontal = 1;
place = (323,55);
type = Stem;
},
{
horizontal = 1;
place = (654,54);
type = Stem;
},
{
horizontal = 1;
place = (700,-20);
target = down;
type = TopGhost;
},
{
place = (44,64);
type = Stem;
},
{
place = (302,64);
type = Stem;
},
{
place = (510,64);
type = Stem;
},
{
place = (768,64);
type = Stem;
}
);
layerId = "8B72E089-1E16-4D07-A0B8-3936BD35683A";
shapes = (
{
closed = 1;
nodes = (
(304,322,o),
(366,397,o),
(366,515,cs),
(366,633,o),
(304,708,o),
(205,708,cs),
(106,708,o),
(44,633,o),
(44,515,cs),
(44,397,o),
(106,322,o),
(205,322,cs)
);
},
{
closed = 1;
nodes = (
(145,377,o),
(108,429,o),
(108,514,cs),
(108,599,o),
(145,654,o),
(205,654,cs),
(266,654,o),
(302,599,o),
(302,514,cs),
(302,429,o),
(266,377,o),
(205,377,cs)
);
},
{
closed = 1;
nodes = (
(150,0,l),
(227,0,l),
(726,700,l),
(649,700,l)
);
},
{
closed = 1;
nodes = (
(572,378,o),
(510,303,o),
(510,185,cs),
(510,67,o),
(572,-8,o),
(671,-8,cs),
(770,-8,o),
(832,67,o),
(832,185,cs),
(832,303,o),
(770,378,o),
(671,378,cs)
);
},
{
closed = 1;
nodes = (
(731,323,o),
(768,271,o),
(768,186,cs),
(768,101,o),
(731,46,o),
(671,46,cs),
(610,46,o),
(574,101,o),
(574,186,cs),
(574,271,o),
(610,323,o),
(671,323,cs)
);
}
);
width = 876;
},
{
hints = (
{
horizontal = 1;
place = (-8,31);
type = Stem;
},
{
horizontal = 1;
place = (0,21);
target = up;
type = BottomGhost;
},
{
horizontal = 1;
place = (333,32);
type = Stem;
},
{
horizontal = 1;
place = (334,32);
type = Stem;
},
{
horizontal = 1;
place = (677,30);
type = Stem;
},
{
horizontal = 1;
place = (699,-20);
target = down;
type = TopGhost;
},
{
place = (45,29);
type = Stem;
},
{
place = (312,29);
type = Stem;
},
{
place = (497,29);
type = Stem;
},
{
place = (764,28);
type = Stem;
}
);
layerId = "3FC04E8D-38CC-44E9-A58D-856391625EC6";
shapes = (
{
closed = 1;
nodes = (
(283,333,o),
(341,403,o),
(341,520,cs),
(341,637,o),
(283,707,o),
(193,707,cs),
(103,707,o),
(45,637,o),
(45,520,cs),
(45,403,o),
(103,333,o),
(193,333,cs)
);
},
{
closed = 1;
nodes = (
(119,365,o),
(74,429,o),
(74,519,cs),
(74,609,o),
(119,677,o),
(193,677,cs),
(268,677,o),
(312,609,o),
(312,519,cs),
(312,429,o),
(267,365,o),
(193,365,cs)
);
},
{
closed = 1;
nodes = (
(145,0,l),
(194,0,l),
(692,699,l),
(643,699,l)
);
},
{
closed = 1;
nodes = (
(555,366,o),
(497,296,o),
(497,179,cs),
(497,62,o),
(555,-8,o),
(645,-8,cs),
(735,-8,o),
(792,62,o),
(792,179,cs),
(792,296,o),
(735,366,o),
(645,366,cs)
);
},
{
closed = 1;
nodes = (
(718,334,o),
(764,270,o),
(764,180,cs),
(764,90,o),
(718,23,o),
(645,23,cs),
(570,23,o),
(526,90,o),
(526,180,cs),
(526,270,o),
(570,334,o),
(645,334,cs)
);
}
);
width = 837;
}
);
unicode = 37;
},
{
glyphname = ampersand;
layers = (
{
hints = (
{
horizontal = 1;
place = (-8,136);
type = Stem;
},
{
horizontal = 1;
place = (582,128);
type = Stem;
},
{
place = (31,177);
type = Stem;
},
{
place = (104,154);
type = Stem;
},
{
place = (328,150);
type = Stem;
},
{
place = (481,144);
type = Stem;
}
);
layerId = "F516ED7C-7F23-41BA-A2F1-1EB4B95E9343";
shapes = (
{
closed = 1;
nodes = (
(481,402,l),
(484,357,o),
(478,315,o),
(466,279,c),
(372,384,l),
(430,426,o),
(478,479,o),
(478,553,cs),
(478,641,o),
(403,710,o),
(299,710,cs),
(186,710,o),
(104,641,o),
(104,541,cs),
(104,479,o),
(145,426,o),
(168,400,c),
(71,343,o),
(31,290,o),
(31,203,cs),
(31,82,o),
(142,-8,o),
(295,-8,cs),
(361,-8,o),
(426,13,o),
(480,53,c),
(540,-14,l),
(661,64,l),
(574,160,l),
(612,225,o),
(631,307,o),
(625,402,c)
);
},
{
closed = 1;
nodes = (
(244,128,o),
(208,162,o),
(208,210,cs),
(208,246,o),
(225,275,o),
(256,302,c),
(384,159,l),
(357,139,o),
(326,128,o),
(295,128,cs)
);
},
{
closed = 1;
nodes = (
(258,568,o),
(270,582,o),
(293,582,cs),
(318,582,o),
(331,565,o),
(328,537,c),
(326,506,o),
(314,487,o),
(293,471,c),
(275,492,o),
(258,517,o),
(258,543,cs)
);
}
);
width = 667;
},
{
hints = (
{
horizontal = 1;
place = (-10,68);
type = Stem;
},
{
horizontal = 1;
place = (641,66);
type = Stem;
},
{
place = (40,76);
type = Stem;
},
{
place = (122,75);
type = Stem;
},
{
place = (342,71);
type = Stem;
},
{
place = (504,74);
type = Stem;
}
);
layerId = "8B72E089-1E16-4D07-A0B8-3936BD35683A";
shapes = (
{
closed = 1;
nodes = (
(504,364,l),
(504,308,o),
(494,254,o),
(475,206,c),
(304,409,l),
(363,452,o),
(413,502,o),
(413,574,cs),
(413,652,o),
(356,707,o),
(276,707,cs),
(186,707,o),
(122,652,o),
(122,574,cs),
(122,502,o),
(188,436,o),
(202,419,c),
(106,353,o),
(40,277,o),
(40,183,cs),
(40,70,o),
(136,-10,o),
(272,-10,cs),
(364,-10,o),
(434,29,o),
(484,87,c),
(566,-10,l),
(626,29,l),
(525,148,l),
(561,214,o),
(578,292,o),
(578,364,c)
);
},
{
closed = 1;
nodes = (
(180,58,o),
(116,110,o),
(116,183,cs),
(116,260,o),
(168,316,o),
(245,369,c),
(439,140,l),
(401,90,o),
(346,58,o),
(272,58,cs)
);
},
{
closed = 1;
nodes = (
(197,612,o),
(228,641,o),
(273,641,cs),
(314,641,o),
(342,612,o),
(342,570,cs),
(342,527,o),
(307,493,o),
(261,459,c),
(236,488,o),
(197,529,o),
(197,570,cs)
);
}
);
width = 629;
},
{
hints = (
{
horizontal = 1;
place = (-11,35);
type = Stem;
},
{
horizontal = 1;
place = (-1,21);
target = up;
type = BottomGhost;
},
{
horizontal = 1;
place = (670,36);
type = Stem;
},
{
place = (44,37);
type = Stem;
},
{
place = (130,42);
type = Stem;
},
{
place = (348,39);
type = Stem;
},
{
place = (514,45);
type = Stem;
}
);
layerId = "3FC04E8D-38CC-44E9-A58D-856391625EC6";
shapes = (
{
closed = 1;
nodes = (
(514,349,l),
(512,288,o),
(501,226,o),
(479,172,c),
(270,421,l),
(332,464,o),
(387,512,o),
(387,583,cs),
(387,657,o),
(337,706,o),
(267,706,cs),
(186,706,o),
(130,657,o),
(130,588,cs),
(130,512,o),
(205,441,o),
(215,428,c),
(125,360,o),
(44,297,o),
(44,176,cs),
(44,65,o),
(134,-11,o),
(263,-11,cs),
(369,-11,o),
(440,39,o),
(485,107,c),
(575,-1,l),
(606,20,l),
(505,141,l),
(541,209,o),
(555,288,o),
(559,349,c)
);
},
{
closed = 1;
nodes = (
(155,24,o),
(81,86,o),
(81,172,cs),
(81,268,o),
(146,337,o),
(238,399,c),
(460,136,l),
(422,70,o),
(359,24,o),
(263,24,cs)
);
},
{
closed = 1;
nodes = (
(172,633,o),
(211,670,o),
(266,670,cs),
(313,670,o),
(347,635,o),
(348,584,cs),
(350,527,o),
(300,489,o),
(246,450,c),
(216,485,o),
(172,531,o),
(172,581,cs)
);
}
);
width = 614;
}
);
unicode = 38;
},
{
glyphname = quotesingle;
layers = (
{
hints = (
{
horizontal = 1;
place = (429,282);
type = Stem;
},
{
horizontal = 1;
place = (711,-20);
target = down;
type = TopGhost;
},
{
place = (53,172);
type = Stem;
}
);
layerId = "F516ED7C-7F23-41BA-A2F1-1EB4B95E9343";
shapes = (
{
closed = 1;
nodes = (
(80,429,l),
(198,429,l),
(225,711,l),
(53,711,l)
);
}
);
width = 278;
},
{
hints = (
{
horizontal = 1;
place = (479,229);
type = Stem;
},
{
horizontal = 1;
place = (708,-20);
target = down;
type = TopGhost;
},
{
place = (65,66);
type = Stem;
}
);
layerId = "8B72E089-1E16-4D07-A0B8-3936BD35683A";
shapes = (
{
closed = 1;
nodes = (
(65,479,l),
(131,479,l),
(131,708,l),
(65,708,l)
);
}
);
width = 196;
},
{
hints = (
{
horizontal = 1;
place = (496,211);
type = Stem;
},
{
horizontal = 1;
place = (707,-20);
target = down;
type = TopGhost;
},
{
place = (64,40);
type = Stem;
}
);
layerId = "3FC04E8D-38CC-44E9-A58D-856391625EC6";
shapes = (
{
closed = 1;
nodes = (
(69,496,l),
(100,496,l),
(109,707,l),
(60,707,l)
);
}
);
width = 169;
}
);
unicode = 39;
},
{
glyphname = parenleft;
layers = (
{
hints = (
{
horizontal = 1;
place = (703,-20);
target = down;
type = TopGhost;
},
{
place = (39,182);
type = Stem;
}
);
layerId = "F516ED7C-7F23-41BA-A2F1-1EB4B95E9343";
shapes = (
{
closed = 1;
nodes = (
(190,703,l),
(83,542,o),
(39,412,o),
(39,262,cs),
(39,111,o),
(83,-18,o),
(190,-180,c),
(376,-180,l),
(268,-16,o),
(221,114,o),
(221,262,cs),
(221,409,o),
(268,540,o),
(376,703,c)
);
}
);
width = 381;
},
{
hints = (
{
horizontal = 1;
place = (-200,21);
target = up;
type = BottomGhost;
},
{
horizontal = 1;
place = (700,-20);
target = down;
type = TopGhost;
},
{
place = (50,76);
type = Stem;
}
);
layerId = "8B72E089-1E16-4D07-A0B8-3936BD35683A";
shapes = (
{
closed = 1;
nodes = (
(195,700,l),
(94,542,o),
(50,405,o),
(50,250,cs),
(50,95,o),
(94,-42,o),
(195,-200,c),
(269,-200,l),
(170,-36,o),
(126,101,o),
(126,250,cs),
(126,399,o),
(170,536,o),
(269,700,c)
);
}
);
width = 289;
},
{
hints = (
{
horizontal = 1;
place = (-207,21);
target = up;
type = BottomGhost;
},
{
horizontal = 1;
place = (699,-20);
target = down;
type = TopGhost;
},
{
place = (54,41);
type = Stem;
}
);
layerId = "3FC04E8D-38CC-44E9-A58D-856391625EC6";
shapes = (
{
closed = 1;
nodes = (
(197,699,l),
(98,542,o),
(54,403,o),
(54,246,cs),
(54,90,o),
(98,-50,o),
(197,-207,c),
(234,-207,l),
(138,-43,o),
(95,97,o),
(95,246,cs),
(95,396,o),
(138,535,o),
(234,699,c)
);
}
);
width = 259;
}
);
unicode = 40;
},
{
glyphname = parenright;
layers = (
{
hints = (
{
horizontal = 1;
place = (703,-20);
target = down;
type = TopGhost;
},
{
place = (161,181);
type = Stem;
}
);
layerId = "F516ED7C-7F23-41BA-A2F1-1EB4B95E9343";
shapes = (
{
closed = 1;
nodes = (
(5,703,l),
(113,540,o),
(161,409,o),
(161,262,cs),
(161,114,o),
(113,-16,o),
(5,-180,c),
(191,-180,l),
(298,-18,o),
(342,111,o),
(342,262,cs),
(342,412,o),
(298,542,o),
(191,703,c)
);
}
);
width = 380;
},
{
hints = (
{
horizontal = 1;
place = (-200,21);
target = up;
type = BottomGhost;
},
{
horizontal = 1;
place = (700,-20);
target = down;
type = TopGhost;
},
{
place = (163,76);
type = Stem;
}
);
layerId = "8B72E089-1E16-4D07-A0B8-3936BD35683A";
shapes = (
{
closed = 1;
nodes = (
(20,700,l),
(119,536,o),
(163,399,o),
(163,250,cs),
(163,101,o),
(119,-36,o),
(20,-200,c),
(94,-200,l),
(195,-42,o),
(239,95,o),
(239,250,cs),
(239,405,o),
(195,542,o),
(94,700,c)
);
}
);
width = 289;
},
{
hints = (
{
horizontal = 1;
place = (-207,21);
target = up;
type = BottomGhost;
},
{
horizontal = 1;
place = (699,-20);
target = down;
type = TopGhost;
},
{
place = (164,41);
type = Stem;
}
);
layerId = "3FC04E8D-38CC-44E9-A58D-856391625EC6";
shapes = (
{
closed = 1;
nodes = (
(25,699,l),
(121,535,o),
(164,396,o),
(164,246,cs),
(164,97,o),
(121,-43,o),
(25,-207,c),
(62,-207,l),
(161,-50,o),
(205,90,o),
(205,246,cs),
(205,403,o),
(161,542,o),
(62,699,c)
);
}
);
width = 259;
}
);
unicode = 41;
},
{
glyphname = asterisk;
layers = (
{
hints = (
{
horizontal = 1;
place = (523,-20);
target = down;
type = TopGhost;
},
{
horizontal = 1;
place = (711,-20);
target = down;
type = TopGhost;
},
{
place = (37,427);
type = Stem;
}
);
layerId = "F516ED7C-7F23-41BA-A2F1-1EB4B95E9343";
shapes = (
{
closed = 1;
nodes = (
(192,614,l),
(114,691,l),
(37,558,l),
(157,523,l),
(37,486,l),
(114,354,l),
(192,432,l),
(162,334,l),
(340,334,l),
(308,432,l),
(387,354,l),
(463,486,l),
(343,523,l),
(464,558,l),
(387,691,l),
(308,614,l),
(340,711,l),
(162,711,l)
);
}
);
width = 500;
},
{
hints = (
{
horizontal = 1;
place = (708,-20);
target = down;
type = TopGhost;
},
{
place = (193,57);
type = Stem;
}
);
layerId = "8B72E089-1E16-4D07-A0B8-3936BD35683A";
shapes = (
{
closed = 1;
nodes = (
(198,582,l),
(93,653,l),
(60,596,l),
(174,541,l),
(60,485,l),
(93,428,l),
(198,499,l),
(189,373,l),
(255,373,l),
(246,499,l),
(351,428,l),
(384,485,l),
(270,541,l),
(384,596,l),
(351,653,l),
(246,582,l),
(255,708,l),
(189,708,l)
);
}
);
width = 444;
},
{
hints = (
{
horizontal = 1;
place = (707,-20);
target = down;
type = TopGhost;
},
{
place = (199,27);
type = Stem;
}
);
layerId = "3FC04E8D-38CC-44E9-A58D-856391625EC6";
shapes = (
{
closed = 1;
nodes = (
(200,572,l),
(86,641,l),
(68,609,l),
(180,547,l),
(68,485,l),
(86,453,l),
(200,521,l),
(198,386,l),
(227,386,l),
(226,521,l),
(339,453,l),
(358,485,l),
(246,547,l),
(358,609,l),
(339,641,l),
(226,572,l),
(227,707,l),
(198,707,l)
);
}
);
width = 426;
}
);
unicode = 42;
},
{
glyphname = plus;
layers = (
{
hints = (
{
horizontal = 1;
place = (282,130);
type = Stem;
},
{
place = (222,165);
type = Stem;
}
);
layerId = "F516ED7C-7F23-41BA-A2F1-1EB4B95E9343";
shapes = (
{
closed = 1;
nodes = (
(49,282,l),
(222,282,l),
(222,109,l),
(387,109,l),
(387,282,l),
(560,282,l),
(560,412,l),
(387,412,l),
(387,583,l),
(222,583,l),
(222,412,l),
(49,412,l)
);
}
);
width = 609;
},
{
hints = (
{
horizontal = 1;
place = (315,59);
type = Stem;
},
{
place = (252,59);
type = Stem;
}
);
layerId = "8B72E089-1E16-4D07-A0B8-3936BD35683A";
shapes = (
{
closed = 1;
nodes = (
(60,315,l),
(252,315,l),
(252,123,l),
(311,123,l),
(311,315,l),
(504,315,l),
(504,374,l),
(311,374,l),
(311,567,l),
(252,567,l),
(252,374,l),
(60,374,l)
);
}
);
width = 564;
},
{
hints = (
{
horizontal = 1;
place = (326,36);
type = Stem;
},
{
place = (256,36);
type = Stem;
}
);
layerId = "3FC04E8D-38CC-44E9-A58D-856391625EC6";
shapes = (
{
closed = 1;
nodes = (
(64,326,l),
(256,326,l),
(256,128,l),
(292,128,l),
(292,326,l),
(486,326,l),
(486,362,l),
(292,362,l),
(292,562,l),
(256,562,l),
(256,362,l),
(64,362,l)
);
}
);
width = 549;
}
);
unicode = 43;
},
{
glyphname = comma;
layers = (
{
hints = (
{
horizontal = 1;
place = (-163,88);
type = Stem;
},
{
horizontal = 1;
place = (0,152);
type = Stem;
},
{
place = (51,196);
type = Stem;
}
);
layerId = "F516ED7C-7F23-41BA-A2F1-1EB4B95E9343";
shapes = (
{
closed = 1;
nodes = (
(118,0,l),
(118,-46,o),
(92,-75,o),
(33,-75,c),
(33,-163,l),
(166,-163,o),
(247,-102,o),
(247,38,cs),
(247,152,l),
(51,152,l),
(51,0,l)
);
}
);
width = 300;
},
{
hints = (
{
horizontal = 1;
place = (-115,40);
type = Stem;
},
{
horizontal = 1;
place = (0,85);
type = Stem;
},
{
place = (103,91);
type = Stem;
}
);
layerId = "8B72E089-1E16-4D07-A0B8-3936BD35683A";
shapes = (
{
closed = 1;
nodes = (
(144,0,l),
(144,-49,o),
(126,-75,o),
(85,-75,c),
(85,-115,l),
(140,-115,o),
(194,-81,o),
(194,0,cs),
(194,85,l),
(103,85,l),
(103,0,l)
);
}
);
width = 300;
},
{
hints = (
{
horizontal = 1;
place = (-99,24);
type = Stem;
},
{
horizontal = 1;
place = (0,63);
type = Stem;
},
{
place = (153,24);
type = Stem;
}
);
layerId = "3FC04E8D-38CC-44E9-A58D-856391625EC6";
shapes = (
{
closed = 1;
nodes = (
(153,0,l),
(153,-50,o),
(138,-75,o),
(103,-75,c),
(103,-99,l),
(132,-99,o),
(177,-74,o),
(177,-13,cs),
(177,63,l),
(121,63,l),
(121,0,l)
);
}
);
width = 300;
}
);
unicode = 44;
},
{
glyphname = hyphen;
layers = (
{
hints = (
{
horizontal = 1;
place = (201,130);
type = Stem;
},
{
place = (49,383);
type = Stem;
}
);
layerId = "F516ED7C-7F23-41BA-A2F1-1EB4B95E9343";
shapes = (
{
closed = 1;
nodes = (
(49,201,l),
(432,201,l),
(432,331,l),
(49,331,l)
);
}
);
width = 482;
},
{
hints = (
{
horizontal = 1;
place = (225,59);
type = Stem;
},
{
place = (60,301);
type = Stem;
}
);
layerId = "8B72E089-1E16-4D07-A0B8-3936BD35683A";
shapes = (
{
closed = 1;
nodes = (
(60,225,l),
(361,225,l),
(361,284,l),
(60,284,l)
);
}
);
width = 421;
},
{
hints = (
{
horizontal = 1;
place = (233,36);
type = Stem;
},
{
place = (64,274);
type = Stem;
}
);
layerId = "3FC04E8D-38CC-44E9-A58D-856391625EC6";
shapes = (
{
closed = 1;
nodes = (
(64,233,l),
(338,233,l),
(338,269,l),
(64,269,l)
);
}
);
width = 401;
}
);
unicode = 45;
},
{
glyphname = period;
layers = (
{
hints = (
{
horizontal = 1;
place = (0,152);
type = Stem;
},
{
place = (52,194);
type = Stem;
}
);
layerId = "F516ED7C-7F23-41BA-A2F1-1EB4B95E9343";
shapes = (
{
closed = 1;
nodes = (
(246,0,l),
(246,152,l),
(52,152,l),
(52,0,l)
);
}
);
width = 300;
},
{
hints = (
{
horizontal = 1;
place = (0,85);
type = Stem;
},
{
place = (104,91);
type = Stem;
}
);
layerId = "8B72E089-1E16-4D07-A0B8-3936BD35683A";
shapes = (
{
closed = 1;
nodes = (
(195,0,l),
(195,85,l),
(104,85,l),
(104,0,l)
);
}
);
width = 300;
},
{
hints = (
{
horizontal = 1;
place = (0,63);
type = Stem;
},
{
place = (122,57);
type = Stem;
}
);
layerId = "3FC04E8D-38CC-44E9-A58D-856391625EC6";
shapes = (
{
closed = 1;
nodes = (
(179,0,l),
(179,63,l),
(122,63,l),
(122,0,l)
);
}
);
width = 300;
}
);
unicode = 46;
},
{
glyphname = slash;
layers = (
{
hints = (
{
horizontal = 1;
place = (703,-20);
target = down;
type = TopGhost;
},
{
place = (0,444);
type = Stem;
}
);
layerId = "F516ED7C-7F23-41BA-A2F1-1EB4B95E9343";
shapes = (
{
closed = 1;
nodes = (
(0,-180,l),
(185,-180,l),
(444,703,l),
(260,703,l)
);
}
);
width = 445;
},
{
hints = (
{
horizontal = 1;
place = (-200,21);
target = up;
type = BottomGhost;
},
{
horizontal = 1;
place = (700,-20);
target = down;
type = TopGhost;
},
{
place = (20,341);
type = Stem;
}
);
layerId = "8B72E089-1E16-4D07-A0B8-3936BD35683A";
shapes = (
{
closed = 1;
nodes = (
(20,-200,l),
(97,-200,l),
(361,700,l),
(284,700,l)
);
}
);
width = 381;
},
{
hints = (
{
horizontal = 1;
place = (-207,21);
target = up;
type = BottomGhost;
},
{
horizontal = 1;
place = (699,-20);
target = down;
type = TopGhost;
},
{
place = (27,307);
type = Stem;
}
);
layerId = "3FC04E8D-38CC-44E9-A58D-856391625EC6";
shapes = (
{
closed = 1;
nodes = (
(27,-207,l),
(68,-207,l),
(334,699,l),
(292,699,l)
);
}
);
width = 360;
}
);
unicode = 47;
},
{
glyphname = zero;
layers = (
{
hints = (
{
horizontal = 1;
place = (-8,147);
type = Stem;
},
{
horizontal = 1;
place = (564,147);
type = Stem;
},
{
place = (20,180);
type = Stem;
},
{
place = (410,181);
type = Stem;
}
);
layerId = "F516ED7C-7F23-41BA-A2F1-1EB4B95E9343";
shapes = (
{
closed = 1;
nodes = (
(486,-8,o),
(591,139,o),
(591,351,cs),
(591,565,o),
(486,711,o),
(306,711,cs),
(125,711,o),
(20,565,o),
(20,351,cs),
(20,139,o),
(125,-8,o),
(306,-8,cs)
);
},
{
closed = 1;
nodes = (
(242,139,o),
(200,204,o),
(200,350,cs),
(200,498,o),
(244,564,o),
(306,564,cs),
(367,564,o),
(410,498,o),
(410,350,cs),
(410,204,o),
(369,139,o),
(306,139,cs)
);
}
);
width = 600;
},
{
hints = (
{
horizontal = 1;
place = (-8,67);
type = Stem;
},
{
horizontal = 1;
place = (641,67);
type = Stem;
},
{
place = (44,76);
type = Stem;
},
{
place = (480,76);
type = Stem;
}
);
layerId = "8B72E089-1E16-4D07-A0B8-3936BD35683A";
shapes = (
{
closed = 1;
nodes = (
(457,-8,o),
(556,130,o),
(556,350,cs),
(556,570,o),
(457,708,o),
(300,708,cs),
(143,708,o),
(44,570,o),
(44,350,cs),
(44,130,o),
(143,-8,o),
(300,-8,cs)
);
},
{
closed = 1;
nodes = (
(189,59,o),
(120,171,o),
(120,349,cs),
(120,527,o),
(189,641,o),
(300,641,cs),
(411,641,o),
(480,527,o),
(480,349,cs),
(480,171,o),
(411,59,o),
(300,59,cs)
);
}
);
width = 600;
},
{
hints = (
{
horizontal = 1;
place = (-8,35);
type = Stem;
},
{
horizontal = 1;
place = (672,35);
type = Stem;
},
{
place = (52,42);
type = Stem;
},
{
place = (503,42);
type = Stem;
}
);
layerId = "3FC04E8D-38CC-44E9-A58D-856391625EC6";
shapes = (
{
closed = 1;
nodes = (
(448,-8,o),
(545,127,o),
(545,350,cs),
(545,572,o),
(448,707,o),
(298,707,cs),
(149,707,o),
(52,572,o),
(52,350,cs),
(52,127,o),
(149,-8,o),
(298,-8,cs)
);
},
{
closed = 1;
nodes = (
(172,27,o),
(94,157,o),
(94,349,cs),
(94,540,o),
(171,672,o),
(298,672,cs),
(426,672,o),
(503,540,o),
(503,349,cs),
(503,157,o),
(425,27,o),
(298,27,cs)
);
}
);
width = 600;
}
);
unicode = 48;
},
{
glyphname = one;
layers = (
{
hints = (
{
horizontal = 1;
place = (0,21);
target = up;
type = BottomGhost;
},
{
horizontal = 1;
place = (703,-20);
target = down;
type = TopGhost;
},
{
place = (211,178);
type = Stem;
}
);
layerId = "F516ED7C-7F23-41BA-A2F1-1EB4B95E9343";
shapes = (
{
closed = 1;
nodes = (
(389,703,l),
(211,703,l),
(50,565,l),
(50,387,l),
(211,523,l),
(211,20,l),
(389,20,l)
);
},
{
closed = 1;
nodes = (
(50,0,l),
(550,0,l),
(550,147,l),
(50,147,l)
);
}
);
width = 600;
},
{
hints = (
{
horizontal = 1;
place = (0,21);
target = up;
type = BottomGhost;
},
{
horizontal = 1;
place = (622,78);
type = Stem;
},
{
horizontal = 1;
place = (700,-20);
target = down;
type = TopGhost;
},
{
place = (269,74);
type = Stem;
}
);
layerId = "8B72E089-1E16-4D07-A0B8-3936BD35683A";
shapes = (
{
closed = 1;
nodes = (
(343,700,l),
(269,700,l),
(90,573,l),
(90,495,l),
(269,622,l),
(269,20,l),
(343,20,l)
);
},
{
closed = 1;
nodes = (
(101,0,l),
(511,0,l),
(511,64,l),
(101,64,l)
);
}
);
width = 600;
},
{
hints = (
{
horizontal = 1;
place = (0,21);
target = up;
type = BottomGhost;
},
{
horizontal = 1;
place = (655,44);
type = Stem;
},
{
horizontal = 1;
place = (699,-20);
target = down;
type = TopGhost;
},
{
place = (280,40);
type = Stem;
}
);
layerId = "3FC04E8D-38CC-44E9-A58D-856391625EC6";
shapes = (
{
closed = 1;
nodes = (
(320,699,l),
(280,699,l),
(95,576,l),
(95,531,l),
(280,655,l),
(280,10,l),
(320,10,l)
);
},
{
closed = 1;
nodes = (
(95,0,l),
(506,0,l),
(506,37,l),
(95,37,l)
);
}
);
width = 600;
}
);
unicode = 49;
},
{
glyphname = two;
layers = (
{
hints = (
{
horizontal = 1;
place = (0,136);
type = Stem;
},
{
horizontal = 1;
place = (562,149);
type = Stem;
},
{
place = (390,182);
type = Stem;
}
);
layerId = "F516ED7C-7F23-41BA-A2F1-1EB4B95E9343";
shapes = (
{
closed = 1;
nodes = (
(56,0,l),
(582,0,l),
(582,136,l),
(304,136,l),
(428,256,l),
(487,317,o),
(572,391,o),
(572,501,cs),
(572,623,o),
(469,711,o),
(325,711,cs),
(183,711,o),
(75,618,o),
(42,505,c),
(195,449,l),
(222,521,o),
(258,562,o),
(316,562,cs),
(362,562,o),
(390,537,o),
(390,488,cs),
(390,431,o),
(353,395,o),
(301,344,cs),
(56,107,l)
);
}
);
width = 600;
},
{
hints = (
{
horizontal = 1;
place = (0,66);
type = Stem;
},
{
horizontal = 1;
place = (639,69);
type = Stem;
},
{
place = (458,76);
type = Stem;
}
);
layerId = "8B72E089-1E16-4D07-A0B8-3936BD35683A";
shapes = (
{
closed = 1;
nodes = (
(85,0,l),
(545,0,l),
(545,66,l),
(181,66,l),
(391,274,ls),
(452,335,o),
(534,406,o),
(534,516,cs),
(534,629,o),
(446,708,o),
(322,708,cs),
(203,708,o),
(110,641,o),
(78,535,c),
(149,510,l),
(171,589,o),
(237,639,o),
(320,639,cs),
(401,639,o),
(458,589,o),
(458,518,cs),
(458,437,o),
(397,376,o),
(339,318,cs),
(85,68,l)
);
}
);
width = 600;
},
{
hints = (
{
horizontal = 1;
place = (0,38);
type = Stem;
},
{
horizontal = 1;
place = (669,38);
type = Stem;
},
{
place = (481,41);
type = Stem;
}
);
layerId = "3FC04E8D-38CC-44E9-A58D-856391625EC6";
shapes = (
{
closed = 1;
nodes = (
(95,0,l),
(533,0,l),
(533,38,l),
(149,38,l),
(379,280,ls),
(439,344,o),
(522,412,o),
(522,521,cs),
(522,632,o),
(439,707,o),
(321,707,cs),
(213,707,o),
(127,649,o),
(90,545,c),
(134,530,l),
(157,615,o),
(232,669,o),
(319,669,cs),
(412,669,o),
(481,608,o),
(481,529,cs),
(481,433,o),
(410,374,o),
(352,312,cs),
(95,39,l)
);
}
);
width = 600;
}
);
unicode = 50;
},
{
glyphname = three;
layers = (
{
hints = (
{
horizontal = 1;
place = (-8,143);
type = Stem;
},
{
horizontal = 1;
place = (298,120);
type = Stem;
},
{
horizontal = 1;
place = (531,-20);
target = down;
type = TopGhost;
},
{
horizontal = 1;
place = (566,145);
type = Stem;
},
{
place = (384,181);
type = Stem;
},
{
place = (404,181);
type = Stem;
}
);
layerId = "F516ED7C-7F23-41BA-A2F1-1EB4B95E9343";
shapes = (
{
closed = 1;
nodes = (
(221,418,l),
(221,298,l),
(280,298,ls),
(367,298,o),
(404,266,o),
(404,214,cs),
(404,173,o),
(380,135,o),
(313,135,cs),
(251,135,o),
(209,168,o),
(180,250,c),
(31,198,l),
(52,82,o),
(166,-8,o),
(323,-8,cs),
(479,-8,o),
(585,82,o),
(585,199,cs),
(585,266,o),
(550,337,o),
(467,365,c),
(531,392,o),
(565,451,o),
(565,515,cs),
(565,624,o),
(465,711,o),
(314,711,cs),
(173,711,o),
(67,635,o),
(47,531,c),
(209,488,l),
(220,536,o),
(259,566,o),
(308,566,cs),
(356,566,o),
(384,538,o),
(384,493,cs),
(384,443,o),
(350,418,o),
(284,418,cs)
);
}
);
width = 600;
},
{
hints = (
{
horizontal = 1;
place = (-10,69);
type = Stem;
},
{
horizontal = 1;
place = (324,69);
type = Stem;
},
{
horizontal = 1;
place = (639,69);
type = Stem;
},
{
place = (451,76);
type = Stem;
},
{
place = (472,76);
type = Stem;
}
);
layerId = "8B72E089-1E16-4D07-A0B8-3936BD35683A";
shapes = (
{
closed = 1;
nodes = (
(227,393,l),
(227,324,l),
(334,324,ls),
(415,324,o),
(472,270,o),
(472,193,cs),
(472,113,o),
(406,59,o),
(318,59,cs),
(221,59,o),
(148,115,o),
(124,202,c),
(53,177,l),
(87,63,o),
(187,-10,o),
(320,-10,cs),
(456,-10,o),
(548,73,o),
(548,192,cs),
(548,272,o),
(503,333,o),
(432,361,c),
(491,391,o),
(527,446,o),
(527,516,cs),
(527,629,o),
(442,708,o),
(314,708,cs),
(190,708,o),
(101,641,o),
(69,535,c),
(140,510,l),
(162,589,o),
(224,639,o),
(312,639,cs),
(397,639,o),
(451,588,o),
(451,515,cs),
(451,443,o),
(398,393,o),
(323,393,cs)
);
}
);
width = 600;
},
{
hints = (
{
horizontal = 1;
place = (-11,39);
type = Stem;
},
{
horizontal = 1;
place = (339,39);
type = Stem;
},
{
horizontal = 1;
place = (669,38);
type = Stem;
},
{
place = (473,42);
type = Stem;
},
{
place = (495,41);
type = Stem;
}
);
layerId = "3FC04E8D-38CC-44E9-A58D-856391625EC6";
shapes = (
{
closed = 1;
nodes = (
(229,378,l),
(229,339,l),
(349,339,ls),
(427,339,o),
(495,274,o),
(495,185,cs),
(495,89,o),
(420,28,o),
(319,28,cs),
(213,28,o),
(131,92,o),
(109,180,c),
(64,164,l),
(102,54,o),
(196,-11,o),
(320,-11,cs),
(449,-11,o),
(536,69,o),
(536,188,cs),
(536,272,o),
(488,331,o),
(421,360,c),
(478,394,o),
(515,449,o),
(515,520,cs),
(515,632,o),
(435,707,o),
(314,707,cs),
(196,707,o),
(113,645,o),
(77,541,c),
(118,522,l),
(141,612,o),
(209,669,o),
(311,669,cs),
(410,669,o),
(473,608,o),
(473,521,cs),
(473,438,o),
(410,378,o),
(333,378,cs)
);
}
);
width = 600;
}
);
unicode = 51;
},
{
glyphname = four;
layers = (
{
hints = (
{
horizontal = 1;
place = (0,21);
target = up;
type = BottomGhost;
},
{
horizontal = 1;
place = (149,136);
type = Stem;
},
{
horizontal = 1;
place = (703,-20);
target = down;
type = TopGhost;
},
{
place = (330,180);
type = Stem;
}
);
layerId = "F516ED7C-7F23-41BA-A2F1-1EB4B95E9343";
shapes = (
{
closed = 1;
nodes = (
(330,469,l),
(330,285,l),
(193,285,l)
);
},
{
closed = 1;
nodes = (
(330,149,l),
(330,0,l),
(510,0,l),
(510,149,l),
(593,149,l),
(593,285,l),
(510,285,l),
(510,703,l),
(345,703,l),
(18,254,l),
(18,149,l)
);
}
);
width = 600;
},
{
hints = (
{
horizontal = 1;
place = (0,21);
target = up;
type = BottomGhost;
},
{
horizontal = 1;
place = (167,66);
type = Stem;
},
{
horizontal = 1;
place = (599,101);
type = Stem;
},
{
horizontal = 1;
place = (700,-20);
target = down;
type = TopGhost;
},
{
place = (390,74);
type = Stem;
}
);
layerId = "8B72E089-1E16-4D07-A0B8-3936BD35683A";
shapes = (
{
closed = 1;
nodes = (
(390,599,l),
(390,233,l),
(123,233,l)
);
},
{
closed = 1;
nodes = (
(390,167,l),
(390,0,l),
(464,0,l),
(464,167,l),
(558,167,l),
(558,233,l),
(464,233,l),
(464,700,l),
(383,700,l),
(42,233,l),
(42,167,l)
);
}
);
width = 600;
},
{
hints = (
{
horizontal = 1;
place = (0,21);
target = up;
type = BottomGhost;
},
{
horizontal = 1;
place = (176,40);
type = Stem;
},
{
horizontal = 1;
place = (646,53);
type = Stem;
},
{
horizontal = 1;
place = (699,-20);
target = down;
type = TopGhost;
},
{
place = (410,39);
type = Stem;
}
);
layerId = "3FC04E8D-38CC-44E9-A58D-856391625EC6";
shapes = (
{
closed = 1;
nodes = (
(410,646,l),
(410,216,l),
(97,216,l)
);
},
{
closed = 1;
nodes = (
(410,176,l),
(410,0,l),
(449,0,l),
(449,176,l),
(547,176,l),
(547,216,l),
(449,216,l),
(449,699,l),
(404,699,l),
(50,215,l),
(50,176,l)
);
}
);
width = 600;
}
);
unicode = 52;
},
{
glyphname = five;
layers = (
{
hints = (
{
horizontal = 1;
place = (-8,145);
type = Stem;
},
{
horizontal = 1;
place = (360,135);
type = Stem;
},
{
horizontal = 1;
place = (569,134);
type = Stem;
},
{
place = (401,181);
type = Stem;
}
);
layerId = "F516ED7C-7F23-41BA-A2F1-1EB4B95E9343";
shapes = (
{
closed = 1;
nodes = (
(300,495,o),
(269,481,o),
(234,457,c),
(254,569,l),
(548,569,l),
(548,703,l),
(113,703,l),
(49,327,l),
(180,299,l),
(213,338,o),
(241,360,o),
(301,360,cs),
(362,360,o),
(401,322,o),
(401,250,cs),
(401,178,o),
(366,137,o),
(303,137,cs),
(241,137,o),
(199,178,o),
(176,238,c),
(22,203,l),
(44,84,o),
(159,-8,o),
(309,-8,cs),
(460,-8,o),
(582,85,o),
(582,247,cs),
(582,404,o),
(475,495,o),
(350,495,cs)
);
}
);
width = 600;
},
{
hints = (
{
horizontal = 1;
place = (-10,67);
type = Stem;
},
{
horizontal = 1;
place = (402,66);
type = Stem;
},
{
horizontal = 1;
place = (634,66);
type = Stem;
},
{
place = (469,76);
type = Stem;
}
);
layerId = "8B72E089-1E16-4D07-A0B8-3936BD35683A";
shapes = (
{
closed = 1;
nodes = (
(250,468,o),
(205,448,o),
(170,422,c),
(205,634,l),
(507,634,l),
(507,700,l),
(142,700,l),
(81,345,l),
(147,321,l),
(190,371,o),
(239,402,o),
(313,402,cs),
(417,402,o),
(469,318,o),
(469,232,cs),
(469,145,o),
(415,57,o),
(309,57,cs),
(222,57,o),
(147,115,o),
(123,202,c),
(52,177,l),
(86,63,o),
(186,-10,o),
(309,-10,cs),
(465,-10,o),
(545,114,o),
(545,235,cs),
(545,352,o),
(470,468,o),
(313,468,cs)
);
}
);
width = 600;
},
{
hints = (
{
horizontal = 1;
place = (-11,39);
type = Stem;
},
{
horizontal = 1;
place = (420,39);
type = Stem;
},
{
horizontal = 1;
place = (656,43);
type = Stem;
},
{
place = (492,41);
type = Stem;
}
);
layerId = "3FC04E8D-38CC-44E9-A58D-856391625EC6";
shapes = (
{
closed = 1;
nodes = (
(233,459,o),
(180,428,o),
(142,392,c),
(186,656,l),
(494,656,l),
(494,699,l),
(152,699,l),
(92,351,l),
(132,336,l),
(175,388,o),
(231,420,o),
(317,420,cs),
(433,420,o),
(492,319,o),
(492,228,cs),
(492,135,o),
(432,28,o),
(311,28,cs),
(218,28,o),
(132,90,o),
(108,185,c),
(62,169,l),
(100,56,o),
(195,-11,o),
(309,-11,cs),
(467,-11,o),
(533,124,o),
(533,231,cs),
(533,335,o),
(473,459,o),
(315,459,cs)
);
}
);
width = 600;
}
);
unicode = 53;
},
{
glyphname = six;
layers = (
{
hints = (
{
horizontal = 1;
place = (-8,137);
type = Stem;
},
{
horizontal = 1;
place = (343,135);
type = Stem;
},
{
horizontal = 1;
place = (574,137);
type = Stem;
},
{
place = (28,194);
type = Stem;
},
{
place = (403,181);
type = Stem;
}
);
layerId = "F516ED7C-7F23-41BA-A2F1-1EB4B95E9343";
shapes = (
{
closed = 1;
nodes = (
(574,561,l),
(543,655,o),
(449,711,o),
(331,711,cs),
(139,711,o),
(28,564,o),
(28,344,cs),
(28,121,o),
(143,-8,o),
(315,-8,cs),
(473,-8,o),
(584,101,o),
(584,240,cs),
(584,383,o),
(465,478,o),
(348,478,cs),
(291,478,o),
(246,455,o),
(219,419,c),
(221,522,o),
(254,574,o),
(315,574,cs),
(357,574,o),
(389,549,o),
(406,508,c)
);
},
{
closed = 1;
nodes = (
(222,305,o),
(269,343,o),
(321,343,cs),
(374,343,o),
(403,302,o),
(403,242,cs),
(403,176,o),
(368,129,o),
(316,129,cs),
(262,129,o),
(222,180,o),
(222,240,cs)
);
}
);
width = 600;
},
{
hints = (
{
horizontal = 1;
place = (-8,67);
type = Stem;
},
{
horizontal = 1;
place = (382,66);
type = Stem;
},
{
horizontal = 1;
place = (641,67);
type = Stem;
},
{
place = (54,77);
type = Stem;
},
{
place = (471,76);
type = Stem;
}
);
layerId = "8B72E089-1E16-4D07-A0B8-3936BD35683A";
shapes = (
{
closed = 1;
nodes = (
(534,555,l),
(492,658,o),
(414,708,o),
(311,708,cs),
(153,708,o),
(54,558,o),
(54,318,cs),
(54,118,o),
(153,-8,o),
(311,-8,cs),
(450,-8,o),
(547,90,o),
(547,229,cs),
(547,358,o),
(451,448,o),
(315,448,cs),
(234,448,o),
(172,413,o),
(131,361,c),
(133,533,o),
(202,641,o),
(311,641,cs),
(379,641,o),
(432,606,o),
(462,532,c)
);
},
{
closed = 1;
nodes = (
(143,322,o),
(214,382,o),
(315,382,cs),
(407,382,o),
(471,318,o),
(471,227,cs),
(471,128,o),
(405,59,o),
(311,59,cs),
(212,59,o),
(143,132,o),
(143,229,cs)
);
}
);
width = 600;
},
{
hints = (
{
horizontal = 1;
place = (-8,39);
type = Stem;
},
{
horizontal = 1;
place = (399,39);
type = Stem;
},
{
horizontal = 1;
place = (668,39);
type = Stem;
},
{
place = (63,43);
type = Stem;
},
{
place = (494,41);
type = Stem;
}
);
layerId = "3FC04E8D-38CC-44E9-A58D-856391625EC6";
shapes = (
{
closed = 1;
nodes = (
(519,558,l),
(474,661,o),
(402,707,o),
(310,707,cs),
(162,707,o),
(63,552,o),
(63,317,cs),
(63,117,o),
(157,-8,o),
(310,-8,cs),
(443,-8,o),
(535,88,o),
(535,225,cs),
(535,351,o),
(448,438,o),
(314,438,cs),
(214,438,o),
(142,390,o),
(106,320,c),
(108,530,o),
(188,668,o),
(311,668,cs),
(387,668,o),
(445,630,o),
(479,545,c)
);
},
{
closed = 1;
nodes = (
(118,332,o),
(199,399,o),
(314,399,cs),
(420,399,o),
(494,326,o),
(494,221,cs),
(494,110,o),
(418,31,o),
(310,31,cs),
(197,31,o),
(118,115,o),
(118,224,cs)
);
}
);
width = 600;
}
);
unicode = 54;
},
{
glyphname = seven;
layers = (
{
hints = (
{
horizontal = 1;
place = (0,21);
target = up;
type = BottomGhost;
},
{
horizontal = 1;
place = (569,134);
type = Stem;
},
{
horizontal = 1;
place = (596,107);
type = Stem;
},
{
place = (43,525);
type = Stem;
},
{
place = (152,182);
type = Stem;
}
);
layerId = "F516ED7C-7F23-41BA-A2F1-1EB4B95E9343";
shapes = (
{
closed = 1;
nodes = (
(377,569,l),
(176,373,o),
(140,146,o),
(152,0,c),
(334,0,l),
(319,180,o),
(372,402,o),
(568,596,c),
(568,703,l),
(43,703,l),
(43,569,l)
);
}
);
width = 600;
},
{
hints = (
{
horizontal = 1;
place = (0,21);
target = up;
type = BottomGhost;
},
{
horizontal = 1;
place = (634,66);
type = Stem;
},
{
place = (190,77);
type = Stem;
}
);
layerId = "8B72E089-1E16-4D07-A0B8-3936BD35683A";
shapes = (
{
closed = 1;
nodes = (
(449,634,l),
(245,423,o),
(184,191,o),
(190,0,c),
(267,0,l),
(261,191,o),
(326,423,o),
(530,634,c),
(530,700,l),
(70,700,l),
(70,634,l)
);
}
);
width = 600;
},
{
hints = (
{
horizontal = 1;
place = (0,21);
target = up;
type = BottomGhost;
},
{
horizontal = 1;
place = (661,38);
type = Stem;
},
{
place = (203,42);
type = Stem;
}
);
layerId = "3FC04E8D-38CC-44E9-A58D-856391625EC6";
shapes = (
{
closed = 1;
nodes = (
(470,661,l),
(269,450,o),
(199,207,o),
(203,0,c),
(245,0,l),
(242,200,o),
(311,441,o),
(518,663,c),
(518,699,l),
(79,699,l),
(79,661,l)
);
}
);
width = 600;
}
);
unicode = 55;
},
{
glyphname = eight;
layers = (
{
hints = (
{
horizontal = 1;
place = (-8,137);
type = Stem;
},
{
horizontal = 1;
place = (294,134);
type = Stem;
},
{
horizontal = 1;
place = (572,139);
type = Stem;
},
{
place = (29,181);
type = Stem;
},
{
place = (57,173);
type = Stem;
},
{
place = (381,173);
type = Stem;
},
{
place = (401,181);
type = Stem;
}
);
layerId = "F516ED7C-7F23-41BA-A2F1-1EB4B95E9343";
shapes = (
{
closed = 1;
nodes = (
(261,428,o),
(230,458,o),
(230,500,cs),
(230,543,o),
(261,572,o),
(306,572,cs),
(350,572,o),
(381,543,o),
(381,500,cs),
(381,458,o),
(350,428,o),
(306,428,cs)
);
},
{
closed = 1;
nodes = (
(29,82,o),
(144,-8,o),
(306,-8,cs),
(468,-8,o),
(582,82,o),
(582,196,cs),
(582,269,o),
(535,335,o),
(470,370,c),
(517,400,o),
(554,455,o),
(554,519,cs),
(554,624,o),
(452,711,o),
(306,711,cs),
(160,711,o),
(57,624,o),
(57,520,cs),
(57,457,o),
(94,402,o),
(141,370,c),
(76,335,o),
(29,269,o),
(29,196,cs)
);
},
{
closed = 1;
nodes = (
(210,260,o),
(250,294,o),
(306,294,cs),
(361,294,o),
(401,260,o),
(401,213,cs),
(401,163,o),
(361,129,o),
(306,129,cs),
(250,129,o),
(210,163,o),
(210,213,cs)
);
}
);
width = 600;
},
{
hints = (
{
horizontal = 1;
place = (-10,69);
type = Stem;
},
{
horizontal = 1;
place = (329,64);
type = Stem;
},
{
horizontal = 1;
place = (639,69);
type = Stem;
},
{
place = (55,76);
type = Stem;
},
{
place = (86,76);
type = Stem;
},
{
place = (438,76);
type = Stem;
},
{
place = (469,76);
type = Stem;
}
);
layerId = "8B72E089-1E16-4D07-A0B8-3936BD35683A";
shapes = (
{
closed = 1;
nodes = (
(219,393,o),
(162,443,o),
(162,515,cs),
(162,588,o),
(219,639,o),
(300,639,cs),
(381,639,o),
(438,588,o),
(438,515,cs),
(438,443,o),
(381,393,o),
(300,393,cs)
);
},
{
closed = 1;
nodes = (
(55,73,o),
(156,-10,o),
(300,-10,cs),
(444,-10,o),
(545,73,o),
(545,192,cs),
(545,266,o),
(497,338,o),
(423,366,c),
(479,396,o),
(514,457,o),
(514,516,cs),
(514,629,o),
(426,708,o),
(300,708,cs),
(174,708,o),
(86,629,o),
(86,516,cs),
(86,457,o),
(121,396,o),
(177,366,c),
(103,338,o),
(55,266,o),
(55,192,cs)
);
},
{
closed = 1;
nodes = (
(131,274,o),
(201,329,o),
(300,329,cs),
(399,329,o),
(469,274,o),
(469,195,cs),
(469,115,o),
(399,59,o),
(300,59,cs),
(201,59,o),
(131,115,o),
(131,195,cs)
);
}
);
width = 600;
},
{
hints = (
{
horizontal = 1;
place = (-11,39);
type = Stem;
},
{
horizontal = 1;
place = (344,35);
type = Stem;
},
{
horizontal = 1;
place = (668,39);
type = Stem;
},
{
place = (64,41);
type = Stem;
},
{
place = (96,41);
type = Stem;
},
{
place = (460,41);
type = Stem;
},
{
place = (492,41);
type = Stem;
}
);
layerId = "3FC04E8D-38CC-44E9-A58D-856391625EC6";
shapes = (
{
closed = 1;
nodes = (
(204,379,o),
(137,438,o),
(137,522,cs),
(137,607,o),
(204,668,o),
(298,668,cs),
(393,668,o),
(460,607,o),
(460,522,cs),
(460,438,o),
(393,379,o),
(298,379,cs)
);
},
{
closed = 1;
nodes = (
(64,70,o),
(160,-11,o),
(298,-11,cs),
(436,-11,o),
(533,70,o),
(533,186,cs),
(533,265,o),
(481,339,o),
(398,365,c),
(463,395,o),
(501,458,o),
(501,521,cs),
(501,631,o),
(418,707,o),
(298,707,cs),
(179,707,o),
(96,631,o),
(96,521,cs),
(96,457,o),
(134,394,o),
(199,365,c),
(116,339,o),
(64,265,o),
(64,186,cs)
);
},
{
closed = 1;
nodes = (
(105,279,o),
(185,344,o),
(298,344,cs),
(412,344,o),
(492,279,o),
(492,187,cs),
(492,94,o),
(412,28,o),
(298,28,cs),
(185,28,o),
(105,94,o),
(105,187,cs)
);
}
);
width = 600;
}
);
unicode = 56;
},
{
glyphname = nine;
layers = (
{
hints = (
{
horizontal = 1;
place = (-8,137);
type = Stem;
},
{
horizontal = 1;
place = (225,135);
type = Stem;
},
{
horizontal = 1;
place = (574,137);
type = Stem;
},
{
place = (28,181);
type = Stem;
},
{
place = (390,194);
type = Stem;
}
);
layerId = "F516ED7C-7F23-41BA-A2F1-1EB4B95E9343";
shapes = (
{
closed = 1;
nodes = (
(38,142,l),
(69,48,o),
(163,-8,o),
(281,-8,cs),
(473,-8,o),
(584,139,o),
(584,359,cs),
(584,582,o),
(469,711,o),
(297,711,cs),
(139,711,o),
(28,602,o),
(28,463,cs),
(28,320,o),
(147,225,o),
(264,225,cs),
(321,225,o),
(366,248,o),
(393,284,c),
(391,181,o),
(358,129,o),
(297,129,cs),
(255,129,o),
(223,154,o),
(206,195,c)
);
},
{
closed = 1;
nodes = (
(390,398,o),
(343,360,o),
(291,360,cs),
(238,360,o),
(209,401,o),
(209,461,cs),
(209,527,o),
(244,574,o),
(296,574,cs),
(350,574,o),
(390,523,o),
(390,463,cs)
);
}
);
width = 600;
},
{
hints = (
{
horizontal = 1;
place = (-8,67);
type = Stem;
},
{
horizontal = 1;
place = (252,66);
type = Stem;
},
{
horizontal = 1;
place = (641,67);
type = Stem;
},
{
place = (54,76);
type = Stem;
},
{
place = (470,77);
type = Stem;
}
);
layerId = "8B72E089-1E16-4D07-A0B8-3936BD35683A";
shapes = (
{
closed = 1;
nodes = (
(67,145,l),
(109,42,o),
(187,-8,o),
(290,-8,cs),
(448,-8,o),
(547,142,o),
(547,382,cs),
(547,582,o),
(448,708,o),
(290,708,cs),
(151,708,o),
(54,610,o),
(54,471,cs),
(54,342,o),
(150,252,o),
(286,252,cs),
(367,252,o),
(429,287,o),
(470,339,c),
(468,167,o),
(399,59,o),
(290,59,cs),
(222,59,o),
(169,94,o),
(139,168,c)
);
},
{
closed = 1;
nodes = (
(458,378,o),
(387,318,o),
(286,318,cs),
(194,318,o),
(130,382,o),
(130,473,cs),
(130,572,o),
(196,641,o),
(290,641,cs),
(389,641,o),
(458,568,o),
(458,471,cs)
);
}
);
width = 600;
},
{
hints = (
{
horizontal = 1;
place = (-8,39);
type = Stem;
},
{
horizontal = 1;
place = (261,39);
type = Stem;
},
{
horizontal = 1;
place = (668,39);
type = Stem;
},
{
place = (63,41);
type = Stem;
},
{
place = (492,43);
type = Stem;
}
);
layerId = "3FC04E8D-38CC-44E9-A58D-856391625EC6";
shapes = (
{
closed = 1;
nodes = (
(79,141,l),
(124,38,o),
(196,-8,o),
(288,-8,cs),
(436,-8,o),
(535,147,o),
(535,382,cs),
(535,582,o),
(441,707,o),
(288,707,cs),
(155,707,o),
(63,611,o),
(63,474,cs),
(63,348,o),
(150,261,o),
(284,261,cs),
(384,261,o),
(456,309,o),
(492,379,c),
(490,169,o),
(410,31,o),
(287,31,cs),
(211,31,o),
(153,69,o),
(119,154,c)
);
},
{
closed = 1;
nodes = (
(480,367,o),
(399,300,o),
(284,300,cs),
(178,300,o),
(104,373,o),
(104,478,cs),
(104,589,o),
(180,668,o),
(288,668,cs),
(401,668,o),
(480,584,o),
(480,475,cs)
);
}
);
width = 600;
}
);
unicode = 57;
},
{
glyphname = colon;
layers = (
{
hints = (
{
horizontal = 1;
place = (0,152);
type = Stem;
},
{
horizontal = 1;
place = (317,151);
type = Stem;
},
{
place = (52,194);
type = Stem;
}
);
layerId = "F516ED7C-7F23-41BA-A2F1-1EB4B95E9343";
shapes = (
{
closed = 1;
nodes = (
(246,0,l),
(246,152,l),
(52,152,l),
(52,0,l)
);
},
{
closed = 1;
nodes = (
(246,317,l),
(246,468,l),
(52,468,l),
(52,317,l)
);
}
);
width = 300;
},
{
hints = (
{
horizontal = 1;
place = (0,85);
type = Stem;
},
{
horizontal = 1;
place = (353,85);
type = Stem;
},
{
place = (104,91);
type = Stem;
}
);
layerId = "8B72E089-1E16-4D07-A0B8-3936BD35683A";
shapes = (
{
closed = 1;
nodes = (
(195,0,l),
(195,85,l),
(104,85,l),
(104,0,l)
);
},
{
closed = 1;
nodes = (
(195,353,l),
(195,438,l),
(104,438,l),
(104,353,l)
);
}
);
width = 300;
},
{
hints = (
{
horizontal = 1;
place = (0,63);
type = Stem;
},
{
horizontal = 1;
place = (365,63);
type = Stem;
},
{
place = (122,57);
type = Stem;
}
);
layerId = "3FC04E8D-38CC-44E9-A58D-856391625EC6";
shapes = (
{
closed = 1;
nodes = (
(179,0,l),
(179,63,l),
(122,63,l),
(122,0,l)
);
},
{
closed = 1;
nodes = (
(179,365,l),
(179,428,l),
(122,428,l),
(122,365,l)
);
}
);
width = 300;
}
);
unicode = 58;
},
{
glyphname = semicolon;
layers = (
{
hints = (
{
horizontal = 1;
place = (-163,88);
type = Stem;
},
{
horizontal = 1;
place = (0,152);
type = Stem;
},
{
horizontal = 1;
place = (317,151);
type = Stem;
},
{
place = (47,196);
type = Stem;
}
);
layerId = "F516ED7C-7F23-41BA-A2F1-1EB4B95E9343";
shapes = (
{
closed = 1;
nodes = (
(243,317,l),
(243,468,l),
(47,468,l),
(47,317,l)
);
},
{
closed = 1;
nodes = (
(114,0,l),
(114,-46,o),
(88,-75,o),
(29,-75,c),
(29,-163,l),
(162,-163,o),
(243,-102,o),
(243,38,cs),
(243,152,l),
(47,152,l),
(47,0,l)
);
}
);
width = 300;
},
{
hints = (
{
horizontal = 1;
place = (-115,40);
type = Stem;
},
{
horizontal = 1;
place = (0,85);
type = Stem;
},
{
horizontal = 1;
place = (353,85);
type = Stem;
},
{
place = (99,91);
type = Stem;
}
);
layerId = "8B72E089-1E16-4D07-A0B8-3936BD35683A";
shapes = (
{
closed = 1;
nodes = (
(190,353,l),
(190,438,l),
(99,438,l),
(99,353,l)
);
},
{
closed = 1;
nodes = (
(140,0,l),
(140,-49,o),
(122,-75,o),
(81,-75,c),
(81,-115,l),
(136,-115,o),
(190,-81,o),
(190,0,cs),
(190,85,l),
(99,85,l),
(99,0,l)
);
}
);
width = 300;
},
{
hints = (
{
horizontal = 1;
place = (-99,24);
type = Stem;
},
{
horizontal = 1;
place = (0,63);
type = Stem;
},
{
horizontal = 1;
place = (365,63);
type = Stem;
},
{
place = (148,24);
type = Stem;
}
);
layerId = "3FC04E8D-38CC-44E9-A58D-856391625EC6";
shapes = (
{
closed = 1;
nodes = (
(172,365,l),
(172,428,l),
(116,428,l),
(116,365,l)
);
},
{
closed = 1;
nodes = (
(148,0,l),
(148,-50,o),
(133,-75,o),
(98,-75,c),
(98,-99,l),
(127,-99,o),
(172,-74,o),
(172,-13,cs),
(172,63,l),
(116,63,l),
(116,0,l)
);
}
);
width = 300;
}
);
unicode = 59;
},
{
glyphname = less;
layers = (
{
hints = (
{
horizontal = 1;
place = (82,530);
type = Stem;
},
{
place = (49,497);
type = Stem;
}
);
layerId = "F516ED7C-7F23-41BA-A2F1-1EB4B95E9343";
shapes = (
{
closed = 1;
nodes = (
(49,298,l),
(546,82,l),
(546,228,l),
(274,346,l),
(546,467,l),
(546,612,l),
(49,397,l)
);
}
);
width = 593;
},
{
hints = (
{
horizontal = 1;
place = (126,438);
type = Stem;
},
{
place = (60,428);
type = Stem;
}
);
layerId = "8B72E089-1E16-4D07-A0B8-3936BD35683A";
shapes = (
{
closed = 1;
nodes = (
(60,313,l),
(488,126,l),
(488,190,l),
(133,345,l),
(488,500,l),
(488,564,l),
(60,377,l)
);
}
);
width = 548;
},
{
hints = (
{
horizontal = 1;
place = (141,407);
type = Stem;
},
{
place = (64,23);
type = Stem;
}
);
layerId = "3FC04E8D-38CC-44E9-A58D-856391625EC6";
shapes = (
{
closed = 1;
nodes = (
(64,318,l),
(469,141,l),
(469,178,l),
(87,345,l),
(469,511,l),
(469,548,l),
(64,371,l)
);
}
);
width = 533;
}
);
unicode = 60;
},
{
glyphname = equal;
layers = (
{
hints = (
{
horizontal = 1;
place = (181,130);
type = Stem;
},
{
horizontal = 1;
place = (383,130);
type = Stem;
},
{
place = (49,511);
type = Stem;
}
);
layerId = "F516ED7C-7F23-41BA-A2F1-1EB4B95E9343";
shapes = (
{
closed = 1;
nodes = (
(49,383,l),
(560,383,l),
(560,513,l),
(49,513,l)
);
},
{
closed = 1;
nodes = (
(49,181,l),
(560,181,l),
(560,311,l),
(49,311,l)
);
}
);
width = 609;
},
{
hints = (
{
horizontal = 1;
place = (225,59);
type = Stem;
},
{
horizontal = 1;
place = (405,59);
type = Stem;
},
{
place = (60,444);
type = Stem;
}
);
layerId = "8B72E089-1E16-4D07-A0B8-3936BD35683A";
shapes = (
{
closed = 1;
nodes = (
(60,405,l),
(504,405,l),
(504,464,l),
(60,464,l)
);
},
{
closed = 1;
nodes = (
(60,225,l),
(504,225,l),
(504,284,l),
(60,284,l)
);
}
);
width = 564;
},
{
hints = (
{
horizontal = 1;
place = (233,36);
type = Stem;
},
{
horizontal = 1;
place = (419,36);
type = Stem;
},
{
place = (64,422);
type = Stem;
}
);
layerId = "3FC04E8D-38CC-44E9-A58D-856391625EC6";
shapes = (
{
closed = 1;
nodes = (
(64,419,l),
(486,419,l),
(486,455,l),
(64,455,l)
);
},
{
closed = 1;
nodes = (
(64,233,l),
(486,233,l),
(486,269,l),
(64,269,l)
);
}
);
width = 549;
}
);
unicode = 61;
},
{
glyphname = greater;
layers = (
{
hints = (
{
horizontal = 1;
place = (82,530);
type = Stem;
},
{
place = (49,497);
type = Stem;
}
);
layerId = "F516ED7C-7F23-41BA-A2F1-1EB4B95E9343";
shapes = (
{
closed = 1;
nodes = (
(49,612,l),
(49,467,l),
(321,346,l),
(49,228,l),
(49,82,l),
(546,298,l),
(546,397,l)
);
}
);
width = 593;
},
{
hints = (
{
horizontal = 1;
place = (126,438);
type = Stem;
},
{
place = (60,428);
type = Stem;
}
);
layerId = "8B72E089-1E16-4D07-A0B8-3936BD35683A";
shapes = (
{
closed = 1;
nodes = (
(60,564,l),
(60,500,l),
(415,345,l),
(60,190,l),
(60,126,l),
(488,313,l),
(488,377,l)
);
}
);
width = 548;
},
{
hints = (
{
horizontal = 1;
place = (141,407);
type = Stem;
},
{
place = (446,23);
type = Stem;
}
);
layerId = "3FC04E8D-38CC-44E9-A58D-856391625EC6";
shapes = (
{
closed = 1;
nodes = (
(64,548,l),
(64,511,l),
(446,345,l),
(64,178,l),
(64,141,l),
(469,318,l),
(469,371,l)
);
}
);
width = 533;
}
);
unicode = 62;
},
{
glyphname = question;
layers = (
{
hints = (
{
horizontal = 1;
place = (0,152);
type = Stem;
},
{
horizontal = 1;
place = (566,145);
type = Stem;
},
{
place = (180,194);
type = Stem;
},
{
place = (189,177);
type = Stem;
},
{
place = (361,181);
type = Stem;
}
);
layerId = "F516ED7C-7F23-41BA-A2F1-1EB4B95E9343";
shapes = (
{
closed = 1;
nodes = (
(189,225,l),
(366,225,l),
(366,230,ls),
(366,291,o),
(392,314,o),
(428,341,cs),
(483,382,o),
(542,424,o),
(542,514,cs),
(542,626,o),
(438,711,o),
(295,711,cs),
(150,711,o),
(38,617,o),
(19,497,c),
(189,458,l),
(200,538,o),
(236,566,o),
(294,566,cs),
(335,566,o),
(361,542,o),
(361,506,cs),
(361,486,o),
(349,453,o),
(307,423,cs),
(250,384,o),
(189,339,o),
(189,230,cs)
);
},
{
closed = 1;
nodes = (
(374,0,l),
(374,152,l),
(180,152,l),
(180,0,l)
);
}
);
width = 567;
},
{
hints = (
{
horizontal = 1;
place = (0,85);
type = Stem;
},
{
horizontal = 1;
place = (639,69);
type = Stem;
},
{
place = (206,91);
type = Stem;
},
{
place = (216,71);
type = Stem;
},
{
place = (408,76);
type = Stem;
}
);
layerId = "8B72E089-1E16-4D07-A0B8-3936BD35683A";
shapes = (
{
closed = 1;
nodes = (
(216,167,l),
(287,167,l),
(287,215,ls),
(287,291,o),
(334,327,o),
(383,363,cs),
(433,401,o),
(484,440,o),
(484,526,cs),
(484,633,o),
(396,708,o),
(272,708,cs),
(158,708,o),
(65,641,o),
(33,535,c),
(104,510,l),
(126,589,o),
(192,639,o),
(270,639,cs),
(351,639,o),
(408,593,o),
(408,528,cs),
(408,461,o),
(366,431,o),
(321,399,cs),
(270,363,o),
(216,320,o),
(216,215,cs)
);
},
{
closed = 1;
nodes = (
(297,0,l),
(297,85,l),
(206,85,l),
(206,0,l)
);
}
);
width = 517;
},
{
hints = (
{
horizontal = 1;
place = (0,63);
type = Stem;
},
{
horizontal = 1;
place = (671,36);
type = Stem;
},
{
place = (215,57);
type = Stem;
},
{
place = (225,36);
type = Stem;
},
{
place = (424,41);
type = Stem;
}
);
layerId = "3FC04E8D-38CC-44E9-A58D-856391625EC6";
shapes = (
{
closed = 1;
nodes = (
(225,148,l),
(261,148,l),
(261,210,ls),
(261,293,o),
(315,334,o),
(368,373,cs),
(417,410,o),
(465,448,o),
(465,532,cs),
(465,636,o),
(382,707,o),
(265,707,cs),
(161,707,o),
(74,649,o),
(38,548,c),
(76,537,l),
(102,615,o),
(178,671,o),
(262,671,cs),
(353,671,o),
(424,611,o),
(424,534,cs),
(424,451,o),
(372,423,o),
(326,390,cs),
(277,355,o),
(225,313,o),
(225,210,cs)
);
},
{
closed = 1;
nodes = (
(272,0,l),
(272,63,l),
(215,63,l),
(215,0,l)
);
}
);
width = 501;
}
);
unicode = 63;
},
{
glyphname = at;
layers = (
{
hints = (
{
horizontal = 1;
place = (-180,114);
type = Stem;
},
{
horizontal = 1;
place = (0,133);
type = Stem;
},
{
horizontal = 1;
place = (8,118);
type = Stem;
},
{
horizontal = 1;
place = (394,122);
type = Stem;
},
{
horizontal = 1;
place = (394,130);
type = Stem;
},
{
horizontal = 1;
place = (596,115);
type = Stem;
},
{
place = (40,133);
type = Stem;
},
{
place = (236,177);
type = Stem;
},
{
place = (845,134);
type = Stem;
}
);
layerId = "F516ED7C-7F23-41BA-A2F1-1EB4B95E9343";
shapes = (
{
closed = 1;
nodes = (
(528,8,l),
(655,8,ls),
(844,8,o),
(979,133,o),
(979,312,cs),
(979,546,o),
(783,711,o),
(504,711,cs),
(232,711,o),
(40,527,o),
(40,266,cs),
(40,4,o),
(232,-180,o),
(504,-180,cs),
(651,-180,o),
(782,-118,o),
(822,-31,c),
(648,-17,l),
(622,-46,o),
(560,-66,o),
(494,-66,cs),
(306,-66,o),
(173,71,o),
(173,266,cs),
(173,461,o),
(310,596,o),
(504,596,cs),
(718,596,o),
(845,487,o),
(845,305,cs),
(845,199,o),
(807,126,o),
(709,126,c),
(728,344,ls),
(734,412,o),
(741,493,o),
(745,516,c),
(598,516,l),
(593,498,o),
(587,474,o),
(583,459,c),
(568,498,o),
(517,524,o),
(470,524,cs),
(346,524,o),
(249,417,o),
(236,264,cs),
(223,109,o),
(295,0,o),
(412,0,cs),
(458,0,o),
(515,31,o),
(540,70,c)
);
},
{
closed = 1;
nodes = (
(421,348,o),
(453,394,o),
(504,394,cs),
(547,394,o),
(565,361,o),
(554,276,cs),
(551,248,ls),
(540,164,o),
(515,133,o),
(475,133,cs),
(427,133,o),
(407,174,o),
(413,258,cs)
);
}
);
width = 1019;
},
{
hints = (
{
horizontal = 1;
place = (-201,65);
type = Stem;
},
{
horizontal = 1;
place = (0,63);
type = Stem;
},
{
horizontal = 1;
place = (10,59);
type = Stem;
},
{
horizontal = 1;
place = (439,61);
type = Stem;
},
{
horizontal = 1;
place = (643,65);
type = Stem;
},
{
place = (40,65);
type = Stem;
},
{
place = (226,71);
type = Stem;
},
{
place = (828,66);
type = Stem;
}
);
layerId = "8B72E089-1E16-4D07-A0B8-3936BD35683A";
shapes = (
{
closed = 1;
nodes = (
(554,10,l),
(629,10,ls),
(785,10,o),
(894,132,o),
(894,306,cs),
(894,542,o),
(716,708,o),
(462,708,cs),
(214,708,o),
(40,521,o),
(40,254,cs),
(40,-13,o),
(214,-201,o),
(462,-201,cs),
(578,-201,o),
(705,-147,o),
(770,-69,c),
(692,-53,l),
(638,-102,o),
(543,-136,o),
(462,-136,cs),
(252,-136,o),
(105,25,o),
(105,254,cs),
(105,482,o),
(252,643,o),
(462,643,cs),
(677,643,o),
(828,503,o),
(828,303,cs),
(828,166,o),
(746,69,o),
(630,69,c),
(657,356,ls),
(663,420,o),
(667,456,o),
(674,490,c),
(613,490,l),
(605,469,o),
(596,439,o),
(591,418,c),
(561,465,o),
(514,500,o),
(454,500,cs),
(333,500,o),
(239,396,o),
(226,249,cs),
(213,103,o),
(288,0,o),
(408,0,cs),
(466,0,o),
(521,27,o),
(560,76,c)
);
},
{
closed = 1;
nodes = (
(308,365,o),
(370,439,o),
(462,439,cs),
(543,439,o),
(583,357,o),
(577,263,cs),
(575,232,ls),
(569,143,o),
(512,63,o),
(428,63,cs),
(336,63,o),
(287,135,o),
(297,249,cs)
);
}
);
width = 934;
},
{
hints = (
{
horizontal = 1;
place = (-208,32);
type = Stem;
},
{
horizontal = 1;
place = (0,40);
type = Stem;
},
{
horizontal = 1;
place = (11,33);
type = Stem;
},
{
horizontal = 1;
place = (454,38);
type = Stem;
},
{
horizontal = 1;
place = (675,32);
type = Stem;
},
{
place = (40,36);
type = Stem;
},
{
place = (223,36);
type = Stem;
},
{
place = (566,38);
type = Stem;
},
{
place = (829,37);
type = Stem;
}
);
layerId = "3FC04E8D-38CC-44E9-A58D-856391625EC6";
shapes = (
{
closed = 1;
nodes = (
(563,11,l),
(621,11,ls),
(766,11,o),
(866,132,o),
(866,304,cs),
(866,541,o),
(694,707,o),
(448,707,cs),
(208,707,o),
(40,519,o),
(40,250,cs),
(40,-19,o),
(208,-208,o),
(448,-208,cs),
(554,-208,o),
(680,-157,o),
(753,-82,c),
(723,-72,l),
(658,-133,o),
(544,-176,o),
(448,-176,cs),
(229,-176,o),
(76,0,o),
(76,250,cs),
(76,499,o),
(229,675,o),
(448,675,cs),
(668,675,o),
(829,520,o),
(829,305,cs),
(829,153,o),
(761,44,o),
(604,44,c),
(634,357,ls),
(640,421,o),
(641,444,o),
(648,482,c),
(618,482,l),
(609,455,o),
(598,416,o),
(593,389,c),
(563,450,o),
(513,492,o),
(449,492,cs),
(329,492,o),
(236,389,o),
(223,244,cs),
(210,101,o),
(286,0,o),
(407,0,cs),
(470,0,o),
(524,31,o),
(569,92,c)
);
},
{
closed = 1;
nodes = (
(271,371,o),
(343,454,o),
(448,454,cs),
(542,454,o),
(589,356,o),
(585,259,cs),
(583,227,ls),
(579,136,o),
(511,40,o),
(413,40,cs),
(306,40,o),
(248,122,o),
(259,246,cs)
);
}
);
width = 906;
}
);
unicode = 64;
},
{
glyphname = A;
layers = (
{
hints = (
{
horizontal = 1;
place = (0,21);
target = up;
type = BottomGhost;
},
{
horizontal = 1;
place = (110,135);
type = Stem;
},
{
horizontal = 1;
place = (703,-20);
target = down;
type = TopGhost;
},
{
place = (9,729);
type = Stem;
}
);
layerId = "F516ED7C-7F23-41BA-A2F1-1EB4B95E9343";
shapes = (
{
closed = 1;
nodes = (
(9,0,l),
(194,0,l),
(235,110,l),
(511,110,l),
(552,0,l),
(738,0,l),
(462,703,l),
(285,703,l)
);
},
{
closed = 1;
nodes = (
(286,245,l),
(373,478,l),
(460,245,l)
);
}
);
width = 747;
},
{
hints = (
{
horizontal = 1;
place = (0,21);
target = up;
type = BottomGhost;
},
{
horizontal = 1;
place = (190,66);
type = Stem;
},
{
horizontal = 1;
place = (632,68);
type = Stem;
},
{
horizontal = 1;
place = (700,-20);
target = down;
type = TopGhost;
},
{
place = (35,645);
type = Stem;
}
);
layerId = "8B72E089-1E16-4D07-A0B8-3936BD35683A";
shapes = (
{
closed = 1;
nodes = (
(35,0,l),
(111,0,l),
(185,190,l),
(530,190,l),
(604,0,l),
(680,0,l),
(406,700,l),
(309,700,l)
);
},
{
closed = 1;
nodes = (
(211,256,l),
(358,632,l),
(504,256,l)
);
}
);
width = 715;
},
{
hints = (
{
horizontal = 1;
place = (0,21);
target = up;
type = BottomGhost;
},
{
horizontal = 1;
place = (217,38);
type = Stem;
},
{
horizontal = 1;
place = (656,43);
type = Stem;
},
{
place = (44,617);
type = Stem;
}
);
layerId = "3FC04E8D-38CC-44E9-A58D-856391625EC6";
shapes = (
{
closed = 1;
nodes = (
(44,0,l),
(84,0,l),
(173,217,l),
(532,217,l),
(621,0,l),
(661,0,l),
(378,699,l),
(327,699,l)
);
},
{
closed = 1;
nodes = (
(188,255,l),
(353,656,l),
(517,255,l)
);
}
);
width = 705;
}
);
unicode = 65;
},
{
glyphname = B;
layers = (
{
hints = (
{
horizontal = 1;
place = (0,142);
type = Stem;
},
{
horizontal = 1;
place = (294,135);
type = Stem;
},
{
horizontal = 1;
place = (563,140);
type = Stem;
},
{
place = (58,178);
type = Stem;
},
{
place = (415,182);
type = Stem;
},
{
place = (453,180);
type = Stem;
}
);
layerId = "F516ED7C-7F23-41BA-A2F1-1EB4B95E9343";
shapes = (
{
closed = 1;
nodes = (
(597,626,o),
(506,703,o),
(362,703,cs),
(58,703,l),
(58,0,l),
(382,0,ls),
(536,0,o),
(633,81,o),
(633,212,cs),
(633,286,o),
(588,341,o),
(511,369,c),
(566,398,o),
(597,444,o),
(597,502,cs)
);
},
{
closed = 1;
nodes = (
(376,294,ls),
(423,294,o),
(453,264,o),
(453,218,cs),
(453,171,o),
(423,142,o),
(376,142,cs),
(236,142,l),
(236,294,l)
);
},
{
closed = 1;
nodes = (
(236,563,l),
(356,563,ls),
(392,563,o),
(415,538,o),
(415,496,cs),
(415,455,o),
(385,429,o),
(340,429,cs),
(236,429,l)
);
}
);
width = 654;
},
{
hints = (
{
horizontal = 1;
place = (0,67);
type = Stem;
},
{
horizontal = 1;
place = (327,67);
type = Stem;
},
{
horizontal = 1;
place = (633,67);
type = Stem;
},
{
place = (70,74);
type = Stem;
},
{
place = (458,76);
type = Stem;
},
{
place = (499,76);
type = Stem;
}
);
layerId = "8B72E089-1E16-4D07-A0B8-3936BD35683A";
shapes = (
{
closed = 1;
nodes = (
(534,629,o),
(458,700,o),
(336,700,cs),
(70,700,l),
(70,0,l),
(357,0,ls),
(491,0,o),
(575,75,o),
(575,194,cs),
(575,280,o),
(525,343,o),
(440,368,c),
(500,398,o),
(534,450,o),
(534,517,cs)
);
},
{
closed = 1;
nodes = (
(351,327,ls),
(442,327,o),
(499,277,o),
(499,197,cs),
(499,117,o),
(442,67,o),
(351,67,cs),
(144,67,l),
(144,327,l)
);
},
{
closed = 1;
nodes = (
(144,633,l),
(330,633,ls),
(409,633,o),
(458,587,o),
(458,514,cs),
(458,440,o),
(401,394,o),
(310,394,cs),
(144,394,l)
);
}
);
width = 615;
},
{
hints = (
{
horizontal = 1;
place = (0,35);
type = Stem;
},
{
horizontal = 1;
place = (346,35);
type = Stem;
},
{
horizontal = 1;
place = (664,35);
type = Stem;
},
{
place = (74,40);
type = Stem;
},
{
place = (476,41);
type = Stem;
},
{
place = (518,41);
type = Stem;
}
);
layerId = "3FC04E8D-38CC-44E9-A58D-856391625EC6";
shapes = (
{
closed = 1;
nodes = (
(517,631,o),
(446,699,o),
(331,699,cs),
(74,699,l),
(74,0,l),
(352,0,ls),
(480,0,o),
(559,73,o),
(559,186,cs),
(559,280,o),
(502,350,o),
(406,369,c),
(476,396,o),
(517,451,o),
(517,525,cs)
);
},
{
closed = 1;
nodes = (
(346,346,ls),
(452,346,o),
(518,286,o),
(518,190,cs),
(518,95,o),
(452,35,o),
(346,35,cs),
(114,35,l),
(114,346,l)
);
},
{
closed = 1;
nodes = (
(114,664,l),
(325,664,ls),
(418,664,o),
(476,609,o),
(476,523,cs),
(476,435,o),
(410,381,o),
(304,381,cs),
(114,381,l)
);
}
);
width = 602;
}
);
unicode = 66;
},
{
glyphname = C;
layers = (
{
hints = (
{
horizontal = 1;
place = (-8,147);
type = Stem;
},
{
horizontal = 1;
place = (562,149);
type = Stem;
},
{
place = (49,181);
type = Stem;
}
);
layerId = "F516ED7C-7F23-41BA-A2F1-1EB4B95E9343";
shapes = (
{
closed = 1;
nodes = (
(49,139,o),
(193,-8,o),
(397,-8,cs),
(555,-8,o),
(684,81,o),
(716,201,c),
(554,256,l),
(538,191,o),
(477,139,o),
(399,139,cs),
(300,139,o),
(230,226,o),
(230,350,cs),
(230,475,o),
(300,562,o),
(402,562,cs),
(480,562,o),
(541,512,o),
(554,448,c),
(717,500,l),
(677,621,o),
(549,711,o),
(394,711,cs),
(193,711,o),
(49,561,o),
(49,350,cs)
);
}
);
width = 750;
},
{
hints = (
{
horizontal = 1;
place = (-10,69);
type = Stem;
},
{
horizontal = 1;
place = (639,69);
type = Stem;
},
{
place = (60,76);
type = Stem;
}
);
layerId = "8B72E089-1E16-4D07-A0B8-3936BD35683A";
shapes = (
{
closed = 1;
nodes = (
(60,138,o),
(195,-10,o),
(386,-10,cs),
(541,-10,o),
(649,77,o),
(681,215,c),
(610,240,l),
(590,127,o),
(508,59,o),
(386,59,cs),
(239,59,o),
(136,179,o),
(136,349,cs),
(136,519,o),
(239,639,o),
(386,639,cs),
(500,639,o),
(582,579,o),
(610,478,c),
(681,503,l),
(641,629,o),
(533,708,o),
(386,708,cs),
(195,708,o),
(60,560,o),
(60,349,cs)
);
}
);
width = 721;
},
{
hints = (
{
horizontal = 1;
place = (-11,40);
type = Stem;
},
{
horizontal = 1;
place = (668,39);
type = Stem;
},
{
place = (64,41);
type = Stem;
}
);
layerId = "3FC04E8D-38CC-44E9-A58D-856391625EC6";
shapes = (
{
closed = 1;
nodes = (
(64,138,o),
(196,-11,o),
(382,-11,cs),
(540,-11,o),
(638,73,o),
(670,213,c),
(629,228,l),
(607,101,o),
(522,29,o),
(382,29,cs),
(219,29,o),
(105,161,o),
(105,349,cs),
(105,537,o),
(219,668,o),
(382,668,cs),
(510,668,o),
(596,606,o),
(629,495,c),
(669,511,l),
(629,635,o),
(531,707,o),
(382,707,cs),
(196,707,o),
(64,560,o),
(64,349,cs)
);
}
);
width = 712;
}
);
unicode = 67;
},
{
glyphname = D;
layers = (
{
hints = (
{
horizontal = 1;
place = (0,142);
type = Stem;
},
{
horizontal = 1;
place = (563,140);
type = Stem;
},
{
place = (58,178);
type = Stem;
},
{
place = (510,181);
type = Stem;
}
);
layerId = "F516ED7C-7F23-41BA-A2F1-1EB4B95E9343";
shapes = (
{
closed = 1;
nodes = (
(58,0,l),
(341,0,ls),
(583,0,o),
(691,181,o),
(691,351,cs),
(691,522,o),
(583,703,o),
(341,703,cs),
(58,703,l)
);
},
{
closed = 1;
nodes = (
(236,563,l),
(335,563,ls),
(457,563,o),
(510,471,o),
(510,352,cs),
(510,234,o),
(457,142,o),
(335,142,cs),
(236,142,l)
);
}
);
width = 722;
},
{
hints = (
{
horizontal = 1;
place = (0,67);
type = Stem;
},
{
horizontal = 1;
place = (633,67);
type = Stem;
},
{
place = (70,74);
type = Stem;
},
{
place = (574,76);
type = Stem;
}
);
layerId = "8B72E089-1E16-4D07-A0B8-3936BD35683A";
shapes = (
{
closed = 1;
nodes = (
(70,0,l),
(323,0,ls),
(548,0,o),
(650,175,o),
(650,350,cs),
(650,525,o),
(548,700,o),
(323,700,cs),
(70,700,l)
);
},
{
closed = 1;
nodes = (
(144,633,l),
(317,633,ls),
(495,633,o),
(574,492,o),
(574,350,cs),
(574,208,o),
(495,67,o),
(317,67,cs),
(144,67,l)
);
}
);
width = 690;
},
{
hints = (
{
horizontal = 1;
place = (0,35);
type = Stem;
},
{
horizontal = 1;
place = (664,35);
type = Stem;
},
{
place = (74,40);
type = Stem;
},
{
place = (595,42);
type = Stem;
}
);
layerId = "3FC04E8D-38CC-44E9-A58D-856391625EC6";
shapes = (
{
closed = 1;
nodes = (
(74,0,l),
(317,0,ls),
(537,0,o),
(637,173,o),
(637,350,cs),
(637,526,o),
(537,699,o),
(317,699,cs),
(74,699,l)
);
},
{
closed = 1;
nodes = (
(114,664,l),
(311,664,ls),
(508,664,o),
(595,502,o),
(595,350,cs),
(595,197,o),
(508,35,o),
(311,35,cs),
(114,35,l)
);
}
);
width = 680;
}
);
unicode = 68;
},
{
glyphname = E;
layers = (
{
hints = (
{
horizontal = 1;
place = (0,136);
type = Stem;
},
{
horizontal = 1;
place = (288,135);
type = Stem;
},
{
horizontal = 1;
place = (569,134);
type = Stem;
},
{
place = (58,178);
type = Stem;
}
);
layerId = "F516ED7C-7F23-41BA-A2F1-1EB4B95E9343";
shapes = (
{
closed = 1;
nodes = (
(58,0,l),
(570,0,l),
(570,136,l),
(236,136,l),
(236,288,l),
(543,288,l),
(543,423,l),
(236,423,l),
(236,569,l),
(570,569,l),
(570,703,l),
(58,703,l)
);
}
);
width = 600;
},
{
hints = (
{
horizontal = 1;
place = (0,66);
type = Stem;
},
{
horizontal = 1;
place = (321,66);
type = Stem;
},
{
horizontal = 1;
place = (634,66);
type = Stem;
},
{
place = (70,74);
type = Stem;
}
);
layerId = "8B72E089-1E16-4D07-A0B8-3936BD35683A";
shapes = (
{
closed = 1;
nodes = (
(70,0,l),
(515,0,l),
(515,66,l),
(144,66,l),
(144,321,l),
(485,321,l),
(485,387,l),
(144,387,l),
(144,634,l),
(515,634,l),
(515,700,l),
(70,700,l)
);
}
);
width = 555;
},
{
hints = (
{
horizontal = 1;
place = (0,35);
type = Stem;
},
{
horizontal = 1;
place = (340,35);
type = Stem;
},
{
horizontal = 1;
place = (664,35);
type = Stem;
},
{
place = (74,40);
type = Stem;
}
);
layerId = "3FC04E8D-38CC-44E9-A58D-856391625EC6";
shapes = (
{
closed = 1;
nodes = (
(74,0,l),
(497,0,l),
(497,35,l),
(114,35,l),
(114,340,l),
(466,340,l),
(466,375,l),
(114,375,l),
(114,664,l),
(497,664,l),
(497,699,l),
(74,699,l)
);
}
);
width = 540;
}
);
unicode = 69;
},
{
glyphname = F;
layers = (
{
hints = (
{
horizontal = 1;
place = (0,21);
target = up;
type = BottomGhost;
},
{
horizontal = 1;
place = (288,135);
type = Stem;
},
{
horizontal = 1;
place = (569,134);
type = Stem;
},
{
place = (58,178);
type = Stem;
}
);
layerId = "F516ED7C-7F23-41BA-A2F1-1EB4B95E9343";
shapes = (
{
closed = 1;
nodes = (
(58,0,l),
(236,0,l),
(236,288,l),
(553,288,l),
(553,423,l),
(236,423,l),
(236,569,l),
(570,569,l),
(570,703,l),
(58,703,l)
);
}
);
width = 600;
},
{
hints = (
{
horizontal = 1;
place = (0,21);
target = up;
type = BottomGhost;
},
{
horizontal = 1;
place = (321,66);
type = Stem;
},
{
horizontal = 1;
place = (634,66);
type = Stem;
},
{
place = (70,74);
type = Stem;
}
);
layerId = "8B72E089-1E16-4D07-A0B8-3936BD35683A";
shapes = (
{
closed = 1;
nodes = (
(70,0,l),
(144,0,l),
(144,321,l),
(495,321,l),
(495,387,l),
(144,387,l),
(144,634,l),
(515,634,l),
(515,700,l),
(70,700,l)
);
}
);
width = 555;
},
{
hints = (
{
horizontal = 1;
place = (0,21);
target = up;
type = BottomGhost;
},
{
horizontal = 1;
place = (340,35);
type = Stem;
},
{
horizontal = 1;
place = (664,35);
type = Stem;
},
{
place = (74,40);
type = Stem;
}
);
layerId = "3FC04E8D-38CC-44E9-A58D-856391625EC6";
shapes = (
{
closed = 1;
nodes = (
(74,0,l),
(114,0,l),
(114,340,l),
(476,340,l),
(476,375,l),
(114,375,l),
(114,664,l),
(497,664,l),
(497,699,l),
(74,699,l)
);
}
);
width = 540;
}
);
unicode = 70;
},
{
glyphname = G;
layers = (
{
hints = (
{
horizontal = 1;
place = (-10,147);
type = Stem;
},
{
horizontal = 1;
place = (0,21);
target = up;
type = BottomGhost;
},
{
horizontal = 1;
place = (261,135);
type = Stem;
},
{
horizontal = 1;
place = (562,149);
type = Stem;
},
{
place = (49,181);
type = Stem;
},
{
place = (542,180);
type = Stem;
}
);
layerId = "F516ED7C-7F23-41BA-A2F1-1EB4B95E9343";
shapes = (
{
closed = 1;
nodes = (
(49,139,o),
(180,-10,o),
(369,-10,cs),
(465,-10,o),
(528,35,o),
(563,79,c),
(566,0,l),
(722,0,l),
(722,396,l),
(369,396,l),
(369,261,l),
(542,261,l),
(542,256,ls),
(542,190,o),
(484,137,o),
(387,137,cs),
(295,137,o),
(230,224,o),
(230,350,cs),
(230,489,o),
(297,562,o),
(398,562,cs),
(479,562,o),
(539,520,o),
(546,466,c),
(710,518,l),
(675,629,o),
(548,711,o),
(398,711,cs),
(193,711,o),
(49,560,o),
(49,350,cs)
);
}
);
width = 770;
},
{
hints = (
{
horizontal = 1;
place = (-10,67);
type = Stem;
},
{
horizontal = 1;
place = (0,21);
target = up;
type = BottomGhost;
},
{
horizontal = 1;
place = (291,66);
type = Stem;
},
{
horizontal = 1;
place = (639,69);
type = Stem;
},
{
place = (60,76);
type = Stem;
},
{
place = (610,74);
type = Stem;
}
);
layerId = "8B72E089-1E16-4D07-A0B8-3936BD35683A";
shapes = (
{
closed = 1;
nodes = (
(60,138,o),
(195,-10,o),
(377,-10,cs),
(482,-10,o),
(561,32,o),
(610,103,c),
(630,0,l),
(684,0,l),
(684,357,l),
(383,357,l),
(383,291,l),
(610,291,l),
(610,270,ls),
(610,136,o),
(508,57,o),
(386,57,cs),
(239,57,o),
(136,179,o),
(136,349,cs),
(136,519,o),
(239,639,o),
(386,639,cs),
(500,639,o),
(582,579,o),
(610,478,c),
(681,503,l),
(641,629,o),
(533,708,o),
(386,708,cs),
(195,708,o),
(60,560,o),
(60,349,cs)
);
}
);
width = 744;
},
{
hints = (
{
horizontal = 1;
place = (-10,35);
type = Stem;
},
{
horizontal = 1;
place = (0,21);
target = up;
type = BottomGhost;
},
{
horizontal = 1;
place = (309,35);
type = Stem;
},
{
horizontal = 1;
place = (669,38);
type = Stem;
},
{
place = (64,41);
type = Stem;
},
{
place = (635,37);
type = Stem;
}
);
layerId = "3FC04E8D-38CC-44E9-A58D-856391625EC6";
shapes = (
{
closed = 1;
nodes = (
(64,138,o),
(200,-10,o),
(380,-10,cs),
(500,-10,o),
(587,40,o),
(635,138,c),
(635,0,l),
(672,0,l),
(672,344,l),
(388,344,l),
(388,309,l),
(633,309,l),
(633,274,ls),
(633,114,o),
(516,25,o),
(386,25,cs),
(221,25,o),
(105,161,o),
(105,349,cs),
(105,531,o),
(220,669,o),
(382,669,cs),
(511,669,o),
(598,605,o),
(631,489,c),
(672,505,l),
(631,632,o),
(532,707,o),
(382,707,cs),
(196,707,o),
(64,560,o),
(64,349,cs)
);
}
);
width = 736;
}
);
unicode = 71;
},
{
glyphname = H;
layers = (
{
hints = (
{
horizontal = 1;
place = (0,21);
target = up;
type = BottomGhost;
},
{
horizontal = 1;
place = (288,135);
type = Stem;
},
{
horizontal = 1;
place = (703,-20);
target = down;
type = TopGhost;
},
{
place = (58,178);
type = Stem;
},
{
place = (482,179);
type = Stem;
}
);
layerId = "F516ED7C-7F23-41BA-A2F1-1EB4B95E9343";
shapes = (
{
closed = 1;
nodes = (
(58,0,l),
(236,0,l),
(236,288,l),
(482,288,l),
(482,0,l),
(661,0,l),
(661,703,l),
(482,703,l),
(482,423,l),
(236,423,l),
(236,703,l),
(58,703,l)
);
}
);
width = 720;
},
{
hints = (
{
horizontal = 1;
place = (0,21);
target = up;
type = BottomGhost;
},
{
horizontal = 1;
place = (321,66);
type = Stem;
},
{
horizontal = 1;
place = (700,-20);
target = down;
type = TopGhost;
},
{
place = (70,74);
type = Stem;
},
{
place = (543,74);
type = Stem;
}
);
layerId = "8B72E089-1E16-4D07-A0B8-3936BD35683A";
shapes = (
{
closed = 1;
nodes = (
(70,0,l),
(144,0,l),
(144,321,l),
(543,321,l),
(543,0,l),
(617,0,l),
(617,700,l),
(543,700,l),
(543,387,l),
(144,387,l),
(144,700,l),
(70,700,l)
);
}
);
width = 687;
},
{
hints = (
{
horizontal = 1;
place = (0,21);
target = up;
type = BottomGhost;
},
{
horizontal = 1;
place = (335,35);
type = Stem;
},
{
horizontal = 1;
place = (699,-20);
target = down;
type = TopGhost;
},
{
place = (74,40);
type = Stem;
},
{
place = (563,40);
type = Stem;
}
);
layerId = "3FC04E8D-38CC-44E9-A58D-856391625EC6";
shapes = (
{
closed = 1;
nodes = (
(74,0,l),
(114,0,l),
(114,335,l),
(563,335,l),
(563,0,l),
(603,0,l),
(603,699,l),
(563,699,l),
(563,370,l),
(114,370,l),
(114,699,l),
(74,699,l)
);
}
);
width = 676;
}
);
unicode = 72;
},
{
glyphname = I;
layers = (
{
hints = (
{
horizontal = 1;
place = (0,21);
target = up;
type = BottomGhost;
},
{
horizontal = 1;
place = (703,-20);
target = down;
type = TopGhost;
},
{
place = (58,178);
type = Stem;
}
);
layerId = "F516ED7C-7F23-41BA-A2F1-1EB4B95E9343";
shapes = (
{
closed = 1;
nodes = (
(58,0,l),
(236,0,l),
(236,703,l),
(58,703,l)
);
}
);
width = 296;
},
{
hints = (
{
horizontal = 1;
place = (0,21);
target = up;
type = BottomGhost;
},
{
horizontal = 1;
place = (700,-20);
target = down;
type = TopGhost;
},
{
place = (70,74);
type = Stem;
}
);
layerId = "8B72E089-1E16-4D07-A0B8-3936BD35683A";
shapes = (
{
closed = 1;
nodes = (
(70,0,l),
(144,0,l),
(144,700,l),
(70,700,l)
);
}
);
width = 214;
},
{
hints = (
{
horizontal = 1;
place = (0,21);
target = up;
type = BottomGhost;
},
{
horizontal = 1;
place = (699,-20);
target = down;
type = TopGhost;
},
{
place = (74,40);
type = Stem;
}
);
layerId = "3FC04E8D-38CC-44E9-A58D-856391625EC6";
shapes = (
{
closed = 1;
nodes = (
(74,0,l),
(114,0,l),
(114,699,l),
(74,699,l)
);
}
);
width = 187;
}
);
unicode = 73;
},
{
glyphname = J;
layers = (
{
hints = (
{
horizontal = 1;
place = (-9,147);
type = Stem;
},
{
horizontal = 1;
place = (703,-20);
target = down;
type = TopGhost;
},
{
place = (344,180);
type = Stem;
}
);
layerId = "F516ED7C-7F23-41BA-A2F1-1EB4B95E9343";
shapes = (
{
closed = 1;
nodes = (
(344,250,ls),
(344,175,o),
(324,138,o),
(282,138,cs),
(231,138,o),
(197,176,o),
(186,248,c),
(27,193,l),
(47,83,o),
(143,-9,o),
(284,-9,cs),
(420,-9,o),
(524,77,o),
(524,235,cs),
(524,703,l),
(344,703,l)
);
}
);
width = 576;
},
{
hints = (
{
horizontal = 1;
place = (-9,67);
type = Stem;
},
{
horizontal = 1;
place = (700,-20);
target = down;
type = TopGhost;
},
{
place = (389,74);
type = Stem;
}
);
layerId = "8B72E089-1E16-4D07-A0B8-3936BD35683A";
shapes = (
{
closed = 1;
nodes = (
(389,229,ls),
(389,124,o),
(338,58,o),
(258,58,cs),
(179,58,o),
(124,111,o),
(104,195,c),
(33,170,l),
(65,60,o),
(148,-9,o),
(260,-9,cs),
(385,-9,o),
(463,79,o),
(463,220,cs),
(463,700,l),
(389,700,l)
);
}
);
width = 528;
},
{
hints = (
{
horizontal = 1;
place = (-9,35);
type = Stem;
},
{
horizontal = 1;
place = (699,-20);
target = down;
type = TopGhost;
},
{
place = (404,39);
type = Stem;
}
);
layerId = "3FC04E8D-38CC-44E9-A58D-856391625EC6";
shapes = (
{
closed = 1;
nodes = (
(404,219,ls),
(404,102,o),
(343,26,o),
(250,26,cs),
(162,26,o),
(100,87,o),
(77,178,c),
(35,163,l),
(71,53,o),
(150,-9,o),
(252,-9,cs),
(374,-9,o),
(443,80,o),
(443,215,cs),
(443,699,l),
(404,699,l)
);
}
);
width = 512;
}
);
unicode = 74;
},
{
glyphname = K;
layers = (
{
hints = (
{
horizontal = 1;
place = (0,21);
target = up;
type = BottomGhost;
},
{
horizontal = 1;
place = (703,-20);
target = down;
type = TopGhost;
},
{
place = (58,178);
type = Stem;
}
);
layerId = "F516ED7C-7F23-41BA-A2F1-1EB4B95E9343";
shapes = (
{
closed = 1;
nodes = (
(58,0,l),
(236,0,l),
(236,248,l),
(295,311,l),
(459,0,l),
(668,0,l),
(423,447,l),
(664,703,l),
(459,703,l),
(236,467,l),
(236,703,l),
(58,703,l)
);
}
);
width = 674;
},
{
hints = (
{
horizontal = 1;
place = (0,21);
target = up;
type = BottomGhost;
},
{
horizontal = 1;
place = (700,-20);
target = down;
type = TopGhost;
},
{
place = (70,74);
type = Stem;
}
);
layerId = "8B72E089-1E16-4D07-A0B8-3936BD35683A";
shapes = (
{
closed = 1;
nodes = (
(70,0,l),
(144,0,l),
(144,247,l),
(250,360,l),
(494,0,l),
(580,0,l),
(302,415,l),
(570,700,l),
(482,700,l),
(144,343,l),
(144,700,l),
(70,700,l)
);
}
);
width = 600;
},
{
hints = (
{
horizontal = 1;
place = (0,21);
target = up;
type = BottomGhost;
},
{
horizontal = 1;
place = (699,-20);
target = down;
type = TopGhost;
},
{
place = (74,40);
type = Stem;
}
);
layerId = "3FC04E8D-38CC-44E9-A58D-856391625EC6";
shapes = (
{
closed = 1;
nodes = (
(74,0,l),
(114,0,l),
(114,246,l),
(243,384,l),
(506,0,l),
(551,0,l),
(271,414,l),
(539,699,l),
(491,699,l),
(114,301,l),
(114,699,l),
(74,699,l)
);
}
);
width = 576;
}
);
unicode = 75;
},
{
glyphname = L;
layers = (
{
hints = (
{
horizontal = 1;
place = (0,136);
type = Stem;
},
{
horizontal = 1;
place = (703,-20);
target = down;
type = TopGhost;
},
{
place = (58,178);
type = Stem;
}
);
layerId = "F516ED7C-7F23-41BA-A2F1-1EB4B95E9343";
shapes = (
{
closed = 1;
nodes = (
(58,0,l),
(570,0,l),
(570,136,l),
(236,136,l),
(236,703,l),
(58,703,l)
);
}
);
width = 600;
},
{
hints = (
{
horizontal = 1;
place = (0,66);
type = Stem;
},
{
horizontal = 1;
place = (700,-20);
target = down;
type = TopGhost;
},
{
place = (70,74);
type = Stem;
}
);
layerId = "8B72E089-1E16-4D07-A0B8-3936BD35683A";
shapes = (
{
closed = 1;
nodes = (
(70,0,l),
(515,0,l),
(515,66,l),
(144,66,l),
(144,700,l),
(70,700,l)
);
}
);
width = 555;
},
{
hints = (
{
horizontal = 1;
place = (0,35);
type = Stem;
},
{
horizontal = 1;
place = (699,-20);
target = down;
type = TopGhost;
},
{
place = (74,40);
type = Stem;
}
);
layerId = "3FC04E8D-38CC-44E9-A58D-856391625EC6";
shapes = (
{
closed = 1;
nodes = (
(74,0,l),
(497,0,l),
(497,35,l),
(114,35,l),
(114,699,l),
(74,699,l)
);
}
);
width = 540;
}
);
unicode = 76;
},
{
glyphname = M;
layers = (
{
hints = (
{
horizontal = 1;
place = (0,21);
target = up;
type = BottomGhost;
},
{
horizontal = 1;
place = (703,-20);
target = down;
type = TopGhost;
},
{
place = (58,178);
type = Stem;
},
{
place = (628,180);
type = Stem;
}
);
layerId = "F516ED7C-7F23-41BA-A2F1-1EB4B95E9343";
shapes = (
{
closed = 1;
nodes = (
(58,0,l),
(236,0,l),
(236,376,l),
(367,0,l),
(499,0,l),
(628,373,l),
(628,0,l),
(808,0,l),
(808,703,l),
(581,703,l),
(433,259,l),
(283,703,l),
(58,703,l)
);
}
);
width = 866;
},
{
hints = (
{
horizontal = 1;
place = (0,98);
type = Stem;
},
{
horizontal = 1;
place = (0,21);
target = up;
type = BottomGhost;
},
{
horizontal = 1;
place = (569,131);
type = Stem;
},
{
horizontal = 1;
place = (700,-20);
target = down;
type = TopGhost;
},
{
place = (70,74);
type = Stem;
},
{
place = (707,74);
type = Stem;
}
);
layerId = "8B72E089-1E16-4D07-A0B8-3936BD35683A";
shapes = (
{
closed = 1;
nodes = (
(70,0,l),
(144,0,l),
(144,569,l),
(396,0,l),
(455,0,l),
(707,569,l),
(707,0,l),
(781,0,l),
(781,700,l),
(689,700,l),
(426,98,l),
(162,700,l),
(70,700,l)
);
}
);
width = 851;
},
{
hints = (
{
horizontal = 1;
place = (0,45);
type = Stem;
},
{
horizontal = 1;
place = (0,21);
target = up;
type = BottomGhost;
},
{
horizontal = 1;
place = (628,71);
type = Stem;
},
{
horizontal = 1;
place = (699,-20);
target = down;
type = TopGhost;
},
{
place = (74,40);
type = Stem;
},
{
place = (733,39);
type = Stem;
}
);
layerId = "3FC04E8D-38CC-44E9-A58D-856391625EC6";
shapes = (
{
closed = 1;
nodes = (
(74,0,l),
(114,0,l),
(114,627,l),
(406,0,l),
(441,0,l),
(733,628,l),
(733,0,l),
(772,0,l),
(772,699,l),
(725,699,l),
(424,45,l),
(122,699,l),
(74,699,l)
);
}
);
width = 846;
}
);
unicode = 77;
},
{
glyphname = N;
layers = (
{
hints = (
{
horizontal = 1;
place = (0,21);
target = up;
type = BottomGhost;
},
{
horizontal = 1;
place = (703,-20);
target = down;
type = TopGhost;
},
{
place = (58,178);
type = Stem;
},
{
place = (482,179);
type = Stem;
}
);
layerId = "F516ED7C-7F23-41BA-A2F1-1EB4B95E9343";
shapes = (
{
closed = 1;
nodes = (
(58,0,l),
(236,0,l),
(236,404,l),
(482,0,l),
(661,0,l),
(661,703,l),
(482,703,l),
(482,299,l),
(237,703,l),
(58,703,l)
);
}
);
width = 720;
},
{
hints = (
{
horizontal = 1;
place = (0,21);
target = up;
type = BottomGhost;
},
{
horizontal = 1;
place = (700,-20);
target = down;
type = TopGhost;
},
{
place = (70,74);
type = Stem;
},
{
place = (543,74);
type = Stem;
}
);
layerId = "8B72E089-1E16-4D07-A0B8-3936BD35683A";
shapes = (
{
closed = 1;
nodes = (
(70,0,l),
(144,0,l),
(144,581,l),
(543,0,l),
(617,0,l),
(617,700,l),
(543,700,l),
(543,119,l),
(144,700,l),
(70,700,l)
);
}
);
width = 687;
},
{
hints = (
{
horizontal = 1;
place = (0,54);
type = Stem;
},
{
horizontal = 1;
place = (0,21);
target = up;
type = BottomGhost;
},
{
horizontal = 1;
place = (645,54);
type = Stem;
},
{
horizontal = 1;
place = (699,-20);
target = down;
type = TopGhost;
},
{
place = (74,40);
type = Stem;
},
{
place = (563,40);
type = Stem;
}
);
layerId = "3FC04E8D-38CC-44E9-A58D-856391625EC6";
shapes = (
{
closed = 1;
nodes = (
(74,0,l),
(114,0,l),
(114,645,l),
(556,0,l),
(603,0,l),
(603,699,l),
(563,699,l),
(563,54,l),
(121,699,l),
(74,699,l)
);
}
);
width = 676;
}
);
unicode = 78;
},
{
glyphname = O;
layers = (
{
hints = (
{
horizontal = 1;
place = (-8,149);
type = Stem;
},
{
horizontal = 1;
place = (562,149);
type = Stem;
},
{
place = (49,181);
type = Stem;
},
{
place = (565,182);
type = Stem;
}
);
layerId = "F516ED7C-7F23-41BA-A2F1-1EB4B95E9343";
shapes = (
{
closed = 1;
nodes = (
(603,-8,o),
(747,140,o),
(747,351,cs),
(747,563,o),
(603,711,o),
(398,711,cs),
(193,711,o),
(49,563,o),
(49,351,cs),
(49,140,o),
(193,-8,o),
(398,-8,cs)
);
},
{
closed = 1;
nodes = (
(300,141,o),
(230,229,o),
(230,350,cs),
(230,474,o),
(300,562,o),
(398,562,cs),
(495,562,o),
(565,474,o),
(565,350,cs),
(565,229,o),
(495,141,o),
(398,141,cs)
);
}
);
width = 796;
},
{
hints = (
{
horizontal = 1;
place = (-8,69);
type = Stem;
},
{
horizontal = 1;
place = (639,69);
type = Stem;
},
{
place = (60,76);
type = Stem;
},
{
place = (636,76);
type = Stem;
}
);
layerId = "8B72E089-1E16-4D07-A0B8-3936BD35683A";
shapes = (
{
closed = 1;
nodes = (
(577,-8,o),
(712,140,o),
(712,350,cs),
(712,560,o),
(577,708,o),
(386,708,cs),
(195,708,o),
(60,560,o),
(60,350,cs),
(60,140,o),
(195,-8,o),
(386,-8,cs)
);
},
{
closed = 1;
nodes = (
(239,61,o),
(136,176,o),
(136,349,cs),
(136,522,o),
(239,639,o),
(386,639,cs),
(533,639,o),
(636,522,o),
(636,349,cs),
(636,176,o),
(533,61,o),
(386,61,cs)
);
}
);
width = 772;
},
{
hints = (
{
horizontal = 1;
place = (-8,38);
type = Stem;
},
{
horizontal = 1;
place = (669,38);
type = Stem;
},
{
place = (64,41);
type = Stem;
},
{
place = (660,41);
type = Stem;
}
);
layerId = "3FC04E8D-38CC-44E9-A58D-856391625EC6";
shapes = (
{
closed = 1;
nodes = (
(569,-8,o),
(701,140,o),
(701,350,cs),
(701,559,o),
(569,707,o),
(382,707,cs),
(196,707,o),
(64,559,o),
(64,350,cs),
(64,140,o),
(196,-8,o),
(382,-8,cs)
);
},
{
closed = 1;
nodes = (
(219,30,o),
(105,157,o),
(105,349,cs),
(105,540,o),
(219,669,o),
(382,669,cs),
(546,669,o),
(660,540,o),
(660,349,cs),
(660,157,o),
(546,30,o),
(382,30,cs)
);
}
);
width = 764;
}
);
unicode = 79;
},
{
glyphname = P;
layers = (
{
hints = (
{
horizontal = 1;
place = (0,21);
target = up;
type = BottomGhost;
},
{
horizontal = 1;
place = (229,140);
type = Stem;
},
{
horizontal = 1;
place = (563,140);
type = Stem;
},
{
place = (58,180);
type = Stem;
},
{
place = (418,186);
type = Stem;
}
);
layerId = "F516ED7C-7F23-41BA-A2F1-1EB4B95E9343";
shapes = (
{
closed = 1;
nodes = (
(238,229,l),
(341,229,ls),
(691,229,o),
(691,703,o),
(341,703,cs),
(58,703,l),
(58,0,l),
(238,0,l)
);
},
{
closed = 1;
nodes = (
(238,369,l),
(238,563,l),
(316,563,ls),
(452,563,o),
(452,369,o),
(316,369,cs)
);
}
);
width = 634;
},
{
hints = (
{
horizontal = 1;
place = (0,21);
target = up;
type = BottomGhost;
},
{
horizontal = 1;
place = (266,67);
type = Stem;
},
{
horizontal = 1;
place = (633,67);
type = Stem;
},
{
place = (70,74);
type = Stem;
},
{
place = (477,76);
type = Stem;
}
);
layerId = "8B72E089-1E16-4D07-A0B8-3936BD35683A";
shapes = (
{
closed = 1;
nodes = (
(144,266,l),
(323,266,ls),
(630,266,o),
(630,700,o),
(323,700,cs),
(70,700,l),
(70,0,l),
(144,0,l)
);
},
{
closed = 1;
nodes = (
(144,333,l),
(144,633,l),
(317,633,ls),
(530,633,o),
(530,333,o),
(317,333,cs)
);
}
);
width = 593;
},
{
hints = (
{
horizontal = 1;
place = (0,21);
target = up;
type = BottomGhost;
},
{
horizontal = 1;
place = (285,35);
type = Stem;
},
{
horizontal = 1;
place = (664,35);
type = Stem;
},
{
place = (74,39);
type = Stem;
},
{
place = (494,43);
type = Stem;
}
);
layerId = "3FC04E8D-38CC-44E9-A58D-856391625EC6";
shapes = (
{
closed = 1;
nodes = (
(113,285,l),
(317,285,ls),
(610,285,o),
(610,699,o),
(317,699,cs),
(74,699,l),
(74,0,l),
(113,0,l)
);
},
{
closed = 1;
nodes = (
(113,320,l),
(113,664,l),
(311,664,ls),
(555,664,o),
(555,320,o),
(311,320,cs)
);
}
);
width = 580;
}
);
unicode = 80;
},
{
glyphname = Q;
layers = (
{
hints = (
{
horizontal = 1;
place = (-8,149);
type = Stem;
},
{
horizontal = 1;
place = (562,149);
type = Stem;
},
{
place = (49,181);
type = Stem;
},
{
place = (565,182);
type = Stem;
}
);
layerId = "F516ED7C-7F23-41BA-A2F1-1EB4B95E9343";
shapes = (
{
closed = 1;
nodes = (
(556,-54,l),
(740,-54,l),
(640,84,l),
(707,147,o),
(747,240,o),
(747,351,cs),
(747,563,o),
(603,711,o),
(398,711,cs),
(193,711,o),
(49,563,o),
(49,351,cs),
(49,140,o),
(193,-8,o),
(398,-8,cs),
(438,-8,o),
(476,-2,o),
(511,8,c)
);
},
{
closed = 1;
nodes = (
(300,141,o),
(230,229,o),
(230,350,cs),
(230,474,o),
(300,562,o),
(398,562,cs),
(495,562,o),
(565,474,o),
(565,350,cs),
(565,303,o),
(555,261,o),
(536,228,c),
(506,269,l),
(322,269,l),
(414,142,l),
(409,141,o),
(403,141,o),
(398,141,cs)
);
}
);
width = 796;
},
{
hints = (
{
horizontal = 1;
place = (-8,69);
type = Stem;
},
{
horizontal = 1;
place = (639,69);
type = Stem;
},
{
place = (60,76);
type = Stem;
},
{
place = (636,76);
type = Stem;
}
);
layerId = "8B72E089-1E16-4D07-A0B8-3936BD35683A";
shapes = (
{
closed = 1;
nodes = (
(601,-60,l),
(685,-60,l),
(594,66,l),
(668,130,o),
(712,230,o),
(712,350,cs),
(712,560,o),
(577,708,o),
(386,708,cs),
(195,708,o),
(60,560,o),
(60,350,cs),
(60,140,o),
(195,-8,o),
(386,-8,cs),
(442,-8,o),
(493,5,o),
(537,28,c)
);
},
{
closed = 1;
nodes = (
(239,61,o),
(136,176,o),
(136,349,cs),
(136,522,o),
(239,639,o),
(386,639,cs),
(533,639,o),
(636,522,o),
(636,349,cs),
(636,253,o),
(604,175,o),
(551,125,c),
(485,216,l),
(401,216,l),
(495,86,l),
(463,70,o),
(426,61,o),
(386,61,cs)
);
}
);
width = 772;
},
{
hints = (
{
horizontal = 1;
place = (-8,38);
type = Stem;
},
{
horizontal = 1;
place = (669,38);
type = Stem;
},
{
place = (64,41);
type = Stem;
},
{
place = (660,41);
type = Stem;
}
);
layerId = "3FC04E8D-38CC-44E9-A58D-856391625EC6";
shapes = (
{
closed = 1;
nodes = (
(616,-62,l),
(667,-62,l),
(578,60,l),
(655,123,o),
(701,226,o),
(701,350,cs),
(701,559,o),
(569,707,o),
(382,707,cs),
(196,707,o),
(64,559,o),
(64,350,cs),
(64,140,o),
(196,-8,o),
(382,-8,cs),
(443,-8,o),
(498,8,o),
(545,36,c)
);
},
{
closed = 1;
nodes = (
(219,30,o),
(105,157,o),
(105,349,cs),
(105,540,o),
(219,669,o),
(382,669,cs),
(546,669,o),
(660,540,o),
(660,349,cs),
(660,237,o),
(621,147,o),
(556,91,c),
(478,199,l),
(427,199,l),
(522,67,l),
(482,43,o),
(435,30,o),
(382,30,cs)
);
}
);
width = 764;
}
);
unicode = 81;
},
{
glyphname = R;
layers = (
{
hints = (
{
horizontal = 1;
place = (0,21);
target = up;
type = BottomGhost;
},
{
horizontal = 1;
place = (256,136);
type = Stem;
},
{
horizontal = 1;
place = (568,135);
type = Stem;
},
{
place = (58,180);
type = Stem;
},
{
place = (428,185);
type = Stem;
}
);
layerId = "F516ED7C-7F23-41BA-A2F1-1EB4B95E9343";
shapes = (
{
closed = 1;
nodes = (
(460,0,l),
(658,0,l),
(493,282,l),
(687,378,o),
(646,703,o),
(371,703,cs),
(58,703,l),
(58,0,l),
(238,0,l),
(238,256,l),
(312,256,l)
);
},
{
closed = 1;
nodes = (
(238,392,l),
(238,568,l),
(348,568,ls),
(455,568,o),
(455,392,o),
(348,392,cs)
);
}
);
width = 638;
},
{
hints = (
{
horizontal = 1;
place = (0,21);
target = up;
type = BottomGhost;
},
{
horizontal = 1;
place = (286,67);
type = Stem;
},
{
horizontal = 1;
place = (633,67);
type = Stem;
},
{
place = (70,74);
type = Stem;
},
{
place = (466,76);
type = Stem;
}
);
layerId = "8B72E089-1E16-4D07-A0B8-3936BD35683A";
shapes = (
{
closed = 1;
nodes = (
(496,0,l),
(582,0,l),
(396,293,l),
(610,349,o),
(590,700,o),
(335,700,cs),
(70,700,l),
(70,0,l),
(144,0,l),
(144,286,l),
(313,286,l)
);
},
{
closed = 1;
nodes = (
(144,353,l),
(144,633,l),
(329,633,ls),
(512,633,o),
(512,353,o),
(329,353,cs)
);
}
);
width = 597;
},
{
hints = (
{
horizontal = 1;
place = (0,21);
target = up;
type = BottomGhost;
},
{
horizontal = 1;
place = (300,35);
type = Stem;
},
{
horizontal = 1;
place = (664,35);
type = Stem;
},
{
place = (74,39);
type = Stem;
},
{
place = (485,41);
type = Stem;
}
);
layerId = "3FC04E8D-38CC-44E9-A58D-856391625EC6";
shapes = (
{
closed = 1;
nodes = (
(508,0,l),
(557,0,l),
(366,303,l),
(591,337,o),
(580,699,o),
(330,699,cs),
(74,699,l),
(74,0,l),
(113,0,l),
(113,300,l),
(317,300,l)
);
},
{
closed = 1;
nodes = (
(113,335,l),
(113,664,l),
(323,664,ls),
(539,664,o),
(539,335,o),
(323,335,cs)
);
}
);
width = 584;
}
);
unicode = 82;
},
{
glyphname = S;
layers = (
{
hints = (
{
horizontal = 1;
place = (-8,141);
type = Stem;
},
{
horizontal = 1;
place = (569,142);
type = Stem;
},
{
place = (77,181);
type = Stem;
},
{
place = (435,182);
type = Stem;
}
);
layerId = "F516ED7C-7F23-41BA-A2F1-1EB4B95E9343";
shapes = (
{
closed = 1;
nodes = (
(181,711,o),
(77,626,o),
(77,502,cs),
(77,369,o),
(195,323,o),
(307,290,cs),
(393,264,o),
(435,250,o),
(435,203,cs),
(435,159,o),
(400,133,o),
(342,133,cs),
(278,133,o),
(230,165,o),
(200,253,c),
(48,201,l),
(71,83,o),
(182,-8,o),
(344,-8,cs),
(499,-8,o),
(617,75,o),
(617,209,cs),
(617,358,o),
(476,406,o),
(372,438,cs),
(272,468,o),
(258,488,o),
(258,516,cs),
(258,544,o),
(284,569,o),
(335,569,cs),
(386,569,o),
(425,543,o),
(447,483,c),
(602,534,l),
(583,627,o),
(470,711,o),
(325,711,cs)
);
}
);
width = 656;
},
{
hints = (
{
horizontal = 1;
place = (-10,69);
type = Stem;
},
{
horizontal = 1;
place = (639,69);
type = Stem;
},
{
place = (82,76);
type = Stem;
},
{
place = (491,76);
type = Stem;
}
);
layerId = "8B72E089-1E16-4D07-A0B8-3936BD35683A";
shapes = (
{
closed = 1;
nodes = (
(173,708,o),
(82,635,o),
(82,521,cs),
(82,402,o),
(182,365,o),
(299,331,cs),
(403,301,o),
(491,274,o),
(491,187,cs),
(491,109,o),
(420,59,o),
(327,59,cs),
(223,59,o),
(144,121,o),
(115,223,c),
(44,198,l),
(82,70,o),
(190,-10,o),
(328,-10,cs),
(466,-10,o),
(567,69,o),
(567,190,cs),
(567,323,o),
(445,359,o),
(333,392,cs),
(233,421,o),
(158,445,o),
(158,524,cs),
(158,595,o),
(218,639,o),
(307,639,cs),
(389,639,o),
(459,602,o),
(483,520,c),
(554,545,l),
(519,645,o),
(423,708,o),
(303,708,cs)
);
}
);
width = 617;
},
{
hints = (
{
horizontal = 1;
place = (-11,40);
type = Stem;
},
{
horizontal = 1;
place = (668,39);
type = Stem;
},
{
place = (87,41);
type = Stem;
},
{
place = (510,41);
type = Stem;
}
);
layerId = "3FC04E8D-38CC-44E9-A58D-856391625EC6";
shapes = (
{
closed = 1;
nodes = (
(173,707,o),
(87,638,o),
(87,527,cs),
(87,412,o),
(180,379,o),
(298,345,cs),
(407,313,o),
(510,281,o),
(510,179,cs),
(510,89,o),
(427,29,o),
(321,29,cs),
(205,29,o),
(116,104,o),
(87,213,c),
(43,197,l),
(86,66,o),
(193,-11,o),
(322,-11,cs),
(455,-11,o),
(551,67,o),
(551,189,cs),
(551,314,o),
(436,345,o),
(322,379,cs),
(223,408,o),
(128,432,o),
(128,529,cs),
(128,615,o),
(199,669,o),
(301,668,cs),
(393,667,o),
(473,627,o),
(495,536,c),
(538,552,l),
(498,653,o),
(409,707,o),
(297,707,cs)
);
}
);
width = 604;
}
);
unicode = 83;
},
{
glyphname = T;
layers = (
{
hints = (
{
horizontal = 1;
place = (0,21);
target = up;
type = BottomGhost;
},
{
horizontal = 1;
place = (569,134);
type = Stem;
},
{
place = (237,180);
type = Stem;
}
);
layerId = "F516ED7C-7F23-41BA-A2F1-1EB4B95E9343";
shapes = (
{
closed = 1;
nodes = (
(237,0,l),
(417,0,l),
(417,569,l),
(622,569,l),
(622,703,l),
(31,703,l),
(31,569,l),
(237,569,l)
);
}
);
width = 653;
},
{
hints = (
{
horizontal = 1;
place = (0,21);
target = up;
type = BottomGhost;
},
{
horizontal = 1;
place = (634,66);
type = Stem;
},
{
place = (270,74);
type = Stem;
}
);
layerId = "8B72E089-1E16-4D07-A0B8-3936BD35683A";
shapes = (
{
closed = 1;
nodes = (
(270,0,l),
(344,0,l),
(344,634,l),
(574,634,l),
(574,700,l),
(40,700,l),
(40,634,l),
(270,634,l)
);
}
);
width = 614;
},
{
hints = (
{
horizontal = 1;
place = (0,21);
target = up;
type = BottomGhost;
},
{
horizontal = 1;
place = (665,35);
type = Stem;
},
{
place = (281,39);
type = Stem;
}
);
layerId = "3FC04E8D-38CC-44E9-A58D-856391625EC6";
shapes = (
{
closed = 1;
nodes = (
(281,0,l),
(320,0,l),
(320,665,l),
(558,665,l),
(558,700,l),
(43,700,l),
(43,665,l),
(281,665,l)
);
}
);
width = 601;
}
);
unicode = 84;
},
{
glyphname = U;
layers = (
{
hints = (
{
horizontal = 1;
place = (-7,157);
type = Stem;
},
{
horizontal = 1;
place = (703,-20);
target = down;
type = TopGhost;
},
{
place = (53,180);
type = Stem;
},
{
place = (458,180);
type = Stem;
}
);
layerId = "F516ED7C-7F23-41BA-A2F1-1EB4B95E9343";
shapes = (
{
closed = 1;
nodes = (
(53,280,ls),
(53,92,o),
(198,-7,o),
(346,-7,cs),
(493,-7,o),
(638,92,o),
(638,280,cs),
(638,703,l),
(458,703,l),
(458,295,ls),
(458,188,o),
(406,150,o),
(346,150,cs),
(286,150,o),
(233,188,o),
(233,295,cs),
(233,703,l),
(53,703,l)
);
}
);
width = 691;
},
{
hints = (
{
horizontal = 1;
place = (-7,67);
type = Stem;
},
{
horizontal = 1;
place = (700,-20);
target = down;
type = TopGhost;
},
{
place = (65,74);
type = Stem;
},
{
place = (517,74);
type = Stem;
}
);
layerId = "8B72E089-1E16-4D07-A0B8-3936BD35683A";
shapes = (
{
closed = 1;
nodes = (
(65,270,ls),
(65,85,o),
(197,-7,o),
(328,-7,cs),
(460,-7,o),
(591,85,o),
(591,270,cs),
(591,700,l),
(517,700,l),
(517,279,ls),
(517,133,o),
(423,60,o),
(328,60,cs),
(234,60,o),
(139,133,o),
(139,279,cs),
(139,700,l),
(65,700,l)
);
}
);
width = 656;
},
{
hints = (
{
horizontal = 1;
place = (-7,35);
type = Stem;
},
{
horizontal = 1;
place = (699,-20);
target = down;
type = TopGhost;
},
{
place = (69,39);
type = Stem;
},
{
place = (537,39);
type = Stem;
}
);
layerId = "3FC04E8D-38CC-44E9-A58D-856391625EC6";
shapes = (
{
closed = 1;
nodes = (
(69,267,ls),
(69,83,o),
(197,-7,o),
(322,-7,cs),
(449,-7,o),
(576,83,o),
(576,267,cs),
(576,699,l),
(537,699,l),
(537,270,ls),
(537,113,o),
(429,28,o),
(322,28,cs),
(217,28,o),
(108,113,o),
(108,270,cs),
(108,699,l),
(69,699,l)
);
}
);
width = 645;
}
);
unicode = 85;
},
{
glyphname = V;
layers = (
{
hints = (
{
horizontal = 1;
place = (0,21);
target = up;
type = BottomGhost;
},
{
horizontal = 1;
place = (703,-20);
target = down;
type = TopGhost;
},
{
place = (9,733);
type = Stem;
}
);
layerId = "F516ED7C-7F23-41BA-A2F1-1EB4B95E9343";
shapes = (
{
closed = 1;
nodes = (
(742,703,l),
(557,703,l),
(376,214,l),
(194,703,l),
(9,703,l),
(285,0,l),
(467,0,l)
);
}
);
width = 751;
},
{
hints = (
{
horizontal = 1;
place = (0,68);
type = Stem;
},
{
horizontal = 1;
place = (0,21);
target = up;
type = BottomGhost;
},
{
horizontal = 1;
place = (700,-20);
target = down;
type = TopGhost;
},
{
place = (35,645);
type = Stem;
}
);
layerId = "8B72E089-1E16-4D07-A0B8-3936BD35683A";
shapes = (
{
closed = 1;
nodes = (
(680,700,l),
(604,700,l),
(358,68,l),
(111,700,l),
(35,700,l),
(309,0,l),
(406,0,l)
);
}
);
width = 715;
},
{
hints = (
{
horizontal = 1;
place = (0,46);
type = Stem;
},
{
horizontal = 1;
place = (699,-20);
target = down;
type = TopGhost;
},
{
place = (44,616);
type = Stem;
}
);
layerId = "3FC04E8D-38CC-44E9-A58D-856391625EC6";
shapes = (
{
closed = 1;
nodes = (
(660,699,l),
(620,699,l),
(352,46,l),
(84,699,l),
(44,699,l),
(327,0,l),
(376,0,l)
);
}
);
width = 703;
}
);
unicode = 86;
},
{
glyphname = W;
layers = (
{
hints = (
{
horizontal = 1;
place = (0,21);
target = up;
type = BottomGhost;
},
{
horizontal = 1;
place = (703,-20);
target = down;
type = TopGhost;
},
{
place = (9,976);
type = Stem;
}
);
layerId = "F516ED7C-7F23-41BA-A2F1-1EB4B95E9343";
shapes = (
{
closed = 1;
nodes = (
(398,0,l),
(497,460,l),
(596,0,l),
(769,0,l),
(985,703,l),
(801,703,l),
(686,226,l),
(586,703,l),
(409,703,l),
(306,231,l),
(193,703,l),
(9,703,l),
(225,0,l)
);
}
);
width = 994;
},
{
hints = (
{
horizontal = 1;
place = (0,96);
type = Stem;
},
{
horizontal = 1;
place = (0,21);
target = up;
type = BottomGhost;
},
{
horizontal = 1;
place = (587,113);
type = Stem;
},
{
horizontal = 1;
place = (700,-20);
target = down;
type = TopGhost;
},
{
place = (35,915);
type = Stem;
}
);
layerId = "8B72E089-1E16-4D07-A0B8-3936BD35683A";
shapes = (
{
closed = 1;
nodes = (
(334,0,l),
(493,587,l),
(651,0,l),
(736,0,l),
(950,700,l),
(874,700,l),
(695,96,l),
(534,700,l),
(451,700,l),
(290,96,l),
(111,700,l),
(35,700,l),
(249,0,l)
);
}
);
width = 985;
},
{
hints = (
{
horizontal = 1;
place = (0,42);
type = Stem;
},
{
horizontal = 1;
place = (639,60);
type = Stem;
},
{
horizontal = 1;
place = (699,-20);
target = down;
type = TopGhost;
},
{
place = (44,895);
type = Stem;
}
);
layerId = "3FC04E8D-38CC-44E9-A58D-856391625EC6";
shapes = (
{
closed = 1;
nodes = (
(313,0,l),
(492,639,l),
(669,0,l),
(725,0,l),
(939,699,l),
(898,699,l),
(698,43,l),
(513,699,l),
(470,699,l),
(285,42,l),
(84,699,l),
(44,699,l),
(257,0,l)
);
}
);
width = 982;
}
);
unicode = 87;
},
{
glyphname = X;
layers = (
{
hints = (
{
horizontal = 1;
place = (0,21);
target = up;
type = BottomGhost;
},
{
horizontal = 1;
place = (703,-20);
target = down;
type = TopGhost;
},
{
place = (-10,724);
type = Stem;
}
);
layerId = "F516ED7C-7F23-41BA-A2F1-1EB4B95E9343";
shapes = (
{
closed = 1;
nodes = (
(254,364,l),
(-10,0,l),
(190,0,l),
(350,229,l),
(510,0,l),
(714,0,l),
(447,365,l),
(693,703,l),
(493,703,l),
(351,502,l),
(211,703,l),
(7,703,l)
);
}
);
width = 704;
},
{
hints = (
{
horizontal = 1;
place = (0,21);
target = up;
type = BottomGhost;
},
{
horizontal = 1;
place = (700,-20);
target = down;
type = TopGhost;
},
{
place = (31,607);
type = Stem;
}
);
layerId = "8B72E089-1E16-4D07-A0B8-3936BD35683A";
shapes = (
{
closed = 1;
nodes = (
(295,364,l),
(31,0,l),
(116,0,l),
(334,311,l),
(551,0,l),
(638,0,l),
(373,365,l),
(616,700,l),
(531,700,l),
(335,419,l),
(138,700,l),
(51,700,l)
);
}
);
width = 669;
},
{
hints = (
{
horizontal = 1;
place = (0,21);
target = up;
type = BottomGhost;
},
{
horizontal = 1;
place = (699,-20);
target = down;
type = TopGhost;
},
{
place = (45,568);
type = Stem;
}
);
layerId = "3FC04E8D-38CC-44E9-A58D-856391625EC6";
shapes = (
{
closed = 1;
nodes = (
(307,364,l),
(45,0,l),
(92,0,l),
(329,335,l),
(565,0,l),
(613,0,l),
(351,365,l),
(591,699,l),
(544,699,l),
(330,395,l),
(114,699,l),
(66,699,l)
);
}
);
width = 658;
}
);
unicode = 88;
},
{
glyphname = Y;
layers = (
{
hints = (
{
horizontal = 1;
place = (0,21);
target = up;
type = BottomGhost;
},
{
horizontal = 1;
place = (703,-20);
target = down;
type = TopGhost;
},
{
place = (248,178);
type = Stem;
}
);
layerId = "F516ED7C-7F23-41BA-A2F1-1EB4B95E9343";
shapes = (
{
closed = 1;
nodes = (
(248,269,l),
(248,0,l),
(426,0,l),
(426,269,l),
(681,703,l),
(485,703,l),
(336,420,l),
(188,703,l),
(-8,703,l)
);
}
);
width = 673;
},
{
hints = (
{
horizontal = 1;
place = (0,21);
target = up;
type = BottomGhost;
},
{
horizontal = 1;
place = (700,-20);
target = down;
type = TopGhost;
},
{
place = (281,74);
type = Stem;
}
);
layerId = "8B72E089-1E16-4D07-A0B8-3936BD35683A";
shapes = (
{
closed = 1;
nodes = (
(281,265,l),
(281,0,l),
(355,0,l),
(355,265,l),
(610,700,l),
(526,700,l),
(318,336,l),
(109,700,l),
(25,700,l)
);
}
);
width = 635;
},
{
hints = (
{
horizontal = 1;
place = (0,21);
target = up;
type = BottomGhost;
},
{
horizontal = 1;
place = (699,-20);
target = down;
type = TopGhost;
},
{
place = (292,40);
type = Stem;
}
);
layerId = "3FC04E8D-38CC-44E9-A58D-856391625EC6";
shapes = (
{
closed = 1;
nodes = (
(292,264,l),
(292,0,l),
(332,0,l),
(332,264,l),
(587,699,l),
(540,699,l),
(312,305,l),
(83,699,l),
(36,699,l)
);
}
);
width = 623;
}
);
unicode = 89;
},
{
glyphname = Z;
layers = (
{
hints = (
{
horizontal = 1;
place = (0,136);
type = Stem;
},
{
horizontal = 1;
place = (569,134);
type = Stem;
},
{
place = (31,560);
type = Stem;
}
);
layerId = "F516ED7C-7F23-41BA-A2F1-1EB4B95E9343";
shapes = (
{
closed = 1;
nodes = (
(31,104,l),
(31,0,l),
(591,0,l),
(591,136,l),
(251,136,l),
(573,599,l),
(573,703,l),
(49,703,l),
(49,569,l),
(352,569,l)
);
}
);
width = 622;
},
{
hints = (
{
horizontal = 1;
place = (0,66);
type = Stem;
},
{
horizontal = 1;
place = (634,66);
type = Stem;
},
{
place = (40,498);
type = Stem;
}
);
layerId = "8B72E089-1E16-4D07-A0B8-3936BD35683A";
shapes = (
{
closed = 1;
nodes = (
(40,66,l),
(40,0,l),
(538,0,l),
(538,66,l),
(124,66,l),
(518,634,l),
(518,700,l),
(60,700,l),
(60,634,l),
(434,634,l)
);
}
);
width = 578;
},
{
hints = (
{
horizontal = 1;
place = (0,35);
type = Stem;
},
{
horizontal = 1;
place = (664,35);
type = Stem;
},
{
place = (43,39);
type = Stem;
},
{
place = (461,39);
type = Stem;
}
);
layerId = "3FC04E8D-38CC-44E9-A58D-856391625EC6";
shapes = (
{
closed = 1;
nodes = (
(43,46,l),
(43,0,l),
(521,0,l),
(521,35,l),
(82,35,l),
(500,654,l),
(500,699,l),
(64,699,l),
(64,664,l),
(461,664,l)
);
}
);
width = 564;
}
);
unicode = 90;
},
{
glyphname = bracketleft;
layers = (
{
hints = (
{
horizontal = 1;
place = (-180,136);
type = Stem;
},
{
horizontal = 1;
place = (569,134);
type = Stem;
},
{
place = (58,178);
type = Stem;
}
);
layerId = "F516ED7C-7F23-41BA-A2F1-1EB4B95E9343";
shapes = (
{
closed = 1;
nodes = (
(58,-180,l),
(385,-180,l),
(385,-44,l),
(236,-44,l),
(236,569,l),
(385,569,l),
(385,703,l),
(58,703,l)
);
}
);
width = 407;
},
{
hints = (
{
horizontal = 1;
place = (-200,66);
type = Stem;
},
{
horizontal = 1;
place = (634,66);
type = Stem;
},
{
place = (70,74);
type = Stem;
}
);
layerId = "8B72E089-1E16-4D07-A0B8-3936BD35683A";
shapes = (
{
closed = 1;
nodes = (
(70,-200,l),
(309,-200,l),
(309,-134,l),
(144,-134,l),
(144,634,l),
(309,634,l),
(309,700,l),
(70,700,l)
);
}
);
width = 339;
},
{
hints = (
{
horizontal = 1;
place = (-207,43);
type = Stem;
},
{
horizontal = 1;
place = (656,43);
type = Stem;
},
{
place = (74,40);
type = Stem;
}
);
layerId = "3FC04E8D-38CC-44E9-A58D-856391625EC6";
shapes = (
{
closed = 1;
nodes = (
(74,-207,l),
(284,-207,l),
(284,-164,l),
(114,-164,l),
(114,656,l),
(284,656,l),
(284,699,l),
(74,699,l)
);
}
);
width = 317;
}
);
unicode = 91;
},
{
glyphname = backslash;
layers = (
{
hints = (
{
horizontal = 1;
place = (703,-20);
target = down;
type = TopGhost;
},
{
place = (0,444);
type = Stem;
}
);
layerId = "F516ED7C-7F23-41BA-A2F1-1EB4B95E9343";
shapes = (
{
closed = 1;
nodes = (
(0,703,l),
(260,-180,l),
(444,-180,l),
(185,703,l)
);
}
);
width = 445;
},
{
hints = (
{
horizontal = 1;
place = (-200,21);
target = up;
type = BottomGhost;
},
{
horizontal = 1;
place = (700,-20);
target = down;
type = TopGhost;
},
{
place = (20,341);
type = Stem;
}
);
layerId = "8B72E089-1E16-4D07-A0B8-3936BD35683A";
shapes = (
{
closed = 1;
nodes = (
(20,700,l),
(284,-200,l),
(361,-200,l),
(97,700,l)
);
}
);
width = 381;
},
{
hints = (
{
horizontal = 1;
place = (-207,21);
target = up;
type = BottomGhost;
},
{
horizontal = 1;
place = (699,-20);
target = down;
type = TopGhost;
},
{
place = (27,307);
type = Stem;
}
);
layerId = "3FC04E8D-38CC-44E9-A58D-856391625EC6";
shapes = (
{
closed = 1;
nodes = (
(27,699,l),
(292,-207,l),
(334,-207,l),
(68,699,l)
);
}
);
width = 360;
}
);
unicode = 92;
},
{
glyphname = bracketright;
layers = (
{
hints = (
{
horizontal = 1;
place = (-180,136);
type = Stem;
},
{
horizontal = 1;
place = (569,134);
type = Stem;
},
{
place = (169,180);
type = Stem;
}
);
layerId = "F516ED7C-7F23-41BA-A2F1-1EB4B95E9343";
shapes = (
{
closed = 1;
nodes = (
(22,569,l),
(169,569,l),
(169,-44,l),
(22,-44,l),
(22,-180,l),
(349,-180,l),
(349,703,l),
(22,703,l)
);
}
);
width = 407;
},
{
hints = (
{
horizontal = 1;
place = (-200,66);
type = Stem;
},
{
horizontal = 1;
place = (634,66);
type = Stem;
},
{
place = (195,74);
type = Stem;
}
);
layerId = "8B72E089-1E16-4D07-A0B8-3936BD35683A";
shapes = (
{
closed = 1;
nodes = (
(30,634,l),
(195,634,l),
(195,-134,l),
(30,-134,l),
(30,-200,l),
(269,-200,l),
(269,700,l),
(30,700,l)
);
}
);
width = 339;
},
{
hints = (
{
horizontal = 1;
place = (-207,43);
type = Stem;
},
{
horizontal = 1;
place = (656,43);
type = Stem;
},
{
place = (204,39);
type = Stem;
}
);
layerId = "3FC04E8D-38CC-44E9-A58D-856391625EC6";
shapes = (
{
closed = 1;
nodes = (
(33,656,l),
(204,656,l),
(204,-164,l),
(33,-164,l),
(33,-207,l),
(243,-207,l),
(243,699,l),
(33,699,l)
);
}
);
width = 317;
}
);
unicode = 93;
},
{
glyphname = asciicircum;
layers = (
{
hints = (
{
horizontal = 1;
place = (703,-20);
target = down;
type = TopGhost;
},
{
place = (17,557);
type = Stem;
}
);
layerId = "F516ED7C-7F23-41BA-A2F1-1EB4B95E9343";
shapes = (
{
closed = 1;
nodes = (
(225,703,l),
(17,318,l),
(196,318,l),
(295,503,l),
(395,318,l),
(574,318,l),
(366,703,l)
);
}
);
width = 591;
},
{
hints = (
{
horizontal = 1;
place = (641,59);
type = Stem;
},
{
horizontal = 1;
place = (700,-20);
target = down;
type = TopGhost;
},
{
place = (50,444);
type = Stem;
}
);
layerId = "8B72E089-1E16-4D07-A0B8-3936BD35683A";
shapes = (
{
closed = 1;
nodes = (
(237,700,l),
(50,354,l),
(117,354,l),
(272,641,l),
(427,354,l),
(494,354,l),
(307,700,l)
);
}
);
width = 544;
},
{
hints = (
{
horizontal = 1;
place = (666,33);
type = Stem;
},
{
place = (61,407);
type = Stem;
}
);
layerId = "3FC04E8D-38CC-44E9-A58D-856391625EC6";
shapes = (
{
closed = 1;
nodes = (
(252,699,l),
(61,366,l),
(91,366,l),
(265,666,l),
(438,366,l),
(468,366,l),
(277,699,l)
);
}
);
width = 529;
}
);
unicode = 94;
},
{
glyphname = underscore;
layers = (
{
hints = (
{
horizontal = 1;
place = (-180,130);
type = Stem;
},
{
place = (-5,583);
type = Stem;
}
);
layerId = "F516ED7C-7F23-41BA-A2F1-1EB4B95E9343";
shapes = (
{
closed = 1;
nodes = (
(-5,-180,l),
(578,-180,l),
(578,-50,l),
(-5,-50,l)
);
}
);
width = 575;
},
{
hints = (
{
horizontal = 1;
place = (-200,59);
type = Stem;
},
{
place = (0,525);
type = Stem;
}
);
layerId = "8B72E089-1E16-4D07-A0B8-3936BD35683A";
shapes = (
{
closed = 1;
nodes = (
(0,-200,l),
(525,-200,l),
(525,-141,l),
(0,-141,l)
);
}
);
width = 525;
},
{
hints = (
{
horizontal = 1;
place = (-207,36);
type = Stem;
},
{
place = (2,506);
type = Stem;
}
);
layerId = "3FC04E8D-38CC-44E9-A58D-856391625EC6";
shapes = (
{
closed = 1;
nodes = (
(2,-207,l),
(508,-207,l),
(508,-171,l),
(2,-171,l)
);
}
);
width = 509;
}
);
unicode = 95;
},
{
glyphname = grave;
layers = (
{
hints = (
{
horizontal = 1;
place = (546,147);
type = Stem;
},
{
place = (-12,279);
type = Stem;
}
);
layerId = "F516ED7C-7F23-41BA-A2F1-1EB4B95E9343";
shapes = (
{
closed = 1;
nodes = (
(139,546,l),
(267,546,l),
(190,693,l),
(-12,693,l)
);
}
);
width = 310;
},
{
hints = (
{
horizontal = 1;
place = (588,120);
type = Stem;
},
{
place = (0,181);
type = Stem;
}
);
layerId = "8B72E089-1E16-4D07-A0B8-3936BD35683A";
shapes = (
{
closed = 1;
nodes = (
(121,588,l),
(181,588,l),
(93,708,l),
(0,708,l)
);
}
);
width = 231;
},
{
hints = (
{
horizontal = 1;
place = (602,111);
type = Stem;
},
{
place = (4,149);
type = Stem;
}
);
layerId = "3FC04E8D-38CC-44E9-A58D-856391625EC6";
shapes = (
{
closed = 1;
nodes = (
(115,602,l),
(153,602,l),
(61,713,l),
(4,713,l)
);
}
);
width = 205;
}
);
unicode = 96;
},
{
glyphname = a;
layers = (
{
hints = (
{
horizontal = 1;
place = (-9,128);
type = Stem;
},
{
horizontal = 1;
place = (0,21);
target = up;
type = BottomGhost;
},
{
horizontal = 1;
place = (231,91);
type = Stem;
},
{
horizontal = 1;
place = (402,130);
type = Stem;
},
{
place = (32,168);
type = Stem;
},
{
place = (333,168);
type = Stem;
}
);
layerId = "F516ED7C-7F23-41BA-A2F1-1EB4B95E9343";
shapes = (
{
closed = 1;
nodes = (
(511,0,l),
(504,44,o),
(501,76,o),
(501,162,cs),
(501,330,ls),
(501,452,o),
(411,532,o),
(284,532,cs),
(163,532,o),
(71,463,o),
(56,374,c),
(219,353,l),
(226,387,o),
(254,402,o),
(281,402,cs),
(310,402,o),
(333,380,o),
(333,350,cs),
(333,327,l),
(262,319,ls),
(122,303,o),
(32,251,o),
(32,152,cs),
(32,61,o),
(99,-9,o),
(206,-9,cs),
(258,-9,o),
(307,12,o),
(347,49,c),
(347,50,o),
(358,-1,o),
(358,0,c)
);
},
{
closed = 1;
nodes = (
(217,119,o),
(200,139,o),
(200,166,cs),
(200,200,o),
(229,223,o),
(272,228,cs),
(333,235,l),
(333,216,ls),
(333,153,o),
(298,119,o),
(249,119,cs)
);
}
);
width = 550;
},
{
hints = (
{
horizontal = 1;
place = (-9,63);
type = Stem;
},
{
horizontal = 1;
place = (0,21);
target = up;
type = BottomGhost;
},
{
horizontal = 1;
place = (445,65);
type = Stem;
},
{
place = (40,71);
type = Stem;
},
{
place = (373,71);
type = Stem;
}
);
layerId = "8B72E089-1E16-4D07-A0B8-3936BD35683A";
shapes = (
{
closed = 1;
nodes = (
(449,0,l),
(445,36,o),
(444,73,o),
(444,140,cs),
(444,326,ls),
(444,437,o),
(372,510,o),
(261,510,cs),
(164,510,o),
(91,462,o),
(66,382,c),
(135,370,l),
(152,420,o),
(198,445,o),
(261,445,cs),
(327,445,o),
(373,403,o),
(373,341,cs),
(373,311,l),
(243,296,ls),
(114,281,o),
(40,234,o),
(40,144,cs),
(40,54,o),
(113,-9,o),
(217,-9,cs),
(289,-9,o),
(339,26,o),
(373,75,c),
(376,50,o),
(381,25,o),
(388,0,c)
);
},
{
closed = 1;
nodes = (
(157,54,o),
(111,92,o),
(111,144,cs),
(111,199,o),
(161,229,o),
(242,239,cs),
(373,255,l),
(373,201,ls),
(373,115,o),
(316,54,o),
(223,54,cs)
);
}
);
width = 504;
},
{
hints = (
{
horizontal = 1;
place = (-9,32);
type = Stem;
},
{
horizontal = 1;
place = (0,21);
target = up;
type = BottomGhost;
},
{
horizontal = 1;
place = (465,39);
type = Stem;
},
{
place = (43,39);
type = Stem;
},
{
place = (387,39);
type = Stem;
}
);
layerId = "3FC04E8D-38CC-44E9-A58D-856391625EC6";
shapes = (
{
closed = 1;
nodes = (
(429,0,l),
(426,33,o),
(426,72,o),
(426,134,cs),
(426,325,ls),
(426,433,o),
(360,504,o),
(254,504,cs),
(166,504,o),
(97,462,o),
(70,385,c),
(109,378,l),
(130,438,o),
(181,465,o),
(255,465,cs),
(333,465,o),
(387,415,o),
(387,340,cs),
(387,303,l),
(238,286,ls),
(111,272,o),
(43,230,o),
(43,135,cs),
(43,52,o),
(110,-9,o),
(221,-9,cs),
(303,-9,o),
(352,28,o),
(384,77,c),
(388,46,o),
(389,31,o),
(398,0,c)
);
},
{
closed = 1;
nodes = (
(131,23,o),
(82,73,o),
(82,138,cs),
(82,206,o),
(139,242,o),
(232,253,cs),
(387,271,l),
(387,197,ls),
(387,97,o),
(323,23,o),
(219,23,cs)
);
}
);
width = 490;
}
);
unicode = 97;
},
{
glyphname = b;
layers = (
{
hints = (
{
horizontal = 1;
place = (-8,127);
type = Stem;
},
{
horizontal = 1;
place = (0,119);
type = Stem;
},
{
horizontal = 1;
place = (402,130);
type = Stem;
},
{
horizontal = 1;
place = (703,-20);
target = down;
type = TopGhost;
},
{
place = (50,167);
type = Stem;
},
{
place = (396,170);
type = Stem;
}
);
layerId = "F516ED7C-7F23-41BA-A2F1-1EB4B95E9343";
shapes = (
{
closed = 1;
nodes = (
(217,703,l),
(50,703,l),
(50,162,ls),
(50,105,o),
(45,30,o),
(39,0,c),
(194,0,l),
(195,11,o),
(198,40,o),
(201,70,c),
(224,24,o),
(293,-8,o),
(358,-8,cs),
(479,-8,o),
(566,104,o),
(566,262,cs),
(566,420,o),
(479,532,o),
(358,532,cs),
(304,532,o),
(244,501,o),
(217,461,c)
);
},
{
closed = 1;
nodes = (
(217,278,ls),
(217,361,o),
(253,402,o),
(304,402,cs),
(359,402,o),
(396,347,o),
(396,262,cs),
(396,173,o),
(359,119,o),
(304,119,cs),
(251,119,o),
(217,163,o),
(217,248,cs)
);
}
);
width = 596;
},
{
hints = (
{
horizontal = 1;
place = (-10,63);
type = Stem;
},
{
horizontal = 1;
place = (0,21);
target = up;
type = BottomGhost;
},
{
horizontal = 1;
place = (445,65);
type = Stem;
},
{
horizontal = 1;
place = (700,-20);
target = down;
type = TopGhost;
},
{
place = (60,71);
type = Stem;
},
{
place = (444,71);
type = Stem;
}
);
layerId = "8B72E089-1E16-4D07-A0B8-3936BD35683A";
shapes = (
{
closed = 1;
nodes = (
(131,700,l),
(60,700,l),
(60,140,ls),
(60,73,o),
(59,36,o),
(55,0,c),
(116,0,l),
(122,22,o),
(128,53,o),
(131,75,c),
(170,26,o),
(228,-10,o),
(296,-10,cs),
(425,-10,o),
(515,98,o),
(515,251,cs),
(515,403,o),
(425,510,o),
(296,510,cs),
(230,510,o),
(171,482,o),
(131,431,c)
);
},
{
closed = 1;
nodes = (
(131,269,ls),
(131,361,o),
(185,445,o),
(282,445,cs),
(383,445,o),
(444,370,o),
(444,251,cs),
(444,130,o),
(383,53,o),
(282,53,cs),
(189,53,o),
(131,139,o),
(131,236,cs)
);
}
);
width = 555;
},
{
hints = (
{
horizontal = 1;
place = (-11,37);
type = Stem;
},
{
horizontal = 1;
place = (0,21);
target = up;
type = BottomGhost;
},
{
horizontal = 1;
place = (467,37);
type = Stem;
},
{
horizontal = 1;
place = (699,-20);
target = down;
type = TopGhost;
},
{
place = (64,39);
type = Stem;
},
{
place = (459,40);
type = Stem;
}
);
layerId = "3FC04E8D-38CC-44E9-A58D-856391625EC6";
shapes = (
{
closed = 1;
nodes = (
(103,699,l),
(64,699,l),
(64,134,ls),
(64,63,o),
(64,38,o),
(60,0,c),
(91,0,l),
(95,36,o),
(99,79,o),
(101,106,c),
(134,40,o),
(190,-11,o),
(276,-11,cs),
(403,-11,o),
(499,94,o),
(499,247,cs),
(499,396,o),
(405,504,o),
(276,504,cs),
(202,504,o),
(146,469,o),
(103,398,c)
);
},
{
closed = 1;
nodes = (
(103,267,ls),
(103,365,o),
(157,467,o),
(276,467,cs),
(385,467,o),
(459,385,o),
(459,248,cs),
(459,117,o),
(384,26,o),
(276,26,cs),
(162,26,o),
(103,129,o),
(103,232,cs)
);
}
);
width = 542;
}
);
unicode = 98;
},
{
glyphname = c;
layers = (
{
hints = (
{
horizontal = 1;
place = (-8,130);
type = Stem;
},
{
horizontal = 1;
place = (402,130);
type = Stem;
},
{
place = (32,168);
type = Stem;
}
);
layerId = "F516ED7C-7F23-41BA-A2F1-1EB4B95E9343";
shapes = (
{
closed = 1;
nodes = (
(32,103,o),
(143,-8,o),
(298,-8,cs),
(441,-8,o),
(539,90,o),
(552,155,c),
(391,197,l),
(376,152,o),
(337,122,o),
(298,122,cs),
(238,122,o),
(200,175,o),
(200,262,cs),
(200,347,o),
(238,402,o),
(298,402,cs),
(340,402,o),
(377,371,o),
(389,323,c),
(552,366,l),
(538,434,o),
(441,532,o),
(298,532,cs),
(143,532,o),
(32,422,o),
(32,262,cs)
);
}
);
width = 570;
},
{
hints = (
{
horizontal = 1;
place = (-8,65);
type = Stem;
},
{
horizontal = 1;
place = (445,65);
type = Stem;
},
{
place = (40,71);
type = Stem;
}
);
layerId = "8B72E089-1E16-4D07-A0B8-3936BD35683A";
shapes = (
{
closed = 1;
nodes = (
(40,99,o),
(137,-8,o),
(276,-8,cs),
(384,-8,o),
(465,55,o),
(493,152,c),
(424,164,l),
(403,96,o),
(350,57,o),
(276,57,cs),
(176,57,o),
(111,132,o),
(111,251,cs),
(111,370,o),
(176,445,o),
(276,445,cs),
(350,445,o),
(404,404,o),
(424,334,c),
(493,346,l),
(465,445,o),
(384,510,o),
(276,510,cs),
(137,510,o),
(40,403,o),
(40,251,cs)
);
}
);
width = 526;
},
{
hints = (
{
horizontal = 1;
place = (-8,35);
type = Stem;
},
{
horizontal = 1;
place = (468,36);
type = Stem;
},
{
place = (43,39);
type = Stem;
}
);
layerId = "3FC04E8D-38CC-44E9-A58D-856391625EC6";
shapes = (
{
closed = 1;
nodes = (
(43,98,o),
(135,-8,o),
(270,-8,cs),
(366,-8,o),
(442,44,o),
(474,151,c),
(435,153,l),
(412,73,o),
(355,27,o),
(270,27,cs),
(156,27,o),
(82,113,o),
(82,247,cs),
(82,383,o),
(156,468,o),
(270,468,cs),
(354,468,o),
(413,420,o),
(436,338,c),
(474,340,l),
(442,449,o),
(366,504,o),
(270,504,cs),
(135,504,o),
(43,398,o),
(43,247,cs)
);
}
);
width = 512;
}
);
unicode = 99;
},
{
glyphname = d;
layers = (
{
hints = (
{
horizontal = 1;
place = (-8,127);
type = Stem;
},
{
horizontal = 1;
place = (0,119);
type = Stem;
},
{
horizontal = 1;
place = (402,130);
type = Stem;
},
{
horizontal = 1;
place = (703,-20);
target = down;
type = TopGhost;
},
{
place = (32,168);
type = Stem;
},
{
place = (380,167);
type = Stem;
}
);
layerId = "F516ED7C-7F23-41BA-A2F1-1EB4B95E9343";
shapes = (
{
closed = 1;
nodes = (
(380,461,l),
(354,501,o),
(293,532,o),
(239,532,cs),
(117,532,o),
(32,420,o),
(32,262,cs),
(32,104,o),
(117,-8,o),
(239,-8,cs),
(304,-8,o),
(372,24,o),
(397,70,c),
(400,40,o),
(403,11,o),
(403,0,c),
(557,0,l),
(552,30,o),
(547,105,o),
(547,162,cs),
(547,703,l),
(380,703,l)
);
},
{
closed = 1;
nodes = (
(380,248,ls),
(380,163,o),
(346,119,o),
(295,119,cs),
(238,119,o),
(200,173,o),
(200,262,cs),
(200,347,o),
(238,402,o),
(295,402,cs),
(346,402,o),
(380,361,o),
(380,278,cs)
);
}
);
width = 596;
},
{
hints = (
{
horizontal = 1;
place = (-10,63);
type = Stem;
},
{
horizontal = 1;
place = (0,21);
target = up;
type = BottomGhost;
},
{
horizontal = 1;
place = (445,65);
type = Stem;
},
{
horizontal = 1;
place = (700,-20);
target = down;
type = TopGhost;
},
{
place = (40,71);
type = Stem;
},
{
place = (424,71);
type = Stem;
}
);
layerId = "8B72E089-1E16-4D07-A0B8-3936BD35683A";
shapes = (
{
closed = 1;
nodes = (
(424,431,l),
(384,482,o),
(325,510,o),
(259,510,cs),
(130,510,o),
(40,403,o),
(40,251,cs),
(40,98,o),
(130,-10,o),
(259,-10,cs),
(327,-10,o),
(385,26,o),
(424,75,c),
(427,53,o),
(433,22,o),
(439,0,c),
(500,0,l),
(496,36,o),
(495,73,o),
(495,140,cs),
(495,700,l),
(424,700,l)
);
},
{
closed = 1;
nodes = (
(424,236,ls),
(424,139,o),
(366,53,o),
(273,53,cs),
(172,53,o),
(111,130,o),
(111,251,cs),
(111,370,o),
(172,445,o),
(273,445,cs),
(370,445,o),
(424,361,o),
(424,269,cs)
);
}
);
width = 555;
},
{
hints = (
{
horizontal = 1;
place = (-11,37);
type = Stem;
},
{
horizontal = 1;
place = (0,21);
target = up;
type = BottomGhost;
},
{
horizontal = 1;
place = (467,37);
type = Stem;
},
{
horizontal = 1;
place = (699,-20);
target = down;
type = TopGhost;
},
{
place = (50,39);
type = Stem;
},
{
place = (446,39);
type = Stem;
}
);
layerId = "3FC04E8D-38CC-44E9-A58D-856391625EC6";
shapes = (
{
closed = 1;
nodes = (
(446,398,l),
(403,469,o),
(347,504,o),
(273,504,cs),
(144,504,o),
(50,396,o),
(50,247,cs),
(50,94,o),
(145,-11,o),
(273,-11,cs),
(359,-11,o),
(415,40,o),
(447,106,c),
(450,79,o),
(454,36,o),
(458,0,c),
(488,0,l),
(485,38,o),
(485,63,o),
(485,134,cs),
(485,699,l),
(446,699,l)
);
},
{
closed = 1;
nodes = (
(446,232,ls),
(446,129,o),
(387,26,o),
(273,26,cs),
(165,26,o),
(89,117,o),
(89,248,cs),
(89,385,o),
(164,467,o),
(273,467,cs),
(392,467,o),
(446,365,o),
(446,267,cs)
);
}
);
width = 542;
}
);
unicode = 100;
},
{
glyphname = e;
layers = (
{
hints = (
{
horizontal = 1;
place = (-8,130);
type = Stem;
},
{
horizontal = 1;
place = (228,92);
type = Stem;
},
{
horizontal = 1;
place = (402,130);
type = Stem;
},
{
place = (32,170);
type = Stem;
},
{
place = (32,531);
type = Stem;
},
{
place = (385,178);
type = Stem;
}
);
layerId = "F516ED7C-7F23-41BA-A2F1-1EB4B95E9343";
shapes = (
{
closed = 1;
nodes = (
(32,103,o),
(141,-8,o),
(298,-8,cs),
(427,-8,o),
(524,56,o),
(552,144,c),
(398,186,l),
(379,147,o),
(339,122,o),
(298,122,cs),
(246,122,o),
(211,161,o),
(202,228,c),
(563,228,l),
(563,262,ls),
(563,420,o),
(453,532,o),
(298,532,cs),
(141,532,o),
(32,420,o),
(32,262,cs)
);
},
{
closed = 1;
nodes = (
(346,402,o),
(380,369,o),
(385,320,c),
(207,320,l),
(220,371,o),
(253,402,o),
(298,402,cs)
);
}
);
width = 588;
},
{
hints = (
{
horizontal = 1;
place = (-8,65);
type = Stem;
},
{
horizontal = 1;
place = (232,58);
type = Stem;
},
{
horizontal = 1;
place = (445,65);
type = Stem;
},
{
place = (40,74);
type = Stem;
}
);
layerId = "8B72E089-1E16-4D07-A0B8-3936BD35683A";
shapes = (
{
closed = 1;
nodes = (
(40,99,o),
(137,-8,o),
(276,-8,cs),
(384,-8,o),
(465,55,o),
(493,152,c),
(424,164,l),
(403,96,o),
(350,57,o),
(276,57,cs),
(181,57,o),
(118,124,o),
(112,232,c),
(512,232,l),
(512,251,ls),
(512,403,o),
(415,510,o),
(276,510,cs),
(137,510,o),
(40,403,o),
(40,251,cs)
);
},
{
closed = 1;
nodes = (
(365,445,o),
(427,387,o),
(439,290,c),
(114,290,l),
(126,386,o),
(187,445,o),
(276,445,cs)
);
}
);
width = 545;
},
{
hints = (
{
horizontal = 1;
place = (-8,35);
type = Stem;
},
{
horizontal = 1;
place = (237,34);
type = Stem;
},
{
horizontal = 1;
place = (468,36);
type = Stem;
},
{
place = (43,39);
type = Stem;
},
{
place = (456,40);
type = Stem;
}
);
layerId = "3FC04E8D-38CC-44E9-A58D-856391625EC6";
shapes = (
{
closed = 1;
nodes = (
(43,98,o),
(136,-8,o),
(270,-8,cs),
(371,-8,o),
(446,51,o),
(474,146,c),
(433,149,l),
(411,72,o),
(354,27,o),
(270,27,cs),
(159,27,o),
(86,109,o),
(82,237,c),
(496,237,l),
(496,247,ls),
(496,398,o),
(403,504,o),
(270,504,cs),
(136,504,o),
(43,398,o),
(43,247,cs)
);
},
{
closed = 1;
nodes = (
(374,468,o),
(445,392,o),
(456,271,c),
(83,271,l),
(91,393,o),
(163,468,o),
(270,468,cs)
);
}
);
width = 532;
}
);
unicode = 101;
},
{
glyphname = f;
layers = (
{
hints = (
{
horizontal = 1;
place = (0,21);
target = up;
type = BottomGhost;
},
{
horizontal = 1;
place = (400,112);
type = Stem;
},
{
horizontal = 1;
place = (400,123);
type = Stem;
},
{
horizontal = 1;
place = (585,127);
type = Stem;
},
{
horizontal = 1;
place = (703,-20);
target = down;
type = TopGhost;
},
{
place = (93,169);
type = Stem;
}
);
layerId = "F516ED7C-7F23-41BA-A2F1-1EB4B95E9343";
shapes = (
{
closed = 1;
nodes = (
(93,517,l),
(22,507,l),
(22,400,l),
(93,400,l),
(93,0,l),
(262,0,l),
(262,400,l),
(363,400,l),
(363,523,l),
(262,523,l),
(262,525,ls),
(262,563,o),
(281,585,o),
(320,585,cs),
(334,585,o),
(347,583,o),
(382,576,c),
(382,703,l),
(361,708,o),
(322,712,o),
(295,712,cs),
(162,712,o),
(93,628,o),
(93,526,cs)
);
}
);
width = 388;
},
{
hints = (
{
horizontal = 1;
place = (0,21);
target = up;
type = BottomGhost;
},
{
horizontal = 1;
place = (441,59);
type = Stem;
},
{
horizontal = 1;
place = (647,62);
type = Stem;
},
{
horizontal = 1;
place = (702,-20);
target = down;
type = TopGhost;
},
{
place = (109,71);
type = Stem;
}
);
layerId = "8B72E089-1E16-4D07-A0B8-3936BD35683A";
shapes = (
{
closed = 1;
nodes = (
(109,500,l),
(30,490,l),
(30,441,l),
(109,441,l),
(109,0,l),
(180,0,l),
(180,441,l),
(292,441,l),
(292,500,l),
(180,500,l),
(180,563,ls),
(180,606,o),
(191,647,o),
(252,647,cs),
(268,647,o),
(288,645,o),
(312,639,c),
(312,702,l),
(288,707,o),
(266,709,o),
(246,709,cs),
(145,709,o),
(109,639,o),
(109,567,cs)
);
}
);
width = 322;
},
{
hints = (
{
horizontal = 1;
place = (0,21);
target = up;
type = BottomGhost;
},
{
horizontal = 1;
place = (460,33);
type = Stem;
},
{
horizontal = 1;
place = (460,35);
type = Stem;
},
{
horizontal = 1;
place = (672,36);
type = Stem;
},
{
horizontal = 1;
place = (702,-20);
target = down;
type = TopGhost;
},
{
place = (114,40);
type = Stem;
}
);
layerId = "3FC04E8D-38CC-44E9-A58D-856391625EC6";
shapes = (
{
closed = 1;
nodes = (
(114,495,l),
(33,485,l),
(33,460,l),
(114,460,l),
(114,0,l),
(154,0,l),
(154,460,l),
(270,460,l),
(270,493,l),
(154,493,l),
(154,576,ls),
(154,623,o),
(162,672,o),
(230,672,cs),
(247,672,o),
(269,670,o),
(290,665,c),
(290,702,l),
(265,707,o),
(248,708,o),
(231,708,cs),
(140,708,o),
(114,643,o),
(114,581,cs)
);
}
);
width = 301;
}
);
unicode = 102;
},
{
glyphname = g;
layers = (
{
hints = (
{
horizontal = 1;
place = (-219,127);
type = Stem;
},
{
horizontal = 1;
place = (-2,127);
type = Stem;
},
{
horizontal = 1;
place = (404,118);
type = Stem;
},
{
horizontal = 1;
place = (404,126);
type = Stem;
},
{
place = (32,168);
type = Stem;
},
{
place = (380,167);
type = Stem;
}
);
layerId = "F516ED7C-7F23-41BA-A2F1-1EB4B95E9343";
shapes = (
{
closed = 1;
nodes = (
(380,21,ls),
(380,-55,o),
(345,-92,o),
(285,-92,cs),
(249,-92,o),
(219,-71,o),
(204,-31,c),
(43,-73,l),
(70,-165,o),
(164,-219,o),
(287,-219,cs),
(444,-219,o),
(547,-129,o),
(547,20,cs),
(547,363,ls),
(547,417,o),
(552,491,o),
(557,522,c),
(403,522,l),
(403,510,o),
(400,482,o),
(397,450,c),
(372,498,o),
(304,530,o),
(239,530,cs),
(117,530,o),
(32,419,o),
(32,263,cs),
(32,106,o),
(117,-2,o),
(239,-2,cs),
(293,-2,o),
(354,27,o),
(380,64,c)
);
},
{
closed = 1;
nodes = (
(200,350,o),
(238,404,o),
(295,404,cs),
(346,404,o),
(380,361,o),
(380,276,cs),
(380,246,ls),
(380,165,o),
(346,125,o),
(295,125,cs),
(238,125,o),
(200,179,o),
(200,263,cs)
);
}
);
width = 596;
},
{
hints = (
{
horizontal = 1;
place = (-219,65);
type = Stem;
},
{
horizontal = 1;
place = (-10,65);
type = Stem;
},
{
horizontal = 1;
place = (447,63);
type = Stem;
},
{
horizontal = 1;
place = (500,-20);
target = down;
type = TopGhost;
},
{
place = (40,71);
type = Stem;
},
{
place = (424,71);
type = Stem;
}
);
layerId = "8B72E089-1E16-4D07-A0B8-3936BD35683A";
shapes = (
{
closed = 1;
nodes = (
(424,2,ls),
(424,-93,o),
(374,-154,o),
(281,-154,cs),
(200,-154,o),
(143,-117,o),
(120,-53,c),
(51,-65,l),
(81,-158,o),
(166,-219,o),
(281,-219,cs),
(418,-219,o),
(495,-132,o),
(495,3,cs),
(495,360,ls),
(495,427,o),
(496,464,o),
(500,500,c),
(439,500,l),
(433,478,o),
(427,447,o),
(424,425,c),
(385,474,o),
(327,510,o),
(259,510,cs),
(130,510,o),
(40,402,o),
(40,249,cs),
(40,97,o),
(130,-10,o),
(259,-10,cs),
(325,-10,o),
(384,18,o),
(424,69,c)
);
},
{
closed = 1;
nodes = (
(111,370,o),
(172,447,o),
(273,447,cs),
(366,447,o),
(424,361,o),
(424,264,cs),
(424,231,ls),
(424,139,o),
(370,55,o),
(273,55,cs),
(172,55,o),
(111,130,o),
(111,249,cs)
);
}
);
width = 555;
},
{
hints = (
{
horizontal = 1;
place = (-219,39);
type = Stem;
},
{
horizontal = 1;
place = (-8,37);
type = Stem;
},
{
horizontal = 1;
place = (470,36);
type = Stem;
},
{
horizontal = 1;
place = (496,-20);
target = down;
type = TopGhost;
},
{
place = (41,39);
type = Stem;
},
{
place = (437,39);
type = Stem;
}
);
layerId = "3FC04E8D-38CC-44E9-A58D-856391625EC6";
shapes = (
{
closed = 1;
nodes = (
(437,-4,ls),
(437,-109,o),
(383,-180,o),
(280,-180,cs),
(185,-180,o),
(119,-136,o),
(93,-60,c),
(54,-62,l),
(85,-156,o),
(167,-219,o),
(279,-219,cs),
(408,-219,o),
(476,-133,o),
(476,-2,cs),
(476,362,ls),
(476,432,o),
(476,458,o),
(479,496,c),
(449,496,l),
(445,460,o),
(441,416,o),
(438,390,c),
(406,456,o),
(350,506,o),
(264,506,cs),
(136,506,o),
(41,401,o),
(41,248,cs),
(41,100,o),
(135,-8,o),
(264,-8,cs),
(338,-8,o),
(394,27,o),
(437,98,c)
);
},
{
closed = 1;
nodes = (
(80,379,o),
(156,470,o),
(264,470,cs),
(378,470,o),
(437,366,o),
(437,263,cs),
(437,228,ls),
(437,131,o),
(383,29,o),
(264,29,cs),
(155,29,o),
(80,110,o),
(80,247,cs)
);
}
);
width = 542;
}
);
unicode = 103;
},
{
glyphname = h;
layers = (
{
hints = (
{
horizontal = 1;
place = (0,21);
target = up;
type = BottomGhost;
},
{
horizontal = 1;
place = (402,129);
type = Stem;
},
{
horizontal = 1;
place = (703,-20);
target = down;
type = TopGhost;
},
{
place = (50,167);
type = Stem;
},
{
place = (358,168);
type = Stem;
}
);
layerId = "F516ED7C-7F23-41BA-A2F1-1EB4B95E9343";
shapes = (
{
closed = 1;
nodes = (
(217,703,l),
(50,703,l),
(50,0,l),
(217,0,l),
(217,288,ls),
(217,363,o),
(247,402,o),
(290,402,cs),
(335,402,o),
(358,370,o),
(358,303,cs),
(358,0,l),
(526,0,l),
(526,330,ls),
(526,451,o),
(456,531,o),
(349,531,cs),
(299,531,o),
(254,509,o),
(217,476,c)
);
}
);
width = 571;
},
{
hints = (
{
horizontal = 1;
place = (0,21);
target = up;
type = BottomGhost;
},
{
horizontal = 1;
place = (445,64);
type = Stem;
},
{
horizontal = 1;
place = (700,-20);
target = down;
type = TopGhost;
},
{
place = (60,71);
type = Stem;
},
{
place = (401,71);
type = Stem;
}
);
layerId = "8B72E089-1E16-4D07-A0B8-3936BD35683A";
shapes = (
{
closed = 1;
nodes = (
(131,700,l),
(60,700,l),
(60,0,l),
(131,0,l),
(131,299,ls),
(131,385,o),
(196,445,o),
(289,445,cs),
(355,445,o),
(401,396,o),
(401,326,cs),
(401,0,l),
(472,0,l),
(472,326,ls),
(472,436,o),
(402,509,o),
(295,509,cs),
(228,509,o),
(170,477,o),
(131,432,c)
);
}
);
width = 527;
},
{
hints = (
{
horizontal = 1;
place = (0,21);
target = up;
type = BottomGhost;
},
{
horizontal = 1;
place = (465,36);
type = Stem;
},
{
horizontal = 1;
place = (699,-20);
target = down;
type = TopGhost;
},
{
place = (64,39);
type = Stem;
},
{
place = (415,40);
type = Stem;
}
);
layerId = "3FC04E8D-38CC-44E9-A58D-856391625EC6";
shapes = (
{
closed = 1;
nodes = (
(103,699,l),
(64,699,l),
(64,0,l),
(103,0,l),
(103,305,ls),
(103,397,o),
(174,465,o),
(274,465,cs),
(355,465,o),
(415,410,o),
(415,337,cs),
(415,0,l),
(455,0,l),
(455,324,ls),
(455,430,o),
(385,501,o),
(278,501,cs),
(206,501,o),
(143,466,o),
(103,418,c)
);
}
);
width = 513;
}
);
unicode = 104;
},
{
glyphname = i;
layers = (
{
hints = (
{
horizontal = 1;
place = (0,21);
target = up;
type = BottomGhost;
},
{
horizontal = 1;
place = (523,-20);
target = down;
type = TopGhost;
},
{
horizontal = 1;
place = (583,137);
type = Stem;
},
{
place = (50,167);
type = Stem;
}
);
layerId = "F516ED7C-7F23-41BA-A2F1-1EB4B95E9343";
shapes = (
{
closed = 1;
nodes = (
(50,0,l),
(217,0,l),
(217,523,l),
(50,523,l)
);
},
{
closed = 1;
nodes = (
(43,583,l),
(224,583,l),
(224,720,l),
(43,720,l)
);
}
);
width = 266;
},
{
hints = (
{
horizontal = 1;
place = (0,21);
target = up;
type = BottomGhost;
},
{
horizontal = 1;
place = (500,-20);
target = down;
type = TopGhost;
},
{
horizontal = 1;
place = (614,94);
type = Stem;
},
{
place = (53,85);
type = Stem;
},
{
place = (60,71);
type = Stem;
}
);
layerId = "8B72E089-1E16-4D07-A0B8-3936BD35683A";
shapes = (
{
closed = 1;
nodes = (
(60,0,l),
(131,0,l),
(131,500,l),
(60,500,l)
);
},
{
closed = 1;
nodes = (
(53,614,l),
(138,614,l),
(138,708,l),
(53,708,l)
);
}
);
width = 191;
},
{
hints = (
{
horizontal = 1;
place = (0,21);
target = up;
type = BottomGhost;
},
{
horizontal = 1;
place = (493,-20);
target = down;
type = TopGhost;
},
{
horizontal = 1;
place = (633,74);
type = Stem;
},
{
place = (57,53);
type = Stem;
},
{
place = (64,39);
type = Stem;
}
);
layerId = "3FC04E8D-38CC-44E9-A58D-856391625EC6";
shapes = (
{
closed = 1;
nodes = (
(64,0,l),
(103,0,l),
(103,493,l),
(64,493,l)
);
},
{
closed = 1;
nodes = (
(57,633,l),
(110,633,l),
(110,707,l),
(57,707,l)
);
}
);
width = 167;
}
);
unicode = 105;
},
{
glyphname = j;
layers = (
{
hints = (
{
horizontal = 1;
place = (-207,126);
type = Stem;
},
{
horizontal = 1;
place = (-199,21);
target = up;
type = BottomGhost;
},
{
horizontal = 1;
place = (523,-20);
target = down;
type = TopGhost;
},
{
horizontal = 1;
place = (583,137);
type = Stem;
},
{
place = (49,168);
type = Stem;
}
);
layerId = "F516ED7C-7F23-41BA-A2F1-1EB4B95E9343";
shapes = (
{
closed = 1;
nodes = (
(224,583,l),
(224,720,l),
(43,720,l),
(43,583,l)
);
},
{
closed = 1;
nodes = (
(217,523,l),
(49,523,l),
(49,-20,ls),
(49,-58,o),
(29,-81,o),
(-7,-81,cs),
(-22,-81,o),
(-35,-79,o),
(-70,-71,c),
(-70,-199,l),
(-49,-204,o),
(-10,-207,o),
(17,-207,cs),
(149,-207,o),
(217,-123,o),
(217,-21,cs)
);
}
);
width = 266;
},
{
hints = (
{
horizontal = 1;
place = (-209,62);
type = Stem;
},
{
horizontal = 1;
place = (-202,21);
target = up;
type = BottomGhost;
},
{
horizontal = 1;
place = (500,-20);
target = down;
type = TopGhost;
},
{
horizontal = 1;
place = (614,94);
type = Stem;
},
{
place = (53,85);
type = Stem;
},
{
place = (60,71);
type = Stem;
}
);
layerId = "8B72E089-1E16-4D07-A0B8-3936BD35683A";
shapes = (
{
closed = 1;
nodes = (
(138,614,l),
(138,708,l),
(53,708,l),
(53,614,l)
);
},
{
closed = 1;
nodes = (
(131,500,l),
(60,500,l),
(60,-63,ls),
(60,-106,o),
(49,-147,o),
(-12,-147,cs),
(-28,-147,o),
(-48,-145,o),
(-72,-139,c),
(-72,-202,l),
(-48,-207,o),
(-26,-209,o),
(-6,-209,cs),
(95,-209,o),
(131,-139,o),
(131,-67,cs)
);
}
);
width = 191;
},
{
hints = (
{
horizontal = 1;
place = (-210,36);
type = Stem;
},
{
horizontal = 1;
place = (-203,21);
target = up;
type = BottomGhost;
},
{
horizontal = 1;
place = (493,-20);
target = down;
type = TopGhost;
},
{
horizontal = 1;
place = (633,74);
type = Stem;
},
{
place = (57,53);
type = Stem;
},
{
place = (64,39);
type = Stem;
}
);
layerId = "3FC04E8D-38CC-44E9-A58D-856391625EC6";
shapes = (
{
closed = 1;
nodes = (
(110,633,l),
(110,707,l),
(57,707,l),
(57,633,l)
);
},
{
closed = 1;
nodes = (
(103,493,l),
(64,493,l),
(64,-83,ls),
(64,-127,o),
(55,-174,o),
(-14,-174,cs),
(-30,-174,o),
(-53,-172,o),
(-73,-166,c),
(-73,-203,l),
(-48,-208,o),
(-31,-210,o),
(-13,-210,cs),
(78,-210,o),
(103,-144,o),
(103,-82,cs)
);
}
);
width = 167;
}
);
unicode = 106;
},
{
glyphname = k;
layers = (
{
hints = (
{
horizontal = 1;
place = (0,21);
target = up;
type = BottomGhost;
},
{
horizontal = 1;
place = (523,-20);
target = down;
type = TopGhost;
},
{
horizontal = 1;
place = (703,-20);
target = down;
type = TopGhost;
},
{
place = (50,167);
type = Stem;
}
);
layerId = "F516ED7C-7F23-41BA-A2F1-1EB4B95E9343";
shapes = (
{
closed = 1;
nodes = (
(50,0,l),
(217,0,l),
(217,134,l),
(267,194,l),
(376,0,l),
(566,0,l),
(374,324,l),
(538,523,l),
(358,523,l),
(217,348,l),
(217,703,l),
(50,703,l)
);
}
);
width = 570;
},
{
hints = (
{
horizontal = 1;
place = (0,21);
target = up;
type = BottomGhost;
},
{
horizontal = 1;
place = (500,-20);
target = down;
type = TopGhost;
},
{
horizontal = 1;
place = (700,-20);
target = down;
type = TopGhost;
},
{
place = (60,71);
type = Stem;
}
);
layerId = "8B72E089-1E16-4D07-A0B8-3936BD35683A";
shapes = (
{
closed = 1;
nodes = (
(60,0,l),
(131,0,l),
(131,172,l),
(206,252,l),
(384,0,l),
(467,0,l),
(253,302,l),
(439,500,l),
(355,500,l),
(131,264,l),
(131,700,l),
(60,700,l)
);
}
);
width = 492;
},
{
hints = (
{
horizontal = 1;
place = (0,21);
target = up;
type = BottomGhost;
},
{
horizontal = 1;
place = (493,-20);
target = down;
type = TopGhost;
},
{
horizontal = 1;
place = (699,-20);
target = down;
type = TopGhost;
},
{
place = (64,39);
type = Stem;
}
);
layerId = "3FC04E8D-38CC-44E9-A58D-856391625EC6";
shapes = (
{
closed = 1;
nodes = (
(64,0,l),
(103,0,l),
(103,188,l),
(186,271,l),
(387,0,l),
(436,0,l),
(212,297,l),
(408,493,l),
(360,493,l),
(103,239,l),
(103,699,l),
(64,699,l)
);
}
);
width = 467;
}
);
unicode = 107;
},
{
glyphname = l;
layers = (
{
hints = (
{
horizontal = 1;
place = (0,21);
target = up;
type = BottomGhost;
},
{
horizontal = 1;
place = (703,-20);
target = down;
type = TopGhost;
},
{
place = (50,167);
type = Stem;
},
{
horizontal = 1;
place = (-10,127);
type = Stem;
},
{
horizontal = 1;
place = (-1,21);
target = up;
type = BottomGhost;
},
{
horizontal = 1;
place = (523,-20);
target = down;
type = TopGhost;
},
{
place = (43,168);
type = Stem;
}
);
layerId = "F516ED7C-7F23-41BA-A2F1-1EB4B95E9343";
shapes = (
{
closed = 1;
nodes = (
(43,202,ls),
(43,64,o),
(110,-10,o),
(234,-10,cs),
(259,-10,o),
(286,-5,o),
(314,6,c),
(290,133,l),
(277,128,o),
(266,125,o),
(256,125,cs),
(222,125,o),
(211,157,o),
(211,203,cs),
(211,703,l),
(43,703,l)
);
}
);
width = 314;
},
{
hints = (
{
horizontal = 1;
place = (0,21);
target = up;
type = BottomGhost;
},
{
horizontal = 1;
place = (700,-20);
target = down;
type = TopGhost;
},
{
place = (60,71);
type = Stem;
},
{
horizontal = 1;
place = (-10,62);
type = Stem;
},
{
horizontal = 1;
place = (-3,21);
target = up;
type = BottomGhost;
},
{
horizontal = 1;
place = (500,-20);
target = down;
type = TopGhost;
},
{
place = (53,71);
type = Stem;
}
);
layerId = "8B72E089-1E16-4D07-A0B8-3936BD35683A";
shapes = (
{
closed = 1;
nodes = (
(53,142,ls),
(53,43,o),
(99,-10,o),
(185,-10,cs),
(201,-10,o),
(217,-7,o),
(233,0,c),
(221,62,l),
(210,57,o),
(199,55,o),
(189,55,cs),
(147,55,o),
(124,86,o),
(124,146,cs),
(124,700,l),
(53,700,l)
);
}
);
width = 241;
},
{
hints = (
{
horizontal = 1;
place = (0,21);
target = up;
type = BottomGhost;
},
{
horizontal = 1;
place = (699,-20);
target = down;
type = TopGhost;
},
{
place = (64,39);
type = Stem;
},
{
horizontal = 1;
place = (-10,37);
type = Stem;
},
{
horizontal = 1;
place = (-4,21);
target = up;
type = BottomGhost;
},
{
horizontal = 1;
place = (493,-20);
target = down;
type = TopGhost;
},
{
place = (57,39);
type = Stem;
}
);
layerId = "3FC04E8D-38CC-44E9-A58D-856391625EC6";
shapes = (
{
closed = 1;
nodes = (
(57,109,ls),
(57,35,o),
(101,-11,o),
(157,-11,cs),
(174,-11,o),
(192,-7,o),
(210,1,c),
(201,37,l),
(185,30,o),
(171,27,o),
(158,27,cs),
(120,27,o),
(96,57,o),
(96,114,cs),
(96,699,l),
(57,699,l)
);
}
);
width = 207;
}
);
unicode = 108;
},
{
glyphname = m;
layers = (
{
hints = (
{
horizontal = 1;
place = (0,21);
target = up;
type = BottomGhost;
},
{
horizontal = 1;
place = (402,121);
type = Stem;
},
{
horizontal = 1;
place = (402,128);
type = Stem;
},
{
place = (50,167);
type = Stem;
},
{
place = (355,168);
type = Stem;
},
{
place = (661,168);
type = Stem;
}
);
layerId = "F516ED7C-7F23-41BA-A2F1-1EB4B95E9343";
shapes = (
{
closed = 1;
nodes = (
(523,288,ls),
(523,361,o),
(547,402,o),
(598,402,cs),
(641,402,o),
(661,365,o),
(661,303,cs),
(661,0,l),
(829,0,l),
(829,330,ls),
(829,448,o),
(763,530,o),
(651,530,cs),
(575,530,o),
(533,509,o),
(492,451,c),
(462,500,o),
(412,530,o),
(345,530,cs),
(290,530,o),
(244,505,o),
(210,473,c),
(207,488,o),
(204,505,o),
(198,523,c),
(39,523,l),
(48,478,o),
(50,447,o),
(50,360,cs),
(50,0,l),
(217,0,l),
(217,288,ls),
(217,361,o),
(240,402,o),
(293,402,cs),
(336,402,o),
(355,365,o),
(355,303,cs),
(355,0,l),
(523,0,l)
);
}
);
width = 863;
},
{
hints = (
{
horizontal = 1;
place = (0,21);
target = up;
type = BottomGhost;
},
{
horizontal = 1;
place = (446,64);
type = Stem;
},
{
horizontal = 1;
place = (500,-20);
target = down;
type = TopGhost;
},
{
place = (60,71);
type = Stem;
},
{
place = (381,71);
type = Stem;
},
{
place = (702,71);
type = Stem;
}
);
layerId = "8B72E089-1E16-4D07-A0B8-3936BD35683A";
shapes = (
{
closed = 1;
nodes = (
(452,299,ls),
(452,394,o),
(525,446,o),
(592,446,cs),
(649,446,o),
(702,408,o),
(702,326,cs),
(702,0,l),
(773,0,l),
(773,326,ls),
(773,445,o),
(698,510,o),
(610,510,cs),
(545,510,o),
(481,476,o),
(438,408,c),
(412,475,o),
(354,510,o),
(291,510,cs),
(236,510,o),
(176,482,o),
(131,425,c),
(128,450,o),
(123,475,o),
(116,500,c),
(55,500,l),
(59,464,o),
(60,427,o),
(60,360,cs),
(60,0,l),
(131,0,l),
(131,299,ls),
(131,394,o),
(204,446,o),
(271,446,cs),
(328,446,o),
(381,408,o),
(381,326,cs),
(381,0,l),
(452,0,l)
);
}
);
width = 828;
},
{
hints = (
{
horizontal = 1;
place = (0,21);
target = up;
type = BottomGhost;
},
{
horizontal = 1;
place = (469,35);
type = Stem;
},
{
horizontal = 1;
place = (493,-20);
target = down;
type = TopGhost;
},
{
place = (64,39);
type = Stem;
},
{
place = (390,40);
type = Stem;
},
{
place = (716,39);
type = Stem;
}
);
layerId = "3FC04E8D-38CC-44E9-A58D-856391625EC6";
shapes = (
{
closed = 1;
nodes = (
(430,303,ls),
(430,410,o),
(516,469,o),
(589,469,cs),
(649,469,o),
(716,430,o),
(716,339,cs),
(716,0,l),
(755,0,l),
(755,325,ls),
(755,444,o),
(676,504,o),
(597,504,cs),
(532,504,o),
(461,465,o),
(420,392,c),
(395,467,o),
(331,504,o),
(269,504,cs),
(214,504,o),
(153,475,o),
(106,410,c),
(103,437,o),
(97,465,o),
(90,493,c),
(60,493,l),
(63,460,o),
(64,421,o),
(64,360,cs),
(64,0,l),
(103,0,l),
(103,308,ls),
(103,412,o),
(192,469,o),
(265,469,cs),
(325,469,o),
(390,430,o),
(390,339,cs),
(390,0,l),
(430,0,l)
);
}
);
width = 817;
}
);
unicode = 109;
},
{
glyphname = n;
layers = (
{
hints = (
{
horizontal = 1;
place = (0,21);
target = up;
type = BottomGhost;
},
{
horizontal = 1;
place = (402,121);
type = Stem;
},
{
horizontal = 1;
place = (402,129);
type = Stem;
},
{
place = (50,167);
type = Stem;
},
{
place = (358,168);
type = Stem;
}
);
layerId = "F516ED7C-7F23-41BA-A2F1-1EB4B95E9343";
shapes = (
{
closed = 1;
nodes = (
(39,523,l),
(48,478,o),
(50,447,o),
(50,360,cs),
(50,0,l),
(217,0,l),
(217,288,ls),
(217,363,o),
(247,402,o),
(290,402,cs),
(335,402,o),
(358,370,o),
(358,303,cs),
(358,0,l),
(526,0,l),
(526,330,ls),
(526,451,o),
(456,531,o),
(349,531,cs),
(296,531,o),
(246,507,o),
(210,473,c),
(207,488,o),
(204,505,o),
(198,523,c)
);
}
);
width = 560;
},
{
hints = (
{
horizontal = 1;
place = (0,21);
target = up;
type = BottomGhost;
},
{
horizontal = 1;
place = (445,64);
type = Stem;
},
{
horizontal = 1;
place = (500,-20);
target = down;
type = TopGhost;
},
{
place = (60,71);
type = Stem;
},
{
place = (401,71);
type = Stem;
}
);
layerId = "8B72E089-1E16-4D07-A0B8-3936BD35683A";
shapes = (
{
closed = 1;
nodes = (
(55,500,l),
(59,464,o),
(60,427,o),
(60,360,cs),
(60,0,l),
(131,0,l),
(131,299,ls),
(131,385,o),
(196,445,o),
(289,445,cs),
(355,445,o),
(401,396,o),
(401,326,cs),
(401,0,l),
(472,0,l),
(472,326,ls),
(472,436,o),
(402,509,o),
(295,509,cs),
(228,509,o),
(170,474,o),
(131,425,c),
(128,450,o),
(123,475,o),
(116,500,c)
);
}
);
width = 527;
},
{
hints = (
{
horizontal = 1;
place = (0,21);
target = up;
type = BottomGhost;
},
{
horizontal = 1;
place = (466,37);
type = Stem;
},
{
horizontal = 1;
place = (493,-20);
target = down;
type = TopGhost;
},
{
place = (64,39);
type = Stem;
},
{
place = (415,40);
type = Stem;
}
);
layerId = "3FC04E8D-38CC-44E9-A58D-856391625EC6";
shapes = (
{
closed = 1;
nodes = (
(60,493,l),
(63,460,o),
(64,421,o),
(64,360,cs),
(64,0,l),
(103,0,l),
(103,307,ls),
(103,398,o),
(175,466,o),
(278,466,cs),
(357,466,o),
(415,410,o),
(415,338,cs),
(415,0,l),
(455,0,l),
(455,325,ls),
(455,432,o),
(385,503,o),
(278,503,cs),
(206,503,o),
(146,463,o),
(106,410,c),
(103,437,o),
(97,465,o),
(90,493,c)
);
}
);
width = 516;
}
);
unicode = 110;
},
{
glyphname = o;
layers = (
{
hints = (
{
horizontal = 1;
place = (-8,128);
type = Stem;
},
{
horizontal = 1;
place = (402,130);
type = Stem;
},
{
place = (32,168);
type = Stem;
},
{
place = (395,168);
type = Stem;
}
);
layerId = "F516ED7C-7F23-41BA-A2F1-1EB4B95E9343";
shapes = (
{
closed = 1;
nodes = (
(563,422,o),
(451,532,o),
(298,532,cs),
(143,532,o),
(32,422,o),
(32,262,cs),
(32,103,o),
(143,-8,o),
(298,-8,cs),
(451,-8,o),
(563,103,o),
(563,262,cs)
);
},
{
closed = 1;
nodes = (
(200,347,o),
(238,402,o),
(298,402,cs),
(357,402,o),
(395,347,o),
(395,262,cs),
(395,174,o),
(357,120,o),
(298,120,cs),
(238,120,o),
(200,174,o),
(200,262,cs)
);
}
);
width = 593;
},
{
hints = (
{
horizontal = 1;
place = (-8,63);
type = Stem;
},
{
horizontal = 1;
place = (445,65);
type = Stem;
},
{
place = (40,71);
type = Stem;
},
{
place = (441,71);
type = Stem;
}
);
layerId = "8B72E089-1E16-4D07-A0B8-3936BD35683A";
shapes = (
{
closed = 1;
nodes = (
(512,403,o),
(415,510,o),
(276,510,cs),
(137,510,o),
(40,403,o),
(40,251,cs),
(40,99,o),
(137,-8,o),
(276,-8,cs),
(415,-8,o),
(512,99,o),
(512,251,cs)
);
},
{
closed = 1;
nodes = (
(111,370,o),
(176,445,o),
(276,445,cs),
(376,445,o),
(441,370,o),
(441,251,cs),
(441,131,o),
(376,55,o),
(276,55,cs),
(176,55,o),
(111,131,o),
(111,251,cs)
);
}
);
width = 552;
},
{
hints = (
{
horizontal = 1;
place = (-8,35);
type = Stem;
},
{
horizontal = 1;
place = (468,36);
type = Stem;
},
{
place = (43,39);
type = Stem;
},
{
place = (456,40);
type = Stem;
}
);
layerId = "3FC04E8D-38CC-44E9-A58D-856391625EC6";
shapes = (
{
closed = 1;
nodes = (
(496,398,o),
(403,504,o),
(270,504,cs),
(135,504,o),
(43,398,o),
(43,247,cs),
(43,98,o),
(135,-8,o),
(270,-8,cs),
(403,-8,o),
(496,98,o),
(496,247,cs)
);
},
{
closed = 1;
nodes = (
(82,383,o),
(156,468,o),
(270,468,cs),
(382,468,o),
(456,383,o),
(456,248,cs),
(456,114,o),
(382,27,o),
(270,27,cs),
(156,27,o),
(82,114,o),
(82,248,cs)
);
}
);
width = 539;
}
);
unicode = 111;
},
{
glyphname = p;
layers = (
{
hints = (
{
horizontal = 1;
place = (-200,21);
target = up;
type = BottomGhost;
},
{
horizontal = 1;
place = (-10,130);
type = Stem;
},
{
horizontal = 1;
place = (403,119);
type = Stem;
},
{
horizontal = 1;
place = (403,127);
type = Stem;
},
{
place = (50,167);
type = Stem;
},
{
place = (396,170);
type = Stem;
}
);
layerId = "F516ED7C-7F23-41BA-A2F1-1EB4B95E9343";
shapes = (
{
closed = 1;
nodes = (
(217,59,l),
(244,21,o),
(304,-10,o),
(358,-10,cs),
(479,-10,o),
(566,101,o),
(566,258,cs),
(566,417,o),
(479,530,o),
(358,530,cs),
(293,530,o),
(224,497,o),
(201,450,c),
(198,480,o),
(195,510,o),
(194,522,c),
(39,522,l),
(45,490,o),
(50,416,o),
(50,360,cs),
(50,-200,l),
(217,-200,l)
);
},
{
closed = 1;
nodes = (
(217,272,ls),
(217,358,o),
(251,403,o),
(304,403,cs),
(359,403,o),
(396,347,o),
(396,258,cs),
(396,173,o),
(359,120,o),
(304,120,cs),
(253,120,o),
(217,161,o),
(217,242,cs)
);
}
);
width = 596;
},
{
hints = (
{
horizontal = 1;
place = (-200,21);
target = up;
type = BottomGhost;
},
{
horizontal = 1;
place = (-10,65);
type = Stem;
},
{
horizontal = 1;
place = (447,63);
type = Stem;
},
{
horizontal = 1;
place = (500,-20);
target = down;
type = TopGhost;
},
{
place = (60,71);
type = Stem;
},
{
place = (444,71);
type = Stem;
}
);
layerId = "8B72E089-1E16-4D07-A0B8-3936BD35683A";
shapes = (
{
closed = 1;
nodes = (
(131,69,l),
(171,18,o),
(230,-10,o),
(296,-10,cs),
(425,-10,o),
(515,97,o),
(515,249,cs),
(515,402,o),
(425,510,o),
(296,510,cs),
(228,510,o),
(170,474,o),
(131,425,c),
(128,447,o),
(122,478,o),
(116,500,c),
(55,500,l),
(59,464,o),
(60,427,o),
(60,360,cs),
(60,-200,l),
(131,-200,l)
);
},
{
closed = 1;
nodes = (
(131,264,ls),
(131,361,o),
(189,447,o),
(282,447,cs),
(383,447,o),
(444,370,o),
(444,249,cs),
(444,130,o),
(383,55,o),
(282,55,cs),
(185,55,o),
(131,139,o),
(131,231,cs)
);
}
);
width = 555;
},
{
hints = (
{
horizontal = 1;
place = (-204,21);
target = up;
type = BottomGhost;
},
{
horizontal = 1;
place = (-8,37);
type = Stem;
},
{
horizontal = 1;
place = (470,36);
type = Stem;
},
{
horizontal = 1;
place = (496,-20);
target = down;
type = TopGhost;
},
{
place = (64,39);
type = Stem;
},
{
place = (459,40);
type = Stem;
}
);
layerId = "3FC04E8D-38CC-44E9-A58D-856391625EC6";
shapes = (
{
closed = 1;
nodes = (
(103,98,l),
(146,27,o),
(202,-8,o),
(276,-8,cs),
(405,-8,o),
(499,100,o),
(499,248,cs),
(499,401,o),
(403,506,o),
(276,506,cs),
(190,506,o),
(134,456,o),
(101,390,c),
(99,416,o),
(95,460,o),
(91,496,c),
(60,496,l),
(64,458,o),
(64,432,o),
(64,362,cs),
(64,-204,l),
(103,-204,l)
);
},
{
closed = 1;
nodes = (
(103,263,ls),
(103,366,o),
(162,470,o),
(276,470,cs),
(384,470,o),
(459,379,o),
(459,247,cs),
(459,110,o),
(385,29,o),
(276,29,cs),
(157,29,o),
(103,131,o),
(103,228,cs)
);
}
);
width = 542;
}
);
unicode = 112;
},
{
glyphname = q;
layers = (
{
hints = (
{
horizontal = 1;
place = (-200,21);
target = up;
type = BottomGhost;
},
{
horizontal = 1;
place = (-10,130);
type = Stem;
},
{
horizontal = 1;
place = (403,119);
type = Stem;
},
{
horizontal = 1;
place = (403,127);
type = Stem;
},
{
place = (32,168);
type = Stem;
},
{
place = (380,167);
type = Stem;
}
);
layerId = "F516ED7C-7F23-41BA-A2F1-1EB4B95E9343";
shapes = (
{
closed = 1;
nodes = (
(380,-200,l),
(547,-200,l),
(547,360,ls),
(547,416,o),
(552,490,o),
(557,522,c),
(403,522,l),
(403,510,o),
(400,480,o),
(397,450,c),
(372,497,o),
(304,530,o),
(239,530,cs),
(117,530,o),
(32,417,o),
(32,258,cs),
(32,101,o),
(117,-10,o),
(239,-10,cs),
(293,-10,o),
(354,21,o),
(380,59,c)
);
},
{
closed = 1;
nodes = (
(380,242,ls),
(380,161,o),
(346,120,o),
(295,120,cs),
(238,120,o),
(200,173,o),
(200,258,cs),
(200,347,o),
(238,403,o),
(295,403,cs),
(346,403,o),
(380,358,o),
(380,272,cs)
);
}
);
width = 596;
},
{
hints = (
{
horizontal = 1;
place = (-200,21);
target = up;
type = BottomGhost;
},
{
horizontal = 1;
place = (-10,65);
type = Stem;
},
{
horizontal = 1;
place = (447,63);
type = Stem;
},
{
horizontal = 1;
place = (500,-20);
target = down;
type = TopGhost;
},
{
place = (40,71);
type = Stem;
},
{
place = (424,71);
type = Stem;
}
);
layerId = "8B72E089-1E16-4D07-A0B8-3936BD35683A";
shapes = (
{
closed = 1;
nodes = (
(424,-200,l),
(495,-200,l),
(495,360,ls),
(495,427,o),
(496,464,o),
(500,500,c),
(439,500,l),
(433,478,o),
(427,447,o),
(424,425,c),
(385,474,o),
(327,510,o),
(259,510,cs),
(130,510,o),
(40,402,o),
(40,249,cs),
(40,97,o),
(130,-10,o),
(259,-10,cs),
(325,-10,o),
(384,18,o),
(424,69,c)
);
},
{
closed = 1;
nodes = (
(424,231,ls),
(424,139,o),
(370,55,o),
(273,55,cs),
(172,55,o),
(111,130,o),
(111,249,cs),
(111,370,o),
(172,447,o),
(273,447,cs),
(366,447,o),
(424,361,o),
(424,264,cs)
);
}
);
width = 555;
},
{
hints = (
{
horizontal = 1;
place = (-204,21);
target = up;
type = BottomGhost;
},
{
horizontal = 1;
place = (-8,37);
type = Stem;
},
{
horizontal = 1;
place = (470,36);
type = Stem;
},
{
horizontal = 1;
place = (496,-20);
target = down;
type = TopGhost;
},
{
place = (41,39);
type = Stem;
},
{
place = (437,39);
type = Stem;
}
);
layerId = "3FC04E8D-38CC-44E9-A58D-856391625EC6";
shapes = (
{
closed = 1;
nodes = (
(437,-204,l),
(476,-204,l),
(476,362,ls),
(476,432,o),
(476,458,o),
(479,496,c),
(449,496,l),
(445,460,o),
(441,416,o),
(438,390,c),
(406,456,o),
(350,506,o),
(264,506,cs),
(136,506,o),
(41,401,o),
(41,248,cs),
(41,100,o),
(135,-8,o),
(264,-8,cs),
(338,-8,o),
(394,27,o),
(437,98,c)
);
},
{
closed = 1;
nodes = (
(437,228,ls),
(437,131,o),
(383,29,o),
(264,29,cs),
(155,29,o),
(80,110,o),
(80,247,cs),
(80,379,o),
(156,470,o),
(264,470,cs),
(378,470,o),
(437,366,o),
(437,263,cs)
);
}
);
width = 542;
}
);
unicode = 113;
},
{
glyphname = r;
layers = (
{
hints = (
{
horizontal = 1;
place = (0,21);
target = up;
type = BottomGhost;
},
{
horizontal = 1;
place = (523,-20);
target = down;
type = TopGhost;
},
{
horizontal = 1;
place = (531,-20);
target = down;
type = TopGhost;
},
{
place = (50,167);
type = Stem;
}
);
layerId = "F516ED7C-7F23-41BA-A2F1-1EB4B95E9343";
shapes = (
{
closed = 1;
nodes = (
(39,523,l),
(48,478,o),
(50,447,o),
(50,360,cs),
(50,0,l),
(217,0,l),
(217,250,ls),
(217,356,o),
(277,396,o),
(363,391,c),
(346,531,l),
(295,531,o),
(245,500,o),
(210,455,c),
(207,476,o),
(204,500,o),
(198,523,c)
);
}
);
width = 380;
},
{
hints = (
{
horizontal = 1;
place = (0,21);
target = up;
type = BottomGhost;
},
{
horizontal = 1;
place = (445,64);
type = Stem;
},
{
horizontal = 1;
place = (500,-20);
target = down;
type = TopGhost;
},
{
place = (60,71);
type = Stem;
}
);
layerId = "8B72E089-1E16-4D07-A0B8-3936BD35683A";
shapes = (
{
closed = 1;
nodes = (
(55,500,l),
(59,464,o),
(60,427,o),
(60,360,cs),
(60,0,l),
(131,0,l),
(131,299,ls),
(131,385,o),
(192,445,o),
(279,445,c),
(272,509,l),
(209,509,o),
(167,474,o),
(131,425,c),
(128,450,o),
(123,475,o),
(116,500,c)
);
}
);
width = 293;
},
{
hints = (
{
horizontal = 1;
place = (0,21);
target = up;
type = BottomGhost;
},
{
horizontal = 1;
place = (462,41);
type = Stem;
},
{
horizontal = 1;
place = (493,-20);
target = down;
type = TopGhost;
},
{
place = (64,39);
type = Stem;
}
);
layerId = "3FC04E8D-38CC-44E9-A58D-856391625EC6";
shapes = (
{
closed = 1;
nodes = (
(60,493,l),
(63,460,o),
(64,421,o),
(64,360,cs),
(64,0,l),
(103,0,l),
(103,315,ls),
(103,395,o),
(173,468,o),
(252,462,c),
(249,503,l),
(181,503,o),
(136,464,o),
(106,410,c),
(103,437,o),
(97,465,o),
(90,493,c)
);
}
);
width = 265;
}
);
unicode = 114;
},
{
glyphname = s;
layers = (
{
hints = (
{
horizontal = 1;
place = (-8,123);
type = Stem;
},
{
horizontal = 1;
place = (407,125);
type = Stem;
},
{
place = (49,166);
type = Stem;
},
{
place = (332,167);
type = Stem;
}
);
layerId = "F516ED7C-7F23-41BA-A2F1-1EB4B95E9343";
shapes = (
{
closed = 1;
nodes = (
(142,532,o),
(49,468,o),
(49,370,cs),
(49,258,o),
(150,227,o),
(281,195,c),
(316,185,o),
(332,172,o),
(332,151,cs),
(332,130,o),
(316,115,o),
(280,115,cs),
(233,115,o),
(201,141,o),
(196,179,c),
(30,164,l),
(46,72,o),
(143,-8,o),
(280,-8,cs),
(416,-8,o),
(499,67,o),
(499,160,cs),
(499,269,o),
(411,301,o),
(271,339,cs),
(236,348,o),
(215,358,o),
(215,378,cs),
(215,396,o),
(236,407,o),
(261,407,cs),
(296,407,o),
(320,387,o),
(328,356,c),
(490,377,l),
(475,460,o),
(384,532,o),
(261,532,cs)
);
}
);
width = 531;
},
{
hints = (
{
horizontal = 1;
place = (-10,65);
type = Stem;
},
{
horizontal = 1;
place = (445,65);
type = Stem;
},
{
place = (59,70);
type = Stem;
},
{
place = (372,70);
type = Stem;
}
);
layerId = "8B72E089-1E16-4D07-A0B8-3936BD35683A";
shapes = (
{
closed = 1;
nodes = (
(132,510,o),
(59,453,o),
(59,373,cs),
(59,270,o),
(153,247,o),
(237,226,cs),
(308,209,o),
(372,193,o),
(372,134,cs),
(372,91,o),
(324,55,o),
(256,55,cs),
(180,55,o),
(123,92,o),
(104,156,c),
(35,144,l),
(62,51,o),
(146,-10,o),
(256,-10,cs),
(371,-10,o),
(442,59,o),
(442,134,cs),
(442,237,o),
(347,264,o),
(262,286,cs),
(192,304,o),
(129,317,o),
(129,373,cs),
(129,415,o),
(173,445,o),
(236,445,cs),
(299,445,o),
(345,415,o),
(362,365,c),
(431,377,l),
(406,457,o),
(333,510,o),
(236,510,cs)
);
}
);
width = 482;
},
{
hints = (
{
horizontal = 1;
place = (-11,37);
type = Stem;
},
{
horizontal = 1;
place = (468,36);
type = Stem;
},
{
place = (63,38);
type = Stem;
},
{
place = (386,38);
type = Stem;
}
);
layerId = "3FC04E8D-38CC-44E9-A58D-856391625EC6";
shapes = (
{
closed = 1;
nodes = (
(130,504,o),
(63,450,o),
(63,373,cs),
(63,277,o),
(148,257,o),
(218,240,cs),
(302,219,o),
(386,204,o),
(386,126,cs),
(386,72,o),
(326,26,o),
(249,26,cs),
(163,26,o),
(99,68,o),
(75,143,c),
(37,136,l),
(69,44,o),
(148,-11,o),
(249,-11,cs),
(358,-11,o),
(424,55,o),
(424,127,cs),
(424,224,o),
(336,248,o),
(259,268,c),
(184,289,o),
(101,302,o),
(101,373,cs),
(101,429,o),
(154,468,o),
(228,468,cs),
(301,468,o),
(353,432,o),
(373,372,c),
(412,379,l),
(382,457,o),
(316,504,o),
(228,504,cs)
);
}
);
width = 467;
}
);
unicode = 115;
},
{
glyphname = t;
layers = (
{
hints = (
{
horizontal = 1;
place = (-10,127);
type = Stem;
},
{
horizontal = 1;
place = (-1,21);
target = up;
type = BottomGhost;
},
{
horizontal = 1;
place = (400,123);
type = Stem;
},
{
place = (93,169);
type = Stem;
}
);
layerId = "F516ED7C-7F23-41BA-A2F1-1EB4B95E9343";
shapes = (
{
closed = 1;
nodes = (
(93,176,ls),
(93,74,o),
(162,-10,o),
(295,-10,cs),
(322,-10,o),
(361,-6,o),
(382,-1,c),
(382,126,l),
(347,119,o),
(334,117,o),
(320,117,cs),
(281,117,o),
(262,139,o),
(262,177,cs),
(262,400,l),
(363,400,l),
(363,523,l),
(262,523,l),
(262,662,l),
(141,662,l),
(93,523,l),
(22,509,l),
(22,405,l),
(93,405,l)
);
}
);
width = 404;
},
{
hints = (
{
horizontal = 1;
place = (-10,62);
type = Stem;
},
{
horizontal = 1;
place = (-3,21);
target = up;
type = BottomGhost;
},
{
horizontal = 1;
place = (441,59);
type = Stem;
},
{
place = (109,71);
type = Stem;
}
);
layerId = "8B72E089-1E16-4D07-A0B8-3936BD35683A";
shapes = (
{
closed = 1;
nodes = (
(109,132,ls),
(109,60,o),
(145,-10,o),
(246,-10,cs),
(266,-10,o),
(288,-8,o),
(312,-3,c),
(312,60,l),
(288,54,o),
(268,52,o),
(252,52,cs),
(191,52,o),
(180,93,o),
(180,136,cs),
(180,441,l),
(292,441,l),
(292,500,l),
(180,500,l),
(180,629,l),
(129,629,l),
(109,500,l),
(30,490,l),
(30,441,l),
(109,441,l)
);
}
);
width = 342;
},
{
hints = (
{
horizontal = 1;
place = (-10,35);
type = Stem;
},
{
horizontal = 1;
place = (-4,21);
target = up;
type = BottomGhost;
},
{
horizontal = 1;
place = (461,32);
type = Stem;
},
{
place = (114,40);
type = Stem;
}
);
layerId = "3FC04E8D-38CC-44E9-A58D-856391625EC6";
shapes = (
{
closed = 1;
nodes = (
(114,118,ls),
(114,56,o),
(140,-10,o),
(231,-10,cs),
(248,-10,o),
(265,-9,o),
(290,-4,c),
(290,33,l),
(269,27,o),
(247,25,o),
(230,25,cs),
(162,25,o),
(154,72,o),
(154,116,cs),
(154,461,l),
(270,461,l),
(270,493,l),
(154,493,l),
(154,618,l),
(125,618,l),
(114,493,l),
(33,485,l),
(33,459,l),
(114,459,l)
);
}
);
width = 322;
}
);
unicode = 116;
},
{
glyphname = u;
layers = (
{
hints = (
{
horizontal = 1;
place = (-7,128);
type = Stem;
},
{
horizontal = 1;
place = (0,121);
type = Stem;
},
{
horizontal = 1;
place = (523,-20);
target = down;
type = TopGhost;
},
{
place = (33,169);
type = Stem;
},
{
place = (342,168);
type = Stem;
}
);
layerId = "F516ED7C-7F23-41BA-A2F1-1EB4B95E9343";
shapes = (
{
closed = 1;
nodes = (
(521,0,l),
(512,44,o),
(510,76,o),
(510,163,cs),
(510,523,l),
(342,523,l),
(342,234,ls),
(342,158,o),
(314,121,o),
(270,121,cs),
(226,121,o),
(202,153,o),
(202,218,cs),
(202,523,l),
(33,523,l),
(33,193,ls),
(33,71,o),
(105,-7,o),
(210,-7,cs),
(266,-7,o),
(314,15,o),
(350,51,c),
(353,33,o),
(356,17,o),
(362,0,c)
);
}
);
width = 560;
},
{
hints = (
{
horizontal = 1;
place = (-9,64);
type = Stem;
},
{
horizontal = 1;
place = (0,21);
target = up;
type = BottomGhost;
},
{
horizontal = 1;
place = (500,-20);
target = down;
type = TopGhost;
},
{
place = (55,71);
type = Stem;
},
{
place = (396,71);
type = Stem;
}
);
layerId = "8B72E089-1E16-4D07-A0B8-3936BD35683A";
shapes = (
{
closed = 1;
nodes = (
(472,0,l),
(468,36,o),
(467,73,o),
(467,140,cs),
(467,500,l),
(396,500,l),
(396,201,ls),
(396,115,o),
(331,55,o),
(238,55,cs),
(172,55,o),
(126,104,o),
(126,174,cs),
(126,500,l),
(55,500,l),
(55,174,ls),
(55,64,o),
(125,-9,o),
(232,-9,cs),
(299,-9,o),
(357,26,o),
(396,75,c),
(399,50,o),
(404,25,o),
(411,0,c)
);
}
);
width = 527;
},
{
hints = (
{
horizontal = 1;
place = (-10,37);
type = Stem;
},
{
horizontal = 1;
place = (0,21);
target = up;
type = BottomGhost;
},
{
horizontal = 1;
place = (493,-20);
target = down;
type = TopGhost;
},
{
place = (60,40);
type = Stem;
},
{
place = (412,40);
type = Stem;
}
);
layerId = "3FC04E8D-38CC-44E9-A58D-856391625EC6";
shapes = (
{
closed = 1;
nodes = (
(455,0,l),
(453,33,o),
(452,72,o),
(452,133,cs),
(452,493,l),
(412,493,l),
(412,186,ls),
(412,95,o),
(340,27,o),
(237,27,cs),
(159,27,o),
(100,82,o),
(100,155,cs),
(100,493,l),
(60,493,l),
(60,168,ls),
(60,61,o),
(130,-10,o),
(237,-10,cs),
(309,-10,o),
(370,30,o),
(410,83,c),
(413,55,o),
(418,28,o),
(425,0,c)
);
}
);
width = 516;
}
);
unicode = 117;
},
{
glyphname = v;
layers = (
{
hints = (
{
horizontal = 1;
place = (0,21);
target = up;
type = BottomGhost;
},
{
horizontal = 1;
place = (523,-20);
target = down;
type = TopGhost;
},
{
place = (7,566);
type = Stem;
}
);
layerId = "F516ED7C-7F23-41BA-A2F1-1EB4B95E9343";
shapes = (
{
closed = 1;
nodes = (
(400,523,l),
(290,214,l),
(180,523,l),
(7,523,l),
(210,0,l),
(371,0,l),
(573,523,l)
);
}
);
width = 581;
},
{
hints = (
{
horizontal = 1;
place = (0,77);
type = Stem;
},
{
horizontal = 1;
place = (0,21);
target = up;
type = BottomGhost;
},
{
horizontal = 1;
place = (500,-20);
target = down;
type = TopGhost;
},
{
place = (30,464);
type = Stem;
}
);
layerId = "8B72E089-1E16-4D07-A0B8-3936BD35683A";
shapes = (
{
closed = 1;
nodes = (
(422,500,l),
(262,77,l),
(102,500,l),
(30,500,l),
(224,0,l),
(300,0,l),
(494,500,l)
);
}
);
width = 524;
},
{
hints = (
{
horizontal = 1;
place = (0,36);
type = Stem;
},
{
horizontal = 1;
place = (493,-20);
target = down;
type = TopGhost;
},
{
place = (37,432);
type = Stem;
}
);
layerId = "3FC04E8D-38CC-44E9-A58D-856391625EC6";
shapes = (
{
closed = 1;
nodes = (
(429,493,l),
(253,36,l),
(77,493,l),
(37,493,l),
(229,0,l),
(278,0,l),
(469,493,l)
);
}
);
width = 506;
}
);
unicode = 118;
},
{
glyphname = w;
layers = (
{
hints = (
{
horizontal = 1;
place = (0,21);
target = up;
type = BottomGhost;
},
{
horizontal = 1;
place = (523,-20);
target = down;
type = TopGhost;
},
{
place = (10,786);
type = Stem;
}
);
layerId = "F516ED7C-7F23-41BA-A2F1-1EB4B95E9343";
shapes = (
{
closed = 1;
nodes = (
(167,0,l),
(330,0,l),
(404,330,l),
(477,0,l),
(639,0,l),
(796,523,l),
(629,523,l),
(553,197,l),
(481,523,l),
(325,523,l),
(252,197,l),
(177,523,l),
(10,523,l)
);
}
);
width = 806;
},
{
hints = (
{
horizontal = 1;
place = (0,97);
type = Stem;
},
{
horizontal = 1;
place = (0,21);
target = up;
type = BottomGhost;
},
{
horizontal = 1;
place = (407,93);
type = Stem;
},
{
horizontal = 1;
place = (500,-20);
target = down;
type = TopGhost;
},
{
place = (30,700);
type = Stem;
}
);
layerId = "8B72E089-1E16-4D07-A0B8-3936BD35683A";
shapes = (
{
closed = 1;
nodes = (
(184,0,l),
(257,0,l),
(380,407,l),
(503,0,l),
(576,0,l),
(730,500,l),
(658,500,l),
(538,97,l),
(418,500,l),
(342,500,l),
(222,97,l),
(102,500,l),
(30,500,l)
);
}
);
width = 760;
},
{
hints = (
{
horizontal = 1;
place = (0,52);
type = Stem;
},
{
horizontal = 1;
place = (439,54);
type = Stem;
},
{
horizontal = 1;
place = (493,-20);
target = down;
type = TopGhost;
},
{
place = (36,673);
type = Stem;
}
);
layerId = "3FC04E8D-38CC-44E9-A58D-856391625EC6";
shapes = (
{
closed = 1;
nodes = (
(189,0,l),
(234,0,l),
(373,439,l),
(512,0,l),
(556,0,l),
(709,493,l),
(668,493,l),
(534,52,l),
(394,493,l),
(352,493,l),
(212,52,l),
(78,493,l),
(36,493,l)
);
}
);
width = 746;
}
);
unicode = 119;
},
{
glyphname = x;
layers = (
{
hints = (
{
horizontal = 1;
place = (0,21);
target = up;
type = BottomGhost;
},
{
horizontal = 1;
place = (523,-20);
target = down;
type = TopGhost;
},
{
place = (-3,575);
type = Stem;
}
);
layerId = "F516ED7C-7F23-41BA-A2F1-1EB4B95E9343";
shapes = (
{
closed = 1;
nodes = (
(193,266,l),
(-3,0,l),
(186,0,l),
(285,141,l),
(382,0,l),
(572,0,l),
(376,266,l),
(562,523,l),
(373,523,l),
(285,393,l),
(195,523,l),
(7,523,l)
);
}
);
width = 568;
},
{
hints = (
{
horizontal = 1;
place = (0,21);
target = up;
type = BottomGhost;
},
{
horizontal = 1;
place = (500,-20);
target = down;
type = TopGhost;
},
{
place = (35,453);
type = Stem;
}
);
layerId = "8B72E089-1E16-4D07-A0B8-3936BD35683A";
shapes = (
{
closed = 1;
nodes = (
(223,257,l),
(35,0,l),
(117,0,l),
(262,207,l),
(406,0,l),
(488,0,l),
(301,257,l),
(478,500,l),
(396,500,l),
(262,306,l),
(127,500,l),
(45,500,l)
);
}
);
width = 522;
},
{
hints = (
{
horizontal = 1;
place = (0,21);
target = up;
type = BottomGhost;
},
{
horizontal = 1;
place = (493,-20);
target = down;
type = TopGhost;
},
{
place = (48,413);
type = Stem;
}
);
layerId = "3FC04E8D-38CC-44E9-A58D-856391625EC6";
shapes = (
{
closed = 1;
nodes = (
(233,254,l),
(48,0,l),
(95,0,l),
(255,229,l),
(414,0,l),
(461,0,l),
(277,254,l),
(451,493,l),
(403,493,l),
(255,278,l),
(105,493,l),
(58,493,l)
);
}
);
width = 508;
}
);
unicode = 120;
},
{
glyphname = y;
layers = (
{
hints = (
{
horizontal = 1;
place = (-223,127);
type = Stem;
},
{
horizontal = 1;
place = (-203,21);
target = up;
type = BottomGhost;
},
{
horizontal = 1;
place = (0,21);
target = up;
type = BottomGhost;
},
{
horizontal = 1;
place = (523,-20);
target = down;
type = TopGhost;
},
{
place = (7,574);
type = Stem;
}
);
layerId = "F516ED7C-7F23-41BA-A2F1-1EB4B95E9343";
shapes = (
{
closed = 1;
nodes = (
(216,-13,ls),
(199,-56,o),
(178,-96,o),
(135,-96,cs),
(114,-96,o),
(94,-93,o),
(28,-71,c),
(28,-203,l),
(58,-216,o),
(105,-223,o),
(140,-223,cs),
(278,-223,o),
(324,-139,o),
(357,-55,cs),
(581,523,l),
(409,523,l),
(297,212,l),
(180,523,l),
(7,523,l),
(221,0,l)
);
}
);
width = 561;
},
{
hints = (
{
horizontal = 1;
place = (-209,62);
type = Stem;
},
{
horizontal = 1;
place = (-202,21);
target = up;
type = BottomGhost;
},
{
horizontal = 1;
place = (500,-20);
target = down;
type = TopGhost;
},
{
place = (30,455);
type = Stem;
}
);
layerId = "8B72E089-1E16-4D07-A0B8-3936BD35683A";
shapes = (
{
closed = 1;
nodes = (
(210,-36,l),
(191,-89,o),
(167,-147,o),
(94,-147,cs),
(78,-147,o),
(58,-145,o),
(34,-139,c),
(34,-202,l),
(58,-207,o),
(80,-209,o),
(100,-209,cs),
(213,-209,o),
(246,-119,o),
(276,-40,cs),
(485,500,l),
(414,500,l),
(257,89,l),
(102,500,l),
(30,500,l),
(224,0,l)
);
}
);
width = 515;
},
{
hints = (
{
horizontal = 1;
place = (-205,34);
type = Stem;
},
{
horizontal = 1;
place = (493,-20);
target = down;
type = TopGhost;
},
{
place = (36,418);
type = Stem;
}
);
layerId = "3FC04E8D-38CC-44E9-A58D-856391625EC6";
shapes = (
{
closed = 1;
nodes = (
(208,-43,l),
(188,-103,o),
(163,-171,o),
(81,-171,cs),
(66,-171,o),
(46,-170,o),
(36,-169,c),
(36,-202,l),
(58,-204,o),
(72,-205,o),
(87,-205,cs),
(192,-205,o),
(221,-113,o),
(250,-36,cs),
(454,493,l),
(416,493,l),
(244,50,l),
(77,493,l),
(37,493,l),
(225,2,l)
);
}
);
width = 501;
}
);
unicode = 121;
},
{
glyphname = z;
layers = (
{
hints = (
{
horizontal = 1;
place = (0,124);
type = Stem;
},
{
horizontal = 1;
place = (400,123);
type = Stem;
},
{
place = (32,473);
type = Stem;
},
{
place = (50,437);
type = Stem;
}
);
layerId = "F516ED7C-7F23-41BA-A2F1-1EB4B95E9343";
shapes = (
{
closed = 1;
nodes = (
(32,96,l),
(32,0,l),
(505,0,l),
(505,124,l),
(246,124,l),
(487,424,l),
(487,523,l),
(50,523,l),
(50,400,l),
(273,400,l)
);
}
);
width = 536;
},
{
hints = (
{
horizontal = 1;
place = (0,59);
type = Stem;
},
{
horizontal = 1;
place = (441,59);
type = Stem;
},
{
place = (40,408);
type = Stem;
},
{
place = (60,368);
type = Stem;
}
);
layerId = "8B72E089-1E16-4D07-A0B8-3936BD35683A";
shapes = (
{
closed = 1;
nodes = (
(40,60,l),
(40,0,l),
(448,0,l),
(448,59,l),
(124,59,l),
(428,440,l),
(428,500,l),
(60,500,l),
(60,441,l),
(344,441,l)
);
}
);
width = 488;
},
{
hints = (
{
horizontal = 1;
place = (0,36);
type = Stem;
},
{
horizontal = 1;
place = (457,36);
type = Stem;
},
{
place = (43,42);
type = Stem;
},
{
place = (367,42);
type = Stem;
}
);
layerId = "3FC04E8D-38CC-44E9-A58D-856391625EC6";
shapes = (
{
closed = 1;
nodes = (
(43,46,l),
(43,0,l),
(430,0,l),
(430,36,l),
(85,36,l),
(409,448,l),
(409,493,l),
(64,493,l),
(64,457,l),
(367,457,l)
);
}
);
width = 473;
}
);
unicode = 122;
},
{
glyphname = braceleft;
layers = (
{
hints = (
{
horizontal = 1;
place = (-180,136);
type = Stem;
},
{
horizontal = 1;
place = (569,134);
type = Stem;
},
{
place = (58,178);
type = Stem;
}
);
layerId = "F516ED7C-7F23-41BA-A2F1-1EB4B95E9343";
shapes = (
{
closed = 1;
nodes = (
(58,1,ls),
(58,-101,o),
(141,-180,o),
(256,-180,cs),
(385,-180,l),
(385,-44,l),
(263,-44,ls),
(245,-44,o),
(236,-37,o),
(236,0,cs),
(236,524,ls),
(236,562,o),
(245,569,o),
(263,569,cs),
(385,569,l),
(385,703,l),
(256,703,ls),
(141,703,o),
(58,624,o),
(58,523,cs)
);
}
);
width = 407;
},
{
hints = (
{
horizontal = 1;
place = (-200,66);
type = Stem;
},
{
horizontal = 1;
place = (634,66);
type = Stem;
},
{
place = (70,74);
type = Stem;
}
);
layerId = "8B72E089-1E16-4D07-A0B8-3936BD35683A";
shapes = (
{
closed = 1;
nodes = (
(70,-41,ls),
(70,-133,o),
(137,-200,o),
(229,-200,cs),
(309,-200,l),
(309,-134,l),
(236,-134,ls),
(183,-134,o),
(144,-95,o),
(144,-42,cs),
(144,542,ls),
(144,595,o),
(183,634,o),
(236,634,cs),
(309,634,l),
(309,700,l),
(229,700,ls),
(137,700,o),
(70,633,o),
(70,541,cs)
);
}
);
width = 339;
},
{
hints = (
{
horizontal = 1;
place = (-207,43);
type = Stem;
},
{
horizontal = 1;
place = (656,43);
type = Stem;
},
{
place = (74,40);
type = Stem;
}
);
layerId = "3FC04E8D-38CC-44E9-A58D-856391625EC6";
shapes = (
{
closed = 1;
nodes = (
(74,-55,ls),
(74,-144,o),
(136,-207,o),
(220,-207,cs),
(284,-207,l),
(284,-164,l),
(227,-164,ls),
(163,-164,o),
(114,-114,o),
(114,-56,cs),
(114,548,ls),
(114,606,o),
(163,656,o),
(227,656,cs),
(284,656,l),
(284,699,l),
(220,699,ls),
(136,699,o),
(74,636,o),
(74,547,cs)
);
}
);
width = 317;
}
);
unicode = 123;
},
{
glyphname = bar;
layers = (
{
hints = (
{
horizontal = 1;
place = (703,-20);
target = down;
type = TopGhost;
},
{
place = (85,178);
type = Stem;
}
);
layerId = "F516ED7C-7F23-41BA-A2F1-1EB4B95E9343";
shapes = (
{
closed = 1;
nodes = (
(85,-180,l),
(263,-180,l),
(263,703,l),
(85,703,l)
);
}
);
width = 350;
},
{
hints = (
{
horizontal = 1;
place = (-200,21);
target = up;
type = BottomGhost;
},
{
horizontal = 1;
place = (700,-20);
target = down;
type = TopGhost;
},
{
place = (100,74);
type = Stem;
}
);
layerId = "8B72E089-1E16-4D07-A0B8-3936BD35683A";
shapes = (
{
closed = 1;
nodes = (
(100,-200,l),
(174,-200,l),
(174,700,l),
(100,700,l)
);
}
);
width = 274;
},
{
hints = (
{
horizontal = 1;
place = (-207,21);
target = up;
type = BottomGhost;
},
{
horizontal = 1;
place = (699,-20);
target = down;
type = TopGhost;
},
{
place = (105,40);
type = Stem;
}
);
layerId = "3FC04E8D-38CC-44E9-A58D-856391625EC6";
shapes = (
{
closed = 1;
nodes = (
(105,-207,l),
(145,-207,l),
(145,699,l),
(105,699,l)
);
}
);
width = 249;
}
);
unicode = 124;
},
{
glyphname = braceright;
layers = (
{
hints = (
{
horizontal = 1;
place = (-180,136);
type = Stem;
},
{
horizontal = 1;
place = (569,134);
type = Stem;
},
{
place = (169,180);
type = Stem;
}
);
layerId = "F516ED7C-7F23-41BA-A2F1-1EB4B95E9343";
shapes = (
{
closed = 1;
nodes = (
(349,523,ls),
(349,624,o),
(266,703,o),
(149,703,cs),
(22,703,l),
(22,569,l),
(144,569,ls),
(162,569,o),
(169,562,o),
(169,524,cs),
(169,0,ls),
(169,-37,o),
(162,-44,o),
(144,-44,cs),
(22,-44,l),
(22,-180,l),
(149,-180,ls),
(266,-180,o),
(349,-101,o),
(349,1,cs)
);
}
);
width = 407;
},
{
hints = (
{
horizontal = 1;
place = (-200,66);
type = Stem;
},
{
horizontal = 1;
place = (634,66);
type = Stem;
},
{
place = (195,74);
type = Stem;
}
);
layerId = "8B72E089-1E16-4D07-A0B8-3936BD35683A";
shapes = (
{
closed = 1;
nodes = (
(269,541,ls),
(269,633,o),
(202,700,o),
(110,700,cs),
(30,700,l),
(30,634,l),
(103,634,ls),
(156,634,o),
(195,595,o),
(195,542,cs),
(195,-42,ls),
(195,-95,o),
(156,-134,o),
(103,-134,cs),
(30,-134,l),
(30,-200,l),
(110,-200,ls),
(202,-200,o),
(269,-133,o),
(269,-41,cs)
);
}
);
width = 339;
},
{
hints = (
{
horizontal = 1;
place = (-207,43);
type = Stem;
},
{
horizontal = 1;
place = (656,43);
type = Stem;
},
{
place = (204,39);
type = Stem;
}
);
layerId = "3FC04E8D-38CC-44E9-A58D-856391625EC6";
shapes = (
{
closed = 1;
nodes = (
(243,547,ls),
(243,636,o),
(181,699,o),
(97,699,cs),
(33,699,l),
(33,656,l),
(90,656,ls),
(154,656,o),
(204,606,o),
(204,548,cs),
(204,-56,ls),
(204,-114,o),
(154,-164,o),
(90,-164,cs),
(33,-164,l),
(33,-207,l),
(97,-207,ls),
(181,-207,o),
(243,-144,o),
(243,-55,cs)
);
}
);
width = 317;
}
);
unicode = 125;
},
{
glyphname = asciitilde;
layers = (
{
hints = (
{
horizontal = 1;
place = (199,150);
type = Stem;
},
{
horizontal = 1;
place = (262,150);
type = Stem;
},
{
place = (9,603);
type = Stem;
}
);
layerId = "F516ED7C-7F23-41BA-A2F1-1EB4B95E9343";
shapes = (
{
closed = 1;
nodes = (
(127,182,l),
(174,247,o),
(184,262,o),
(218,262,cs),
(242,262,o),
(259,253,o),
(285,237,cs),
(313,221,o),
(351,199,o),
(403,199,cs),
(507,199,o),
(571,273,o),
(612,336,c),
(494,429,l),
(447,364,o),
(437,349,o),
(403,349,cs),
(379,349,o),
(362,358,o),
(336,374,cs),
(308,390,o),
(270,412,o),
(218,412,cs),
(114,412,o),
(51,337,o),
(9,274,c)
);
}
);
width = 632;
},
{
hints = (
{
horizontal = 1;
place = (240,68);
type = Stem;
},
{
horizontal = 1;
place = (303,68);
type = Stem;
},
{
place = (50,491);
type = Stem;
}
);
layerId = "8B72E089-1E16-4D07-A0B8-3936BD35683A";
shapes = (
{
closed = 1;
nodes = (
(104,240,l),
(136,282,o),
(161,303,o),
(203,303,cs),
(238,303,o),
(264,288,o),
(291,273,c),
(319,256,o),
(348,240,o),
(388,240,cs),
(457,240,o),
(504,281,o),
(541,329,c),
(487,371,l),
(455,329,o),
(430,308,o),
(388,308,cs),
(353,308,o),
(327,323,o),
(300,338,c),
(272,355,o),
(243,371,o),
(203,371,cs),
(134,371,o),
(87,330,o),
(50,282,c)
);
}
);
width = 591;
},
{
hints = (
{
horizontal = 1;
place = (254,41);
type = Stem;
},
{
horizontal = 1;
place = (317,41);
type = Stem;
},
{
place = (64,454);
type = Stem;
}
);
layerId = "3FC04E8D-38CC-44E9-A58D-856391625EC6";
shapes = (
{
closed = 1;
nodes = (
(97,259,l),
(124,294,o),
(154,317,o),
(198,317,cs),
(237,317,o),
(266,300,o),
(293,285,c),
(321,268,o),
(347,254,o),
(383,254,cs),
(441,254,o),
(482,284,o),
(518,327,c),
(485,352,l),
(458,318,o),
(428,295,o),
(383,295,cs),
(345,295,o),
(316,312,o),
(288,326,c),
(260,344,o),
(234,358,o),
(198,358,cs),
(141,358,o),
(99,328,o),
(64,285,c)
);
}
);
width = 578;
}
);
unicode = 126;
},
{
glyphname = exclamdown;
layers = (
{
hints = (
{
horizontal = 1;
place = (358,152);
type = Stem;
},
{
place = (82,194);
type = Stem;
},
{
place = (86,184);
type = Stem;
}
);
layerId = "F516ED7C-7F23-41BA-A2F1-1EB4B95E9343";
shapes = (
{
closed = 1;
nodes = (
(270,29,l),
(252,285,l),
(106,285,l),
(86,29,l),
(86,-193,l),
(270,-193,l)
);
},
{
closed = 1;
nodes = (
(82,510,l),
(82,358,l),
(276,358,l),
(276,510,l)
);
}
);
width = 358;
},
{
hints = (
{
horizontal = 1;
place = (425,85);
type = Stem;
},
{
place = (70,91);
type = Stem;
},
{
place = (75,80);
type = Stem;
}
);
layerId = "8B72E089-1E16-4D07-A0B8-3936BD35683A";
shapes = (
{
closed = 1;
nodes = (
(155,99,l),
(137,343,l),
(94,343,l),
(75,99,l),
(75,-190,l),
(155,-190,l)
);
},
{
closed = 1;
nodes = (
(70,510,l),
(70,425,l),
(161,425,l),
(161,510,l)
);
}
);
width = 231;
},
{
hints = (
{
horizontal = 1;
place = (447,63);
type = Stem;
},
{
place = (66,57);
type = Stem;
},
{
place = (71,46);
type = Stem;
}
);
layerId = "3FC04E8D-38CC-44E9-A58D-856391625EC6";
shapes = (
{
closed = 1;
nodes = (
(117,122,l),
(110,362,l),
(79,362,l),
(71,122,l),
(71,-189,l),
(117,-189,l)
);
},
{
closed = 1;
nodes = (
(66,510,l),
(66,447,l),
(123,447,l),
(123,510,l)
);
}
);
width = 189;
}
);
unicode = 161;
},
{
glyphname = cent;
layers = (
{
hints = (
{
horizontal = 1;
place = (708,-20);
target = down;
type = TopGhost;
},
{
place = (32,168);
type = Stem;
}
);
layerId = "F516ED7C-7F23-41BA-A2F1-1EB4B95E9343";
shapes = (
{
closed = 1;
nodes = (
(171,18,l),
(294,6,l),
(310,96,l),
(446,101,o),
(539,196,o),
(552,259,c),
(391,301,l),
(381,270,o),
(359,246,o),
(334,234,c),
(374,462,l),
(381,452,o),
(386,440,o),
(389,427,c),
(552,470,l),
(542,520,o),
(487,586,o),
(401,618,c),
(417,708,l),
(296,722,l),
(281,636,l),
(135,628,o),
(32,520,o),
(32,366,cs),
(32,248,o),
(93,156,o),
(189,117,c)
);
},
{
closed = 1;
nodes = (
(200,429,o),
(221,475,o),
(256,495,c),
(217,279,l),
(206,302,o),
(200,331,o),
(200,366,cs)
);
}
);
width = 574;
},
{
hints = (
{
horizontal = 1;
place = (0,21);
target = up;
type = BottomGhost;
},
{
horizontal = 1;
place = (96,65);
type = Stem;
},
{
horizontal = 1;
place = (549,65);
type = Stem;
},
{
horizontal = 1;
place = (699,-20);
target = down;
type = TopGhost;
},
{
place = (40,71);
type = Stem;
}
);
layerId = "8B72E089-1E16-4D07-A0B8-3936BD35683A";
shapes = (
{
closed = 1;
nodes = (
(173,11,l),
(237,0,l),
(254,97,l),
(362,82,o),
(463,153,o),
(493,256,c),
(424,268,l),
(400,190,o),
(343,161,o),
(265,161,c),
(332,540,l),
(377,524,o),
(409,489,o),
(424,438,c),
(493,450,l),
(471,527,o),
(417,584,o),
(343,605,c),
(360,699,l),
(296,710,l),
(279,614,l),
(129,614,o),
(40,499,o),
(40,355,cs),
(40,237,o),
(99,146,o),
(191,111,c)
);
},
{
closed = 1;
nodes = (
(111,471,o),
(172,545,o),
(268,549,c),
(202,177,l),
(145,205,o),
(111,269,o),
(111,355,cs)
);
}
);
width = 526;
},
{
hints = (
{
horizontal = 1;
place = (96,35);
type = Stem;
},
{
horizontal = 1;
place = (572,36);
type = Stem;
},
{
horizontal = 1;
place = (703,-20);
target = down;
type = TopGhost;
},
{
horizontal = 1;
place = (706,-20);
target = down;
type = TopGhost;
},
{
place = (43,39);
type = Stem;
}
);
layerId = "3FC04E8D-38CC-44E9-A58D-856391625EC6";
shapes = (
{
closed = 1;
nodes = (
(178,9,l),
(207,5,l),
(224,100,l),
(345,84,o),
(437,131,o),
(474,255,c),
(435,257,l),
(408,163,o),
(324,113,o),
(230,135,c),
(306,569,l),
(371,557,o),
(416,512,o),
(436,442,c),
(474,444,l),
(447,536,o),
(388,590,o),
(313,604,c),
(330,703,l),
(300,706,l),
(283,608,l),
(128,608,o),
(43,501,o),
(43,351,cs),
(43,231,o),
(102,140,o),
(195,108,c)
);
},
{
closed = 1;
nodes = (
(82,476,o),
(144,572,o),
(277,572,c),
(201,143,l),
(127,171,o),
(82,246,o),
(82,351,cs)
);
}
);
width = 510;
}
);
unicode = 162;
},
{
glyphname = sterling;
layers = (
{
hints = (
{
horizontal = 1;
place = (-9,139);
type = Stem;
},
{
horizontal = 1;
place = (14,136);
type = Stem;
},
{
horizontal = 1;
place = (259,128);
type = Stem;
},
{
horizontal = 1;
place = (572,139);
type = Stem;
},
{
place = (64,182);
type = Stem;
}
);
layerId = "F516ED7C-7F23-41BA-A2F1-1EB4B95E9343";
shapes = (
{
closed = 1;
nodes = (
(22,259,l),
(151,259,l),
(154,251,o),
(155,244,o),
(155,237,cs),
(155,204,o),
(121,156,o),
(18,128,c),
(64,-16,l),
(129,4,o),
(150,14,o),
(209,14,cs),
(248,14,o),
(355,-9,o),
(412,-9,cs),
(468,-9,o),
(531,5,o),
(608,52,c),
(562,176,l),
(491,136,o),
(461,130,o),
(406,130,cs),
(353,130,o),
(287,150,o),
(230,150,cs),
(223,150,o),
(215,150,o),
(207,149,c),
(312,175,o),
(332,214,o),
(332,257,cs),
(332,258,o),
(332,258,o),
(332,259,c),
(483,259,l),
(483,387,l),
(276,387,l),
(260,418,o),
(246,454,o),
(246,503,cs),
(246,542,o),
(266,572,o),
(313,572,cs),
(371,572,o),
(410,541,o),
(431,461,c),
(593,497,l),
(573,615,o),
(462,711,o),
(311,711,cs),
(169,711,o),
(64,621,o),
(64,501,cs),
(64,461,o),
(76,423,o),
(92,387,c),
(22,387,l)
);
}
);
width = 624;
},
{
hints = (
{
horizontal = 1;
place = (-9,69);
type = Stem;
},
{
horizontal = 1;
place = (16,66);
type = Stem;
},
{
horizontal = 1;
place = (289,59);
type = Stem;
},
{
horizontal = 1;
place = (639,69);
type = Stem;
},
{
place = (78,76);
type = Stem;
},
{
place = (178,72);
type = Stem;
}
);
layerId = "8B72E089-1E16-4D07-A0B8-3936BD35683A";
shapes = (
{
closed = 1;
nodes = (
(30,289,l),
(161,289,l),
(171,266,o),
(178,244,o),
(178,222,cs),
(178,175,o),
(148,126,o),
(36,57,c),
(61,-10,l),
(90,4,o),
(126,16,o),
(176,16,cs),
(250,16,o),
(323,-9,o),
(402,-9,cs),
(445,-9,o),
(487,-1,o),
(550,31,c),
(526,95,l),
(485,68,o),
(440,60,o),
(396,60,cs),
(324,60,o),
(254,82,o),
(200,82,cs),
(181,82,o),
(165,79,o),
(137,72,c),
(229,120,o),
(250,162,o),
(250,211,cs),
(250,237,o),
(243,263,o),
(233,289,c),
(418,289,l),
(418,348,l),
(207,348,l),
(182,403,o),
(154,459,o),
(154,518,cs),
(154,589,o),
(211,639,o),
(292,639,cs),
(375,639,o),
(441,589,o),
(463,510,c),
(534,535,l),
(502,641,o),
(409,708,o),
(290,708,cs),
(166,708,o),
(78,629,o),
(78,516,cs),
(78,450,o),
(105,396,o),
(131,348,c),
(30,348,l)
);
}
);
width = 580;
},
{
hints = (
{
horizontal = 1;
place = (-9,46);
type = Stem;
},
{
horizontal = 1;
place = (17,43);
type = Stem;
},
{
horizontal = 1;
place = (299,36);
type = Stem;
},
{
horizontal = 1;
place = (671,36);
type = Stem;
},
{
place = (83,41);
type = Stem;
},
{
place = (186,37);
type = Stem;
}
);
layerId = "3FC04E8D-38CC-44E9-A58D-856391625EC6";
shapes = (
{
closed = 1;
nodes = (
(33,299,l),
(164,299,l),
(177,272,o),
(186,245,o),
(186,217,cs),
(186,166,o),
(157,116,o),
(42,34,c),
(60,-8,l),
(77,4,o),
(118,17,o),
(165,17,cs),
(251,17,o),
(313,-9,o),
(399,-9,cs),
(438,-9,o),
(473,-3,o),
(531,24,c),
(518,60,l),
(485,45,o),
(434,37,o),
(393,37,cs),
(315,37,o),
(243,60,o),
(190,60,cs),
(173,60,o),
(159,57,o),
(129,50,c),
(203,113,o),
(223,160,o),
(223,216,cs),
(223,244,o),
(215,271,o),
(203,299,c),
(397,299,l),
(397,335,l),
(186,335,l),
(158,392,o),
(124,452,o),
(124,523,cs),
(124,607,o),
(193,671,o),
(285,671,cs),
(375,671,o),
(451,613,o),
(477,534,c),
(515,548,l),
(479,650,o),
(392,707,o),
(283,707,cs),
(165,707,o),
(83,632,o),
(83,521,cs),
(83,445,o),
(117,388,o),
(146,335,c),
(33,335,l)
);
}
);
width = 566;
}
);
unicode = 163;
},
{
glyphname = currency;
layers = (
{
hints = (
{
horizontal = 1;
place = (85,145);
type = Stem;
},
{
horizontal = 1;
place = (433,144);
type = Stem;
},
{
place = (82,167);
type = Stem;
},
{
place = (420,167);
type = Stem;
}
);
layerId = "F516ED7C-7F23-41BA-A2F1-1EB4B95E9343";
shapes = (
{
closed = 1;
nodes = (
(587,372,o),
(578,410,o),
(561,446,c),
(619,504,l),
(509,616,l),
(448,555,l),
(415,570,o),
(376,577,o),
(335,577,cs),
(294,577,o),
(253,570,o),
(222,555,c),
(161,616,l),
(50,505,l),
(108,447,l),
(91,411,o),
(82,373,o),
(82,331,cs),
(82,290,o),
(91,252,o),
(108,216,c),
(50,158,l),
(161,46,l),
(222,107,l),
(255,92,o),
(294,85,o),
(335,85,cs),
(375,85,o),
(416,92,o),
(448,107,c),
(509,46,l),
(619,157,l),
(561,215,l),
(578,251,o),
(587,288,o),
(587,331,cs)
);
},
{
closed = 1;
nodes = (
(249,405,o),
(275,433,o),
(335,433,cs),
(394,433,o),
(420,405,o),
(420,332,cs),
(420,258,o),
(394,230,o),
(335,230,cs),
(275,230,o),
(249,258,o),
(249,332,cs)
);
}
);
width = 669;
},
{
hints = (
{
horizontal = 1;
place = (130,55);
type = Stem;
},
{
horizontal = 1;
place = (478,54);
type = Stem;
},
{
horizontal = 1;
place = (504,-20);
target = down;
type = TopGhost;
},
{
horizontal = 1;
place = (505,-20);
target = down;
type = TopGhost;
},
{
place = (66,60);
type = Stem;
},
{
place = (404,60);
type = Stem;
}
);
layerId = "8B72E089-1E16-4D07-A0B8-3936BD35683A";
shapes = (
{
closed = 1;
nodes = (
(464,378,o),
(451,419,o),
(428,452,c),
(480,504,l),
(439,546,l),
(387,494,l),
(354,518,o),
(312,532,o),
(265,532,cs),
(217,532,o),
(176,518,o),
(143,494,c),
(91,546,l),
(50,505,l),
(102,453,l),
(79,420,o),
(66,378,o),
(66,331,cs),
(66,284,o),
(79,243,o),
(102,210,c),
(50,158,l),
(91,116,l),
(143,168,l),
(176,144,o),
(218,130,o),
(265,130,cs),
(313,130,o),
(354,144,o),
(387,168,c),
(439,116,l),
(480,157,l),
(428,209,l),
(451,242,o),
(464,284,o),
(464,331,cs)
);
},
{
closed = 1;
nodes = (
(126,422,o),
(181,478,o),
(265,478,cs),
(349,478,o),
(404,422,o),
(404,332,cs),
(404,242,o),
(349,185,o),
(265,185,cs),
(181,185,o),
(126,242,o),
(126,332,cs)
);
}
);
width = 530;
},
{
hints = (
{
horizontal = 1;
place = (145,25);
type = Stem;
},
{
horizontal = 1;
place = (493,24);
type = Stem;
},
{
horizontal = 1;
place = (504,-20);
target = down;
type = TopGhost;
},
{
horizontal = 1;
place = (505,-20);
target = down;
type = TopGhost;
},
{
place = (61,25);
type = Stem;
},
{
place = (399,25);
type = Stem;
}
);
layerId = "3FC04E8D-38CC-44E9-A58D-856391625EC6";
shapes = (
{
closed = 1;
nodes = (
(424,380,o),
(409,422,o),
(384,454,c),
(434,504,l),
(416,523,l),
(367,474,l),
(334,501,o),
(291,517,o),
(242,517,cs),
(192,517,o),
(151,501,o),
(117,474,c),
(68,523,l),
(50,505,l),
(100,455,l),
(75,423,o),
(61,380,o),
(61,331,cs),
(61,282,o),
(75,240,o),
(100,208,c),
(50,158,l),
(68,139,l),
(117,188,l),
(150,161,o),
(193,145,o),
(242,145,cs),
(293,145,o),
(334,161,o),
(367,188,c),
(416,139,l),
(434,157,l),
(384,207,l),
(409,239,o),
(424,283,o),
(424,331,cs)
);
},
{
closed = 1;
nodes = (
(86,428,o),
(150,493,o),
(242,493,cs),
(334,493,o),
(399,428,o),
(399,332,cs),
(399,237,o),
(334,170,o),
(242,170,cs),
(150,170,o),
(86,237,o),
(86,332,cs)
);
}
);
width = 484;
}
);
unicode = 164;
},
{
glyphname = yen;
layers = (
{
hints = (
{
horizontal = 1;
place = (0,183);
type = Stem;
},
{
horizontal = 1;
place = (84,99);
type = Stem;
},
{
horizontal = 1;
place = (213,98);
type = Stem;
},
{
horizontal = 1;
place = (703,-20);
target = down;
type = TopGhost;
},
{
place = (248,178);
type = Stem;
}
);
layerId = "F516ED7C-7F23-41BA-A2F1-1EB4B95E9343";
shapes = (
{
closed = 1;
nodes = (
(106,213,l),
(248,213,l),
(248,183,l),
(106,183,l),
(106,84,l),
(248,84,l),
(248,0,l),
(426,0,l),
(426,84,l),
(567,84,l),
(567,183,l),
(426,183,l),
(426,213,l),
(567,213,l),
(567,311,l),
(451,311,l),
(681,703,l),
(485,703,l),
(336,420,l),
(188,703,l),
(-8,703,l),
(223,311,l),
(106,311,l)
);
}
);
width = 673;
},
{
hints = (
{
horizontal = 1;
place = (0,154);
type = Stem;
},
{
horizontal = 1;
place = (95,59);
type = Stem;
},
{
horizontal = 1;
place = (215,59);
type = Stem;
},
{
horizontal = 1;
place = (700,-20);
target = down;
type = TopGhost;
},
{
place = (281,74);
type = Stem;
}
);
layerId = "8B72E089-1E16-4D07-A0B8-3936BD35683A";
shapes = (
{
closed = 1;
nodes = (
(124,215,l),
(281,215,l),
(281,154,l),
(124,154,l),
(124,95,l),
(281,95,l),
(281,0,l),
(355,0,l),
(355,95,l),
(512,95,l),
(512,154,l),
(355,154,l),
(355,215,l),
(512,215,l),
(512,274,l),
(360,274,l),
(610,700,l),
(526,700,l),
(318,336,l),
(109,700,l),
(25,700,l),
(276,274,l),
(124,274,l)
);
}
);
width = 635;
},
{
hints = (
{
horizontal = 1;
place = (0,141);
type = Stem;
},
{
horizontal = 1;
place = (109,32);
type = Stem;
},
{
horizontal = 1;
place = (226,33);
type = Stem;
},
{
horizontal = 1;
place = (699,-20);
target = down;
type = TopGhost;
},
{
place = (292,40);
type = Stem;
}
);
layerId = "3FC04E8D-38CC-44E9-A58D-856391625EC6";
shapes = (
{
closed = 1;
nodes = (
(130,226,l),
(292,226,l),
(292,141,l),
(130,141,l),
(130,109,l),
(292,109,l),
(292,0,l),
(332,0,l),
(332,109,l),
(494,109,l),
(494,141,l),
(332,141,l),
(332,226,l),
(494,226,l),
(494,259,l),
(332,259,l),
(587,699,l),
(540,699,l),
(312,305,l),
(83,699,l),
(36,699,l),
(292,259,l),
(130,259,l)
);
}
);
width = 623;
}
);
unicode = 165;
},
{
glyphname = brokenbar;
layers = (
{
hints = (
{
horizontal = 1;
place = (703,-20);
target = down;
type = TopGhost;
},
{
place = (85,178);
type = Stem;
}
);
layerId = "F516ED7C-7F23-41BA-A2F1-1EB4B95E9343";
shapes = (
{
closed = 1;
nodes = (
(85,312,l),
(263,312,l),
(263,703,l),
(85,703,l)
);
},
{
closed = 1;
nodes = (
(85,-180,l),
(263,-180,l),
(263,213,l),
(85,213,l)
);
}
);
width = 350;
},
{
hints = (
{
horizontal = 1;
place = (-200,21);
target = up;
type = BottomGhost;
},
{
horizontal = 1;
place = (700,-20);
target = down;
type = TopGhost;
},
{
place = (100,74);
type = Stem;
}
);
layerId = "8B72E089-1E16-4D07-A0B8-3936BD35683A";
shapes = (
{
closed = 1;
nodes = (
(100,348,l),
(174,348,l),
(174,700,l),
(100,700,l)
);
},
{
closed = 1;
nodes = (
(100,-200,l),
(174,-200,l),
(174,152,l),
(100,152,l)
);
}
);
width = 274;
},
{
hints = (
{
horizontal = 1;
place = (-207,21);
target = up;
type = BottomGhost;
},
{
horizontal = 1;
place = (699,-20);
target = down;
type = TopGhost;
},
{
place = (105,40);
type = Stem;
}
);
layerId = "3FC04E8D-38CC-44E9-A58D-856391625EC6";
shapes = (
{
closed = 1;
nodes = (
(105,360,l),
(145,360,l),
(145,699,l),
(105,699,l)
);
},
{
closed = 1;
nodes = (
(105,-207,l),
(145,-207,l),
(145,132,l),
(105,132,l)
);
}
);
width = 249;
}
);
unicode = 166;
},
{
glyphname = section;
layers = (
{
hints = (
{
horizontal = 1;
place = (-108,135);
type = Stem;
},
{
horizontal = 1;
place = (576,135);
type = Stem;
},
{
place = (49,174);
type = Stem;
},
{
place = (63,176);
type = Stem;
},
{
place = (335,176);
type = Stem;
},
{
place = (352,173);
type = Stem;
}
);
layerId = "F516ED7C-7F23-41BA-A2F1-1EB4B95E9343";
shapes = (
{
closed = 1;
nodes = (
(415,-108,o),
(511,-36,o),
(511,53,cs),
(511,105,o),
(490,142,o),
(459,171,c),
(500,195,o),
(525,233,o),
(525,281,cs),
(525,355,o),
(471,414,o),
(332,470,cs),
(272,494,o),
(239,506,o),
(239,540,cs),
(239,559,o),
(254,576,o),
(280,576,cs),
(317,576,o),
(338,558,o),
(345,508,c),
(515,537,l),
(509,625,o),
(407,711,o),
(280,711,cs),
(159,711,o),
(63,639,o),
(63,550,cs),
(63,498,o),
(84,461,o),
(115,432,c),
(74,407,o),
(49,369,o),
(49,321,cs),
(49,248,o),
(104,188,o),
(242,133,cs),
(302,109,o),
(335,96,o),
(335,63,cs),
(335,42,o),
(322,27,o),
(295,27,cs),
(249,27,o),
(219,48,o),
(211,105,c),
(40,76,l),
(47,-15,o),
(155,-108,o),
(295,-108,cs)
);
},
{
closed = 1;
nodes = (
(337,314,o),
(352,303,o),
(352,278,cs),
(352,260,o),
(347,250,o),
(338,244,c),
(332,246,o),
(327,249,o),
(322,251,cs),
(238,289,o),
(223,300,o),
(223,324,cs),
(223,342,o),
(228,354,o),
(238,360,c),
(242,357,o),
(247,355,o),
(252,353,cs)
);
}
);
width = 574;
},
{
hints = (
{
horizontal = 1;
place = (-120,65);
type = Stem;
},
{
horizontal = 1;
place = (643,65);
type = Stem;
},
{
place = (60,69);
type = Stem;
},
{
place = (77,70);
type = Stem;
},
{
place = (379,70);
type = Stem;
},
{
place = (397,69);
type = Stem;
}
);
layerId = "8B72E089-1E16-4D07-A0B8-3936BD35683A";
shapes = (
{
closed = 1;
nodes = (
(371,-120,o),
(449,-60,o),
(449,17,cs),
(449,78,o),
(420,116,o),
(378,144,c),
(432,169,o),
(466,216,o),
(466,271,cs),
(466,337,o),
(416,384,o),
(287,443,cs),
(213,477,o),
(147,507,o),
(147,571,cs),
(147,611,o),
(194,643,o),
(254,643,cs),
(317,643,o),
(373,602,o),
(390,543,c),
(459,555,l),
(433,645,o),
(349,708,o),
(254,708,cs),
(155,708,o),
(77,648,o),
(77,571,cs),
(77,510,o),
(106,472,o),
(148,444,c),
(94,419,o),
(60,372,o),
(60,317,cs),
(60,251,o),
(110,204,o),
(239,145,cs),
(313,111,o),
(379,81,o),
(379,17,cs),
(379,-23,o),
(332,-55,o),
(272,-55,cs),
(204,-55,o),
(145,-10,o),
(126,55,c),
(57,43,l),
(83,-53,o),
(173,-120,o),
(272,-120,cs)
);
},
{
closed = 1;
nodes = (
(358,340,o),
(397,311,o),
(397,268,cs),
(397,222,o),
(354,189,o),
(302,186,c),
(293,191,o),
(284,195,o),
(275,199,cs),
(168,248,o),
(129,277,o),
(129,320,cs),
(129,366,o),
(172,399,o),
(224,402,c),
(233,398,o),
(242,393,o),
(251,389,cs)
);
}
);
width = 526;
},
{
hints = (
{
horizontal = 1;
place = (-117,35);
type = Stem;
},
{
horizontal = 1;
place = (672,35);
type = Stem;
},
{
place = (64,34);
type = Stem;
},
{
place = (82,35);
type = Stem;
},
{
place = (394,35);
type = Stem;
},
{
place = (412,35);
type = Stem;
}
);
layerId = "3FC04E8D-38CC-44E9-A58D-856391625EC6";
shapes = (
{
closed = 1;
nodes = (
(357,-117,o),
(429,-74,o),
(429,5,cs),
(429,70,o),
(396,108,o),
(349,137,c),
(408,159,o),
(447,213,o),
(447,268,cs),
(447,331,o),
(399,376,o),
(272,434,c),
(194,471,o),
(117,506,o),
(117,578,cs),
(117,637,o),
(177,672,o),
(246,672,cs),
(317,672,o),
(385,621,o),
(405,555,c),
(441,561,l),
(408,652,o),
(330,707,o),
(246,707,cs),
(154,707,o),
(82,661,o),
(82,578,cs),
(82,516,o),
(112,479,o),
(156,451,c),
(101,426,o),
(64,373,o),
(64,316,cs),
(64,252,o),
(111,207,o),
(238,149,cs),
(317,113,o),
(394,78,o),
(394,5,cs),
(394,-51,o),
(334,-82,o),
(265,-82,cs),
(189,-82,o),
(121,-29,o),
(98,39,c),
(63,32,l),
(95,-62,o),
(179,-117,o),
(265,-117,cs)
);
},
{
closed = 1;
nodes = (
(365,349,o),
(412,314,o),
(412,265,cs),
(412,214,o),
(363,166,o),
(310,158,c),
(294,166,o),
(277,174,o),
(260,182,cs),
(145,235,o),
(98,270,o),
(98,319,cs),
(98,370,o),
(143,418,o),
(192,430,c),
(210,420,o),
(231,411,o),
(251,401,c)
);
}
);
width = 510;
}
);
unicode = 167;
},
{
glyphname = dieresis;
layers = (
{
hints = (
{
horizontal = 1;
place = (560,137);
type = Stem;
},
{
place = (34,164);
type = Stem;
},
{
place = (247,164);
type = Stem;
}
);
layerId = "F516ED7C-7F23-41BA-A2F1-1EB4B95E9343";
shapes = (
{
closed = 1;
nodes = (
(198,560,l),
(198,697,l),
(34,697,l),
(34,560,l)
);
},
{
closed = 1;
nodes = (
(411,560,l),
(411,697,l),
(247,697,l),
(247,560,l)
);
}
);
width = 446;
},
{
hints = (
{
horizontal = 1;
place = (608,85);
type = Stem;
},
{
place = (60,91);
type = Stem;
},
{
place = (231,91);
type = Stem;
}
);
layerId = "8B72E089-1E16-4D07-A0B8-3936BD35683A";
shapes = (
{
closed = 1;
nodes = (
(151,608,l),
(151,693,l),
(60,693,l),
(60,608,l)
);
},
{
closed = 1;
nodes = (
(322,608,l),
(322,693,l),
(231,693,l),
(231,608,l)
);
}
);
width = 382;
},
{
hints = (
{
horizontal = 1;
place = (624,68);
type = Stem;
},
{
place = (69,67);
type = Stem;
},
{
place = (226,67);
type = Stem;
}
);
layerId = "3FC04E8D-38CC-44E9-A58D-856391625EC6";
shapes = (
{
closed = 1;
nodes = (
(136,624,l),
(136,692,l),
(69,692,l),
(69,624,l)
);
},
{
closed = 1;
nodes = (
(293,624,l),
(293,692,l),
(226,692,l),
(226,624,l)
);
}
);
width = 361;
}
);
unicode = 168;
},
{
glyphname = copyright;
layers = (
{
hints = (
{
horizontal = 1;
place = (-12,121);
type = Stem;
},
{
horizontal = 1;
place = (164,107);
type = Stem;
},
{
horizontal = 1;
place = (432,106);
type = Stem;
},
{
horizontal = 1;
place = (596,119);
type = Stem;
},
{
place = (24,129);
type = Stem;
},
{
place = (207,145);
type = Stem;
},
{
place = (458,118);
type = Stem;
},
{
place = (642,130);
type = Stem;
}
);
layerId = "F516ED7C-7F23-41BA-A2F1-1EB4B95E9343";
shapes = (
{
closed = 1;
nodes = (
(610,-12,o),
(772,151,o),
(772,351,cs),
(772,551,o),
(610,715,o),
(398,715,cs),
(185,715,o),
(24,551,o),
(24,351,cs),
(24,151,o),
(185,-12,o),
(398,-12,cs)
);
},
{
closed = 1;
nodes = (
(259,109,o),
(153,202,o),
(153,350,cs),
(153,500,o),
(259,596,o),
(398,596,cs),
(537,596,o),
(642,500,o),
(642,350,cs),
(642,202,o),
(537,109,o),
(398,109,cs)
);
},
{
closed = 1;
nodes = (
(207,242,o),
(287,164,o),
(398,164,cs),
(503,164,o),
(571,228,o),
(576,304,c),
(458,326,l),
(452,290,o),
(432,271,o),
(404,271,cs),
(370,271,o),
(352,295,o),
(352,350,cs),
(352,406,o),
(370,432,o),
(404,432,cs),
(432,432,o),
(452,409,o),
(457,369,c),
(582,392,l),
(576,470,o),
(503,538,o),
(398,538,cs),
(287,538,o),
(207,460,o),
(207,350,cs)
);
}
);
width = 796;
},
{
hints = (
{
horizontal = 1;
place = (-14,50);
type = Stem;
},
{
horizontal = 1;
place = (149,49);
type = Stem;
},
{
horizontal = 1;
place = (500,49);
type = Stem;
},
{
horizontal = 1;
place = (664,50);
type = Stem;
},
{
place = (32,53);
type = Stem;
},
{
place = (204,56);
type = Stem;
},
{
place = (687,53);
type = Stem;
}
);
layerId = "8B72E089-1E16-4D07-A0B8-3936BD35683A";
shapes = (
{
closed = 1;
nodes = (
(584,-14,o),
(740,147,o),
(740,350,cs),
(740,553,o),
(584,714,o),
(386,714,cs),
(188,714,o),
(32,553,o),
(32,350,cs),
(32,147,o),
(188,-14,o),
(386,-14,cs)
);
},
{
closed = 1;
nodes = (
(217,36,o),
(85,172,o),
(85,349,cs),
(85,527,o),
(217,664,o),
(386,664,cs),
(555,664,o),
(687,527,o),
(687,349,cs),
(687,172,o),
(555,36,o),
(386,36,cs)
);
},
{
closed = 1;
nodes = (
(204,232,o),
(281,149,o),
(388,149,cs),
(477,149,o),
(539,201,o),
(556,280,c),
(503,299,l),
(495,235,o),
(454,198,o),
(388,198,cs),
(312,198,o),
(260,259,o),
(260,349,cs),
(260,439,o),
(312,500,o),
(388,500,cs),
(450,500,o),
(491,468,o),
(504,411,c),
(556,428,l),
(535,503,o),
(473,549,o),
(388,549,cs),
(281,549,o),
(204,466,o),
(204,349,cs)
);
}
);
width = 772;
},
{
hints = (
{
horizontal = 1;
place = (-15,27);
type = Stem;
},
{
horizontal = 1;
place = (144,30);
type = Stem;
},
{
horizontal = 1;
place = (523,30);
type = Stem;
},
{
horizontal = 1;
place = (687,27);
type = Stem;
},
{
place = (35,28);
type = Stem;
},
{
place = (203,27);
type = Stem;
},
{
place = (702,28);
type = Stem;
}
);
layerId = "3FC04E8D-38CC-44E9-A58D-856391625EC6";
shapes = (
{
closed = 1;
nodes = (
(576,-15,o),
(730,146,o),
(730,350,cs),
(730,554,o),
(576,714,o),
(382,714,cs),
(189,714,o),
(35,554,o),
(35,350,cs),
(35,146,o),
(189,-15,o),
(382,-15,cs)
);
},
{
closed = 1;
nodes = (
(203,12,o),
(63,162,o),
(63,349,cs),
(63,536,o),
(203,687,o),
(382,687,cs),
(561,687,o),
(702,536,o),
(702,349,cs),
(702,162,o),
(561,12,o),
(382,12,cs)
);
},
{
closed = 1;
nodes = (
(203,229,o),
(279,144,o),
(385,144,cs),
(469,144,o),
(529,192,o),
(550,272,c),
(523,282,l),
(508,214,o),
(458,174,o),
(383,174,cs),
(293,174,o),
(230,247,o),
(230,349,cs),
(230,450,o),
(293,523,o),
(383,523,cs),
(456,523,o),
(504,488,o),
(520,425,c),
(548,440,l),
(522,514,o),
(463,553,o),
(385,553,cs),
(279,553,o),
(203,468,o),
(203,349,cs)
);
}
);
width = 764;
}
);
unicode = 169;
},
